<svg width="678" height="674" viewBox="0 0 678 674" fill="none" xmlns="http://www.w3.org/2000/svg">
<path d="M158.193 670.866C243.252 670.866 312.206 627.784 312.206 574.639C312.206 521.494 243.252 478.412 158.193 478.412C73.1339 478.412 4.17993 521.494 4.17993 574.639C4.17993 627.784 73.1339 670.866 158.193 670.866Z" fill="#FF6242"/>
<path d="M158.193 670.866C243.252 670.866 312.206 627.784 312.206 574.639C312.206 521.494 243.252 478.412 158.193 478.412C73.1339 478.412 4.17993 521.494 4.17993 574.639C4.17993 627.784 73.1339 670.866 158.193 670.866Z" stroke="#070808" stroke-width="6" stroke-miterlimit="10"/>
<path d="M145.827 413.386L123.448 484.539C120.976 492.401 120.39 500.736 121.737 508.867C123.085 516.998 126.328 524.698 131.204 531.343C136.08 537.989 142.452 543.392 149.804 547.117C157.157 550.842 165.283 552.784 173.525 552.785C186.775 552.784 199.535 547.772 209.244 538.756C218.954 529.74 224.895 517.386 225.876 504.173L232.388 416.395L145.827 413.386Z" fill="#FFDA8F" stroke="#45413C" stroke-linecap="round" stroke-linejoin="round"/>
<path d="M123.448 484.539C123.448 484.539 169.161 502.554 197.48 486.929C225.799 471.304 234.588 442.986 234.588 442.986L223.846 416.619L138.888 412.713L123.448 484.539Z" fill="#FFBE3D"/>
<path d="M145.827 413.386L123.448 484.539C120.976 492.401 120.39 500.736 121.737 508.867C123.085 516.998 126.328 524.698 131.204 531.343C136.08 537.989 142.452 543.392 149.804 547.117C157.157 550.842 165.283 552.784 173.525 552.785C186.775 552.784 199.535 547.772 209.244 538.756C218.954 529.74 224.895 517.386 225.876 504.173L232.388 416.395L145.827 413.386Z" stroke="#070808" stroke-width="6" stroke-miterlimit="10"/>
<path d="M182.925 314.458C182.925 293.587 174.634 273.571 159.876 258.813C145.119 244.055 125.103 235.765 104.232 235.765C83.3611 235.765 63.3461 244.055 48.5881 258.813C33.8301 273.571 25.5391 293.587 25.5391 314.458C33.6201 324.303 27.8921 336.294 32.1061 345.935C26.8811 357.91 24.7201 370.998 25.8171 384.018C26.9151 397.038 31.2381 409.579 38.3951 420.51C45.5521 431.442 55.3181 440.419 66.8121 446.632C78.3061 452.845 91.1661 456.099 104.232 456.099C117.298 456.099 130.158 452.845 141.652 446.632C153.146 440.419 162.913 431.442 170.07 420.51C177.226 409.579 181.549 397.038 182.647 384.018C183.745 370.998 181.583 357.91 176.358 345.935C180.699 336.009 182.935 325.291 182.925 314.458Z" fill="#724F3D"/>
<path d="M123.919 415.565C80.458 415.565 49.2189 400.023 50.0589 356.565C51.0589 304.62 94.514 315.81 94.514 304.615C94.514 286.395 87.721 245.977 89.771 214.72C51.032 215.657 13.2539 228.12 4.31795 259.401C-1.08805 278.321 16.049 303.781 28.893 317.501C32.286 330.227 13.53 330.801 32.106 345.928C24.431 363.499 23.437 383.268 29.31 401.521C35.183 419.773 47.5179 435.253 63.9989 445.053C80.4799 454.852 99.972 458.296 118.814 454.737C137.655 451.179 154.548 440.863 166.32 425.728C155.156 431.809 137.525 415.565 123.919 415.565Z" fill="#A86C4D"/>
<path d="M182.925 314.458C182.925 270.997 145.411 251.151 110.819 224.841C69.4189 193.348 -43.688 239.241 25.539 314.458C44.545 335.108 3.40895 321.967 32.106 345.935C26.88 357.91 24.719 370.998 25.817 384.018C26.915 397.038 31.2369 409.579 38.3939 420.51C45.5509 431.442 55.317 440.419 66.812 446.632C78.306 452.845 91.1659 456.099 104.232 456.099C117.298 456.099 130.158 452.845 141.652 446.632C153.146 440.419 162.912 431.442 170.069 420.51C177.226 409.579 181.549 397.038 182.647 384.018C183.744 370.998 181.583 357.91 176.358 345.935C180.698 336.009 182.934 325.291 182.925 314.458Z" stroke="#070808" stroke-width="6" stroke-miterlimit="10"/>
<path d="M92.7 254.038H288.484V363.178C288.484 389.141 278.171 414.04 259.812 432.398C241.454 450.756 216.555 461.07 190.592 461.07C164.63 461.07 139.73 450.756 121.372 432.398C103.014 414.04 92.7 389.141 92.7 363.178V254.038Z" fill="#FFDA8F" stroke="#45413C" stroke-linecap="round" stroke-linejoin="round"/>
<path d="M109.6 302.045C109.6 302.045 135.079 313.29 182.1 307.882C225.944 302.839 262.058 283.962 262.058 283.962C262.058 283.962 287.212 299.471 287.212 308.481C298.152 304.62 303.3 251.208 303.3 251.208L264.046 244.13C264.046 244.13 110.884 276.305 109.6 302.045Z" fill="#FFBE3D"/>
<path d="M203.813 441.119C122.831 450.119 95.731 368.912 95.731 368.912C94.792 370.212 93.9521 371.523 93.1741 372.843C95.5741 397.014 106.873 419.429 124.876 435.734C142.88 452.039 166.301 461.069 190.591 461.07C208.733 461.074 226.52 456.036 241.965 446.518C257.41 437 269.906 423.377 278.059 407.17L280.449 393.496C280.449 393.496 274.348 433.282 203.813 441.119Z" fill="#FFBE3D"/>
<path d="M92.7 254.038H288.484V363.178C288.484 389.141 278.171 414.04 259.812 432.398C241.454 450.756 216.555 461.07 190.592 461.07C164.63 461.07 139.73 450.756 121.372 432.398C103.014 414.04 92.7 389.141 92.7 363.178V254.038Z" stroke="#070808" stroke-width="6" stroke-miterlimit="10"/>
<path d="M253.94 203.182C253.94 203.182 238.14 233.16 256.217 260.858C262.243 270.09 285.364 271.222 287.811 294.208C290.762 321.926 340.624 239.881 291.322 206.883C281.98 200.631 257.048 172.88 253.94 203.182Z" fill="#EFDD5C"/>
<path d="M253.94 203.182C253.94 203.182 238.14 233.16 256.217 260.858C262.243 270.09 285.364 271.222 287.811 294.208C290.762 321.926 340.624 239.881 291.322 206.883C281.98 200.631 257.048 172.88 253.94 203.182Z" fill="#724F3D"/>
<path d="M253.94 203.182C253.94 203.182 238.14 233.16 256.217 260.858C262.243 270.09 285.364 271.222 287.811 294.208C290.762 321.926 338.617 242.556 291.322 206.883C282.348 200.115 257.048 172.88 253.94 203.182Z" stroke="#070808" stroke-width="6" stroke-linecap="round" stroke-linejoin="round"/>
<path d="M94.514 304.62C154.77 303.585 217.129 293.044 268.942 254.714C284.111 243.493 292.549 211.323 276.471 192.304C212.761 116.94 114.453 174.345 94.541 206.49C73.959 239.717 66.2 273.609 94.514 304.62Z" fill="#A86C4D"/>
<path d="M281.245 199.71C279.402 211.878 273.407 223.136 265.631 228.889C219.71 262.859 165.506 275 111.824 278.046C104.243 278.529 96.707 276.563 90.329 272.437C83.951 268.311 79.068 262.244 76.4 255.132C76.37 255.051 76.341 254.97 76.312 254.889C66.212 266.111 67.038 290.013 94.512 304.62C154.768 303.585 217.127 293.044 268.94 254.714C282.28 244.847 290.406 218.787 281.245 199.71Z" fill="#724F3D"/>
<path d="M92.684 303.477C97.255 307.95 222.456 298.348 268.942 254.714C282.7 241.801 292.549 211.323 276.471 192.304C212.761 116.94 114.453 174.345 94.541 206.49C88.013 217.028 81.672 228.705 77.741 240.758" stroke="#070808" stroke-width="6" stroke-linecap="round" stroke-linejoin="round"/>
<path d="M274.911 316.308C274.911 316.308 266.605 305.315 251.987 305.87" stroke="#070808" stroke-width="6" stroke-miterlimit="10" stroke-linecap="round"/>
<path d="M261.71 339.599C264.592 339.407 266.655 335.128 266.316 330.041C265.978 324.954 263.366 320.986 260.484 321.178C257.601 321.37 255.539 325.649 255.877 330.736C256.216 335.823 258.827 339.791 261.71 339.599Z" fill="#070808"/>
<path d="M224.29 328.639L243.668 359.447L222.784 364.668" stroke="#070808" stroke-width="6" stroke-linecap="round" stroke-linejoin="round"/>
<path d="M158.874 327.7C158.874 327.7 166.791 316.424 181.419 316.467" stroke="#070808" stroke-width="6" stroke-miterlimit="10" stroke-linecap="round"/>
<path d="M180.959 348.984C183.79 348.411 185.265 343.895 184.254 338.899C183.242 333.902 180.126 330.316 177.294 330.889C174.463 331.463 172.988 335.978 174 340.975C175.012 345.972 178.127 349.558 180.959 348.984Z" fill="#070808"/>
<path d="M198.115 402.139C198.115 402.139 217.963 375.362 246.192 390.45" stroke="#070808" stroke-width="6" stroke-linecap="round" stroke-linejoin="round"/>
<path d="M253.94 203.182C253.94 203.182 247.213 238.802 193.548 241.676" stroke="#070808" stroke-width="6" stroke-linecap="round" stroke-linejoin="round"/>
<path d="M107.173 357.687C81.4969 367.749 61.5849 342.75 62.0669 331.664C65.1899 259.842 109.437 307.455 109.437 307.455" fill="#FFDA8F"/>
<path d="M107.173 357.687C81.4969 367.749 61.5849 342.75 62.0669 331.664C65.1899 259.842 109.437 307.455 109.437 307.455" stroke="#45413C" stroke-linecap="round" stroke-linejoin="round"/>
<path d="M107.173 357.687C75.232 373.432 54.087 329.587 60.809 312.376C77.925 268.568 109.437 307.455 109.437 307.455" stroke="#070808" stroke-width="6" stroke-miterlimit="10" stroke-linecap="round"/>
<path d="M616.586 20.179H430.151C405.903 20.179 386.245 39.836 386.245 64.085V187.963C386.245 212.211 405.903 231.869 430.151 231.869H616.586C640.835 231.869 660.492 212.211 660.492 187.963V64.085C660.492 39.836 640.835 20.179 616.586 20.179Z" fill="#CFD5EC"/>
<path d="M630.59 3.702H444.155C419.906 3.702 400.249 23.36 400.249 47.608V171.486C400.249 195.735 419.906 215.392 444.155 215.392H630.59C654.839 215.392 674.496 195.735 674.496 171.486V47.608C674.496 23.36 654.839 3.702 630.59 3.702Z" fill="#73E1FF"/>
<path d="M630.59 3.702H444.155C419.906 3.702 400.249 23.36 400.249 47.608V171.486C400.249 195.735 419.906 215.392 444.155 215.392H630.59C654.839 215.392 674.496 195.735 674.496 171.486V47.608C674.496 23.36 654.839 3.702 630.59 3.702Z" stroke="#070808" stroke-width="6" stroke-miterlimit="10"/>
<path d="M410.449 287.671C423.399 287.671 433.898 277.173 433.898 264.222C433.898 251.272 423.399 240.773 410.449 240.773C397.498 240.773 387 251.272 387 264.222C387 277.173 397.498 287.671 410.449 287.671Z" stroke="#070808" stroke-width="6" stroke-miterlimit="10"/>
<path d="M369.254 322.015C377.257 322.015 383.745 315.527 383.745 307.524C383.745 299.521 377.257 293.033 369.254 293.033C361.251 293.033 354.763 299.521 354.763 307.524C354.763 315.527 361.251 322.015 369.254 322.015Z" stroke="#070808" stroke-width="6" stroke-miterlimit="10"/>
<path d="M612.509 129.054H455.526C449.28 129.054 444.217 134.117 444.217 140.363V167.902C444.217 174.148 449.28 179.211 455.526 179.211H612.509C618.755 179.211 623.818 174.148 623.818 167.902V140.363C623.818 134.117 618.755 129.054 612.509 129.054Z" fill="white"/>
<path d="M467.2 168.121C464.2 168.12 461.324 166.929 459.203 164.808C457.082 162.687 455.891 159.81 455.891 156.811V129.273C455.891 129.199 455.901 129.127 455.902 129.054H455.527C452.527 129.054 449.651 130.245 447.53 132.366C445.409 134.487 444.218 137.363 444.218 140.363V167.9C444.218 170.899 445.409 173.776 447.53 175.896C449.651 178.017 452.527 179.209 455.527 179.209H612.508C615.468 179.209 618.311 178.048 620.424 175.974C622.538 173.9 623.752 171.08 623.808 168.12L467.2 168.121Z" fill="#E4E4E4"/>
<path d="M612.509 129.054H455.526C449.28 129.054 444.217 134.117 444.217 140.363V167.902C444.217 174.148 449.28 179.211 455.526 179.211H612.509C618.755 179.211 623.818 174.148 623.818 167.902V140.363C623.818 134.117 618.755 129.054 612.509 129.054Z" stroke="#070808" stroke-width="6" stroke-miterlimit="10"/>
<path d="M480.96 160.947C485.573 160.947 489.312 157.208 489.312 152.595C489.312 147.982 485.573 144.243 480.96 144.243C476.347 144.243 472.608 147.982 472.608 152.595C472.608 157.208 476.347 160.947 480.96 160.947Z" fill="#070808"/>
<path d="M507.923 160.947C512.535 160.947 516.275 157.208 516.275 152.595C516.275 147.982 512.535 144.243 507.923 144.243C503.31 144.243 499.571 147.982 499.571 152.595C499.571 157.208 503.31 160.947 507.923 160.947Z" fill="#070808"/>
<path d="M534.887 160.947C539.5 160.947 543.239 157.208 543.239 152.595C543.239 147.982 539.5 144.243 534.887 144.243C530.275 144.243 526.535 147.982 526.535 152.595C526.535 157.208 530.275 160.947 534.887 160.947Z" fill="#070808"/>
<path d="M561.85 160.947C566.463 160.947 570.202 157.208 570.202 152.595C570.202 147.982 566.463 144.243 561.85 144.243C557.237 144.243 553.498 147.982 553.498 152.595C553.498 157.208 557.237 160.947 561.85 160.947Z" fill="#070808"/>
<path d="M588.814 160.947C593.427 160.947 597.166 157.208 597.166 152.595C597.166 147.982 593.427 144.243 588.814 144.243C584.201 144.243 580.462 147.982 580.462 152.595C580.462 157.208 584.201 160.947 588.814 160.947Z" fill="#070808"/>
<path d="M448.7 103.577C448.7 103.577 532.4 89.949 521.261 59.282C511.905 33.517 488.254 52.427 489.076 58.54C494.813 101.222 560.753 106.118 573.011 72.575C589.837 26.533 554.017 30.313 560.7 53.669C567.383 77.025 598.595 35.926 605.279 70.557" stroke="#070808" stroke-width="6" stroke-miterlimit="10" stroke-linecap="round"/>
<path d="M516.98 349.4C516.999 347.025 517.73 344.71 519.08 342.756C520.317 340.826 521.853 339.105 523.629 337.656C525.311 336.316 526.837 334.79 528.177 333.107C529.46 331.662 530.202 329.817 530.277 327.886C530.321 327.075 530.172 326.264 529.842 325.521C529.511 324.779 529.009 324.125 528.377 323.614C526.831 322.529 524.963 322 523.077 322.114C518.648 322.114 515.51 324.461 513.664 329.153L504.33 323.774C505.794 320.013 508.447 316.833 511.884 314.717C515.366 312.575 519.385 311.465 523.473 311.517C527.981 311.42 532.383 312.887 535.931 315.669C537.653 317.019 539.029 318.76 539.944 320.748C540.859 322.736 541.287 324.913 541.192 327.099C541.209 329.235 540.735 331.346 539.807 333.269C538.961 335.055 537.84 336.697 536.484 338.135C535.192 339.479 533.9 340.746 532.609 341.935C531.382 343.048 530.269 344.28 529.286 345.613C528.427 346.698 527.942 348.031 527.902 349.413L516.98 349.4ZM527.18 367.04C526.083 368.129 524.642 368.803 523.104 368.949C521.565 369.095 520.024 368.704 518.741 367.841C517.459 366.979 516.515 365.699 516.07 364.219C515.625 362.739 515.707 361.15 516.301 359.724C516.895 358.297 517.966 357.12 519.33 356.394C520.694 355.667 522.267 355.436 523.783 355.739C525.298 356.042 526.662 356.861 527.642 358.056C528.622 359.251 529.157 360.749 529.157 362.294C529.169 363.178 529.001 364.055 528.662 364.872C528.322 365.688 527.82 366.426 527.185 367.041L527.18 367.04Z" fill="#EA7AAF"/>
<path d="M273 72.055C273.021 69.159 273.911 66.337 275.556 63.955C277.064 61.602 278.934 59.503 281.099 57.737C283.15 56.103 285.01 54.243 286.643 52.193C288.205 50.431 289.108 48.182 289.197 45.83C289.251 44.841 289.07 43.853 288.668 42.948C288.266 42.043 287.654 41.246 286.884 40.624C285 39.299 282.723 38.653 280.424 38.792C275.024 38.792 271.2 41.652 268.951 47.373L257.574 40.817C259.359 36.232 262.593 32.356 266.782 29.777C271.026 27.166 275.924 25.813 280.906 25.877C286.401 25.758 291.767 27.547 296.091 30.939C300.364 34.313 302.5 38.955 302.5 44.867C302.521 47.469 301.944 50.042 300.813 52.387C299.782 54.563 298.416 56.563 296.764 58.316C295.188 59.955 293.614 61.498 292.04 62.944C290.545 64.3 289.188 65.802 287.99 67.427C286.945 68.748 286.353 70.371 286.304 72.055H273ZM285.437 93.555C284.1 94.88 282.345 95.701 280.47 95.879C278.596 96.056 276.718 95.579 275.156 94.527C273.594 93.476 272.444 91.916 271.902 90.113C271.361 88.31 271.461 86.375 272.185 84.637C272.909 82.899 274.213 81.465 275.875 80.581C277.537 79.696 279.454 79.414 281.301 79.783C283.147 80.152 284.808 81.15 286.002 82.606C287.196 84.062 287.848 85.887 287.848 87.77C287.862 88.847 287.656 89.917 287.241 90.911C286.826 91.906 286.212 92.806 285.437 93.555Z" fill="#EA7AAF"/>
</svg>
