<svg width="607" height="461" viewBox="0 0 607 461" fill="none" xmlns="http://www.w3.org/2000/svg">
<path d="M271.374 25.3734C286.193 19.7962 302.439 19.7962 317.258 25.4382C310.533 16.5537 302.737 9.09593 294.286 3C285.836 9.09593 278.04 16.5537 271.374 25.3734Z" fill="#601B23"/>
<path d="M595 344.048C585.954 346.966 578.575 354.164 574.885 363.503C567.744 360.714 560.007 359.158 551.973 359.158C528.168 359.158 507.22 372.517 495.079 392.685C488.771 389.443 481.749 387.692 474.31 387.692C471.037 387.692 467.883 388.016 464.847 388.73C464.847 388.405 464.847 388.081 464.847 387.692C464.847 371.155 454.135 357.342 439.912 354.035C434.437 333.607 417.178 318.626 396.647 318.626C379.567 318.626 364.689 329.002 357.071 344.242C351.775 338.86 344.693 335.487 336.897 335.487C332.433 335.487 328.208 336.59 324.399 338.471C319.757 330.624 315.651 322.388 312.14 313.698C303.451 292.297 298.631 268.432 298.631 243.4C298.631 241.13 298.69 238.925 298.75 236.656C299.761 207.668 307.2 180.495 319.638 156.76H268.161C280.599 180.495 288.038 207.732 289.049 236.72C289.109 238.925 289.168 241.13 289.168 243.335C289.168 267.978 284.467 291.519 276.016 312.79C270.482 326.668 263.4 339.638 254.889 351.376C247.688 341.648 236.679 335.487 224.36 335.487C211.981 335.487 200.972 341.713 193.771 351.441C187.998 347.744 181.333 345.604 174.132 345.604C162.586 345.604 152.172 351.181 145.09 359.936C134.616 343.01 116.881 331.856 96.7663 331.856C64.6298 331.856 38.5637 360.26 38.5637 395.279C38.5637 395.474 38.5637 395.669 38.5637 395.863C16.7824 407.925 1.4878 431.92 0 460H140.448H428.426H595V344.048Z" fill="#A9A9A9"/>
<path d="M572 362C591.833 368.5 624.2 397.3 595 460.5C588.2 456.1 576.833 393 572 362Z" fill="#A9A9A9"/>
<path d="M597 380.5C587 367.7 575.5 363.167 571 362.5C573 356.167 577.2 343.2 578 342C579 340.5 603.5 335.5 604.5 336C605.5 336.5 609.5 396.5 597 380.5Z" fill="white"/>
<path d="M271.374 25.3734C286.193 19.7962 302.439 19.7962 317.258 25.4382C310.533 16.5537 302.737 9.09593 294.286 3C285.836 9.09593 278.04 16.5537 271.374 25.3734Z" stroke="#601B23" stroke-width="6" stroke-miterlimit="10" stroke-linecap="round" stroke-linejoin="round"/>
<path d="M319.222 277.252C319.222 289.314 316.901 300.857 312.616 312.595C312.497 312.984 312.318 313.373 312.14 313.827C307.855 324.982 301.725 336.136 294.286 342.686C286.609 335.941 280.361 324.333 276.016 312.855C275.957 312.79 275.957 312.725 275.897 312.595C271.612 300.857 269.291 289.314 269.291 277.252C269.291 273.555 269.529 269.924 269.946 266.162C271.374 253.582 279.23 238.407 289.049 236.785C289.168 236.785 289.287 236.72 289.406 236.72C292.501 236.331 295.655 236.331 298.75 236.656C298.869 236.656 299.047 236.656 299.166 236.72C309.164 238.082 317.198 253.452 318.627 266.162C318.984 269.924 319.222 273.555 319.222 277.252Z" fill="#F4A045"/>
<path d="M319.222 277.252C319.222 289.314 316.901 300.857 312.616 312.595C312.497 312.984 312.318 313.373 312.14 313.827C307.855 324.982 301.725 336.136 294.286 342.686C286.609 335.941 280.361 324.333 276.016 312.855C275.957 312.79 275.957 312.725 275.897 312.595C271.612 300.857 269.291 289.314 269.291 277.252C269.291 273.555 269.529 269.924 269.946 266.162C271.374 253.582 279.23 238.407 289.049 236.785C289.168 236.785 289.287 236.72 289.406 236.72C292.501 236.331 295.655 236.331 298.75 236.656C298.869 236.656 299.047 236.656 299.166 236.72C309.164 238.082 317.198 253.452 318.627 266.162C318.984 269.924 319.222 273.555 319.222 277.252Z" stroke="#601B23" stroke-width="6" stroke-miterlimit="10" stroke-linecap="round" stroke-linejoin="round"/>
<path d="M291.549 236.591C285.955 237.369 281.491 245.929 280.658 252.998C280.42 255.073 280.301 257.083 280.301 259.159C280.301 265.903 281.61 272.323 283.991 278.873C286.371 285.293 289.942 291.843 294.227 295.605C298.571 291.843 302.082 285.293 304.463 278.873C306.843 272.323 308.153 265.903 308.153 259.159C308.153 257.083 308.034 255.073 307.795 252.998C306.962 245.864 302.499 237.369 296.905 236.591C295.179 236.396 293.334 236.396 291.549 236.591Z" fill="#E36535"/>
<path d="M291.549 236.591C285.955 237.369 281.491 245.929 280.658 252.998C280.42 255.073 280.301 257.083 280.301 259.159C280.301 265.903 281.61 272.323 283.991 278.873C286.371 285.293 289.942 291.843 294.227 295.605C298.571 291.843 302.082 285.293 304.463 278.873C306.843 272.323 308.153 265.903 308.153 259.159C308.153 257.083 308.034 255.073 307.795 252.998C306.962 245.864 302.499 237.369 296.905 236.591C295.179 236.396 293.334 236.396 291.549 236.591Z" stroke="#601B23" stroke-width="6" stroke-miterlimit="10" stroke-linecap="round" stroke-linejoin="round"/>
<path d="M222.455 137.564L203.055 145.8V105.658L262.626 55.0099V130.95L248.224 139.186C240.547 134.776 231.204 133.868 222.455 137.564Z" fill="#C11A4D"/>
<path d="M196.746 156.306C190.676 146.708 187.165 135.359 187.165 123.232C187.165 107.863 192.699 93.7904 201.924 82.9604C211.148 93.7904 216.742 107.863 216.802 123.232C216.802 135.424 213.291 146.708 207.28 156.306H196.746Z" fill="#CF264D"/>
<path opacity="0.72" d="M203.055 145.8L222.336 137.629C222.574 132.052 222.217 126.345 221.265 120.638C219.837 112.078 217.159 104.037 213.469 96.7735L203.055 105.658V145.8Z" fill="#A5143A"/>
<path opacity="0.23" d="M205.554 116.877L262.685 68.3691V55.0099L203.055 105.593V145.8L205.554 144.763V116.877Z" fill="#F4A15D"/>
<path opacity="0.72" d="M238.94 135.749C242.213 136.332 245.308 137.499 248.224 139.186L262.626 130.95V55.0099L237.512 76.3457C236.262 84.5817 235.667 93.2068 235.667 102.091C235.727 113.829 236.857 125.178 238.94 135.749Z" fill="#A5143A"/>
<path d="M222.455 137.564L203.055 145.8V105.658L262.626 55.0099V130.95L248.224 139.186C240.547 134.776 231.204 133.868 222.455 137.564Z" stroke="#601B23" stroke-width="6" stroke-miterlimit="10" stroke-linecap="round" stroke-linejoin="round"/>
<path d="M196.746 156.306C190.676 146.708 187.165 135.359 187.165 123.232C187.165 107.863 192.699 93.7904 201.924 82.9604C211.148 93.7904 216.742 107.863 216.802 123.232C216.802 135.424 213.291 146.708 207.28 156.306H196.746Z" fill="#CF264D"/>
<path opacity="0.23" d="M201.031 82.9604C201.745 83.8035 202.459 84.7114 203.114 85.6193C196.925 95.9953 193.354 108.187 193.295 121.157C193.295 133.998 195.08 145.995 201.15 156.371H195.675C189.664 146.773 186.153 135.424 186.153 123.297C186.213 107.863 191.807 93.7904 201.031 82.9604Z" fill="#F4A15D"/>
<path opacity="0.32" d="M201.031 82.9604C201.269 83.2198 201.507 83.5441 201.745 83.8683C194.782 95.0874 190.795 108.252 190.736 122.389C190.736 134.646 193.771 146.189 199.067 156.371H195.675C189.664 146.773 186.153 135.424 186.153 123.297C186.213 107.863 191.807 93.7904 201.031 82.9604Z" fill="#F4A15D"/>
<path opacity="0.37" d="M216.802 123.232C216.802 107.863 211.208 93.8553 201.924 82.9604C201.21 83.8035 200.496 84.7114 199.841 85.6193C206.03 95.9953 209.601 108.187 209.66 121.157C209.66 133.998 206.209 145.995 200.138 156.371H207.28C213.291 146.708 216.802 135.359 216.802 123.232Z" fill="#A5143A"/>
<path opacity="0.72" d="M216.802 123.232C216.802 107.863 211.208 93.8553 201.924 82.9604C201.686 83.2198 201.448 83.5441 201.21 83.8683C208.173 95.0874 212.16 108.252 212.219 122.389C212.219 134.646 209.184 146.189 203.888 156.371H207.28C213.291 146.708 216.802 135.359 216.802 123.232Z" fill="#A5143A"/>
<path opacity="0.37" d="M201.924 82.9604C201.21 83.8035 200.496 84.7114 199.841 85.6193C206.03 95.9953 209.601 108.187 209.66 121.157C209.66 133.998 206.209 145.995 200.138 156.371H207.28C213.291 146.773 216.802 135.424 216.802 123.297C216.742 107.863 211.148 93.7904 201.924 82.9604Z" fill="#A5143A"/>
<path opacity="0.72" d="M201.924 82.9604C201.686 83.2198 201.448 83.5441 201.21 83.8683C208.173 95.0874 212.16 108.252 212.219 122.389C212.219 134.646 209.184 146.189 203.888 156.371H207.28C213.291 146.773 216.802 135.424 216.802 123.297C216.742 107.863 211.148 93.7904 201.924 82.9604Z" fill="#A5143A"/>
<path d="M208.708 94.6335C206.506 90.4182 203.888 86.5272 200.853 82.8956C197.817 86.4623 195.199 90.4182 192.997 94.6335H208.708Z" fill="#601B23"/>
<path d="M196.746 156.306C190.676 146.708 187.165 135.359 187.165 123.232C187.165 107.863 192.699 93.7904 201.924 82.9604C211.148 93.7904 216.742 107.863 216.802 123.232C216.802 135.424 213.291 146.708 207.28 156.306H196.746Z" stroke="#601B23" stroke-width="6" stroke-miterlimit="10" stroke-linecap="round" stroke-linejoin="round"/>
<path d="M274.052 206.371C274.052 206.371 266.851 208.057 256.496 219.341C252.747 223.426 246.855 231.727 242.511 238.017C240.726 240.611 236.917 239.314 236.857 236.072L235.429 167.006C235.131 165.061 235.608 163.051 236.738 161.559L252.33 140.418L274.052 206.371Z" fill="#CF264D"/>
<path opacity="0.32" d="M236.738 237.434C240.13 236.915 242.689 233.737 242.749 229.976L243.404 165.774C243.106 163.829 243.582 161.818 244.713 160.327L254.473 147.033L252.271 140.418L236.738 161.494C235.608 163.051 235.131 164.996 235.429 166.942L236.738 237.434Z" fill="#F4A15D"/>
<path opacity="0.72" d="M274.052 206.371L252.33 140.418L243.701 152.156C248.343 171.611 255.663 191.39 265.542 211.105C270.779 207.149 274.052 206.371 274.052 206.371Z" fill="#A5143A"/>
<path d="M274.052 206.371C274.052 206.371 266.851 208.057 256.496 219.341C252.747 223.426 246.855 231.727 242.511 238.017C240.726 240.611 236.917 239.314 236.857 236.072L235.429 167.006C235.131 165.061 235.608 163.051 236.738 161.559L252.33 140.418L274.052 206.371Z" stroke="#601B23" stroke-width="6" stroke-miterlimit="10" stroke-linecap="round" stroke-linejoin="round"/>
<path d="M191.093 147.746H210.672" stroke="#601B23" stroke-width="4" stroke-miterlimit="10" stroke-linecap="round" stroke-linejoin="round"/>
<path d="M196.746 156.306C190.676 146.708 187.165 135.359 187.165 123.232C187.165 107.863 192.699 93.7904 201.924 82.9604C211.148 93.7904 216.742 107.863 216.802 123.232C216.802 135.424 213.291 146.708 207.28 156.306H196.746Z" fill="#CF264D"/>
<path d="M196.746 156.306C190.676 146.708 187.165 135.359 187.165 123.232C187.165 107.863 192.699 93.7904 201.924 82.9604C211.148 93.7904 216.742 107.863 216.802 123.232C216.802 135.424 213.291 146.708 207.28 156.306H196.746Z" fill="#CF264D"/>
<path opacity="0.23" d="M201.031 82.9604C201.745 83.8035 202.459 84.7114 203.114 85.6193C196.925 95.9953 193.354 108.187 193.295 121.157C193.295 133.998 195.08 145.995 201.15 156.371H195.675C189.664 146.773 186.153 135.424 186.153 123.297C186.213 107.863 191.807 93.7904 201.031 82.9604Z" fill="#F4A15D"/>
<path opacity="0.32" d="M201.031 82.9604C201.269 83.2198 201.507 83.5441 201.745 83.8683C194.782 95.0874 190.795 108.252 190.736 122.389C190.736 134.646 193.771 146.189 199.067 156.371H195.675C189.664 146.773 186.153 135.424 186.153 123.297C186.213 107.863 191.807 93.7904 201.031 82.9604Z" fill="#F4A15D"/>
<path opacity="0.37" d="M216.802 123.232C216.802 107.863 211.208 93.8553 201.924 82.9604C201.21 83.8035 200.496 84.7114 199.841 85.6193C206.03 95.9953 209.601 108.187 209.66 121.157C209.66 133.998 206.209 145.995 200.138 156.371H207.28C213.291 146.708 216.802 135.359 216.802 123.232Z" fill="#A5143A"/>
<path opacity="0.72" d="M216.802 123.232C216.802 107.863 211.208 93.8553 201.924 82.9604C201.686 83.2198 201.448 83.5441 201.21 83.8683C208.173 95.0874 212.16 108.252 212.219 122.389C212.219 134.646 209.184 146.189 203.888 156.371H207.28C213.291 146.708 216.802 135.359 216.802 123.232Z" fill="#A5143A"/>
<path opacity="0.37" d="M201.924 82.9604C201.21 83.8035 200.496 84.7114 199.841 85.6193C206.03 95.9953 209.601 108.187 209.66 121.157C209.66 133.998 206.209 145.995 200.138 156.371H207.28C213.291 146.773 216.802 135.424 216.802 123.297C216.742 107.863 211.148 93.7904 201.924 82.9604Z" fill="#A5143A"/>
<path opacity="0.72" d="M201.924 82.9604C201.686 83.2198 201.448 83.5441 201.21 83.8683C208.173 95.0874 212.16 108.252 212.219 122.389C212.219 134.646 209.184 146.189 203.888 156.371H207.28C213.291 146.773 216.802 135.424 216.802 123.297C216.742 107.863 211.148 93.7904 201.924 82.9604Z" fill="#A5143A"/>
<path d="M209.779 94.6335C207.577 90.4182 204.959 86.5272 201.924 82.8956C198.889 86.4623 196.27 90.4182 194.068 94.6335H209.779Z" fill="#601B23"/>
<path d="M196.746 156.306C190.676 146.708 187.165 135.359 187.165 123.232C187.165 107.863 192.699 93.7904 201.924 82.9604C211.148 93.7904 216.742 107.863 216.802 123.232C216.802 135.424 213.291 146.708 207.28 156.306H196.746Z" stroke="#601B23" stroke-width="6" stroke-miterlimit="10" stroke-linecap="round" stroke-linejoin="round"/>
<path d="M191.093 147.746H210.672" stroke="#601B23" stroke-width="4" stroke-miterlimit="10" stroke-linecap="round" stroke-linejoin="round"/>
<path d="M362.606 137.564L382.007 145.8V105.658L322.435 55.0099V130.95L336.837 139.186C344.514 134.776 353.858 133.868 362.606 137.564Z" fill="#C11A4D"/>
<path opacity="0.72" d="M382.007 145.8L362.725 137.629C362.487 132.052 362.844 126.345 363.796 120.638C365.224 112.078 367.902 104.037 371.592 96.7735L382.007 105.658V145.8Z" fill="#A5143A"/>
<path opacity="0.23" d="M379.567 116.877L322.435 68.3691V55.0099L382.007 105.593V145.8L379.567 144.763V116.877Z" fill="#F4A15D"/>
<path opacity="0.72" d="M346.121 135.749C342.848 136.332 339.753 137.499 336.837 139.186L322.435 130.95V55.0099L347.549 76.3457C348.799 84.5817 349.394 93.2068 349.394 102.091C349.394 113.829 348.264 125.178 346.121 135.749Z" fill="#A5143A"/>
<path d="M362.606 137.564L382.007 145.8V105.658L322.435 55.0099V130.95L336.837 139.186C344.514 134.776 353.858 133.868 362.606 137.564Z" stroke="#601B23" stroke-width="6" stroke-miterlimit="10" stroke-linecap="round" stroke-linejoin="round"/>
<path d="M311.069 206.371C311.069 206.371 318.27 208.057 328.625 219.341C332.374 223.426 338.266 231.727 342.61 238.017C344.395 240.611 348.204 239.314 348.264 236.072L349.692 167.006C349.989 165.061 349.513 163.051 348.383 161.559L332.791 140.418L311.069 206.371Z" fill="#CF264D"/>
<path opacity="0.72" d="M348.323 237.434C344.931 236.915 342.372 233.737 342.312 229.976L341.658 165.774C341.955 163.829 341.479 161.818 340.348 160.327L330.589 147.033L332.791 140.418L348.383 161.559C349.513 163.115 349.989 165.061 349.692 167.006L348.323 237.434Z" fill="#A5143A"/>
<path opacity="0.72" d="M311.069 206.371L332.791 140.418L341.42 152.156C336.778 171.611 329.458 191.39 319.579 211.105C314.342 207.149 311.069 206.371 311.069 206.371Z" fill="#A5143A"/>
<path d="M311.069 206.371C311.069 206.371 318.27 208.057 328.625 219.341C332.374 223.426 338.266 231.727 342.61 238.017C344.395 240.611 348.204 239.314 348.264 236.072L349.692 167.006C349.989 165.061 349.513 163.051 348.383 161.559L332.791 140.418L311.069 206.371Z" stroke="#601B23" stroke-width="6" stroke-miterlimit="10" stroke-linecap="round" stroke-linejoin="round"/>
<path d="M310.771 243.465C311.426 235.748 310.474 228.484 298.571 209.354C296.607 206.306 291.906 206.306 289.942 209.354C278.04 228.549 277.087 235.813 277.742 243.465C277.861 244.438 279.468 245.54 280.48 245.151C287.323 241.325 301.19 241.325 308.034 245.151C309.045 245.54 310.652 244.502 310.771 243.465Z" fill="#4E8280"/>
<g opacity="0.32">
<g opacity="0.32">
<g opacity="0.32">
<path opacity="0.32" d="M283.753 243.465C283.098 235.748 284.05 228.484 295.953 209.354C296.31 208.77 296.786 208.316 297.262 207.992C295 206.371 291.549 206.824 289.942 209.354C278.04 228.549 277.087 235.813 277.742 243.465C277.861 244.438 279.468 245.54 280.48 245.151C281.491 244.632 282.622 244.113 283.812 243.724C283.812 243.659 283.753 243.595 283.753 243.465Z" fill="#F4A15D"/>
</g>
<g opacity="0.32">
<path opacity="0.32" d="M297.262 242.427C301.368 242.752 305.236 243.659 308.034 245.151C308.926 245.54 310.354 244.632 310.712 243.724C306.784 242.492 301.904 242.038 297.262 242.427Z" fill="#F4A15D"/>
</g>
</g>
</g>
<path d="M292.025 209.354C291.846 209.094 291.668 208.9 291.489 208.705C293.691 206.306 297.797 206.565 299.583 209.354C311.485 228.549 312.437 235.813 311.783 243.465C311.664 244.438 310.057 245.54 309.045 245.151C307.676 244.373 306.01 243.789 304.225 243.335C304.879 235.683 303.868 228.42 292.025 209.354Z" fill="#37605D"/>
<path d="M310.771 243.465C311.426 235.748 310.474 228.484 298.571 209.354C296.607 206.306 291.906 206.306 289.942 209.354C278.04 228.549 277.087 235.813 277.742 243.465C277.861 244.438 279.468 245.54 280.48 245.151C287.323 241.325 301.19 241.325 308.034 245.151C309.045 245.54 310.652 244.502 310.771 243.465Z" stroke="#601B23" stroke-width="6" stroke-miterlimit="10" stroke-linecap="round" stroke-linejoin="round"/>
<path d="M307.676 220.184C335.707 170.184 345.883 121.092 339.575 80.1718C334.1 44.6339 316.484 19.018 294.227 3C271.969 19.018 254.354 44.6339 248.879 80.1718C242.57 121.092 252.806 170.184 280.777 220.184H307.676Z" fill="#CF264D"/>
<path opacity="0.23" d="M270.184 80.8852C273.755 48.7195 283.039 23.1684 295.536 4.0376C295.119 3.71335 294.643 3.3891 294.227 3.06485C271.969 19.0829 254.354 44.6987 248.879 80.2367C242.57 121.157 252.806 170.249 280.777 220.248H286.431C270.898 170.249 265.661 122.195 270.184 80.8852Z" fill="#F4A15D"/>
<path opacity="0.37" d="M339.575 80.1718C334.159 44.8933 316.782 19.4071 294.703 3.3891C298.809 10.5875 304.046 20.9635 308.45 34.1281C316.484 58.0579 317.377 77.7724 317.853 90.1588C319.995 145.865 300.416 207.473 296.31 220.248H307.676C335.707 170.184 345.883 121.092 339.575 80.1718Z" fill="#A5143A"/>
<path opacity="0.72" d="M339.575 80.1718C334.1 44.6339 316.484 19.018 294.227 3C293.632 3.3891 293.096 3.84307 292.501 4.23217C300.952 11.4306 307.379 19.1477 312.259 26.5407C356.06 92.9474 314.044 192.363 308.272 205.527C308.034 196.578 306.962 185.489 303.927 173.102C301.963 165.191 299.583 158.252 297.202 152.35C296.31 174.334 295.417 196.319 294.524 218.303H301.904C301.725 218.951 301.547 219.535 301.309 220.184H307.557C335.707 170.184 345.883 121.092 339.575 80.1718Z" fill="#A5143A"/>
<path opacity="0.32" d="M256.377 91.4558C257.21 81.0798 260.305 47.3576 279.408 19.6665C282.443 15.3215 286.966 9.42018 286.609 9.09593C286.074 8.57713 275.6 18.8883 268.161 29.848C258.817 43.5314 251.973 60.3276 248.938 80.1718C242.63 121.092 252.866 170.184 280.837 220.184H283.277C275.6 203.517 270.541 188.472 267.089 176.604C264.828 168.628 260.841 154.49 258.341 135.554C256.734 122.843 254.949 109.225 256.377 91.4558Z" fill="#F4A15D"/>
<path opacity="0.72" d="M297.44 104.815C306.38 104.815 313.628 96.9175 313.628 87.1757C313.628 77.4339 306.38 69.5364 297.44 69.5364C288.501 69.5364 281.253 77.4339 281.253 87.1757C281.253 96.9175 288.501 104.815 297.44 104.815Z" fill="#A5143A" stroke="#A5143A" stroke-width="6" stroke-miterlimit="10" stroke-linecap="round" stroke-linejoin="round"/>
<path d="M307.676 220.184C335.707 170.184 345.883 121.092 339.575 80.1718C334.1 44.6339 316.484 19.018 294.227 3C271.969 19.018 254.354 44.6339 248.879 80.1718C242.57 121.092 252.806 170.184 280.777 220.184H307.676Z" stroke="#601B23" stroke-width="6" stroke-miterlimit="10" stroke-linecap="round" stroke-linejoin="round"/>
<path d="M310.213 87.2788C311.645 77.6621 305.653 68.6019 296.828 67.041C288.004 65.48 279.689 72.0104 278.257 81.6271C276.824 91.2431 282.817 100.304 291.642 101.864C300.467 103.425 308.781 96.8948 310.213 87.2788Z" fill="#ABCFD8"/>
<path opacity="0.93" d="M292.025 94.1147C297.415 94.1147 301.785 89.3527 301.785 83.4792C301.785 77.6057 297.415 72.8438 292.025 72.8438C286.635 72.8438 282.265 77.6057 282.265 83.4792C282.265 89.3527 286.635 94.1147 292.025 94.1147Z" fill="#E2F0F2"/>
<path d="M310.213 87.2788C311.645 77.6621 305.653 68.6019 296.828 67.041C288.004 65.48 279.689 72.0104 278.257 81.6271C276.824 91.2431 282.817 100.304 291.642 101.864C300.467 103.425 308.781 96.8948 310.213 87.2788Z" stroke="#601B23" stroke-width="6" stroke-miterlimit="10" stroke-linecap="round" stroke-linejoin="round"/>
<path d="M294.227 250.534C294.881 250.534 295.417 249.755 295.477 248.718L299.94 169.341C300.416 161.17 298.036 153.582 294.524 151.767C294.286 151.637 294.048 151.637 293.87 151.767C290.358 153.518 287.978 161.105 288.454 169.341L292.917 248.718C293.037 249.755 293.632 250.534 294.227 250.534Z" fill="#BC1D4E"/>
<path opacity="0.74" d="M294.227 250.534C294.881 250.534 295.417 249.755 295.477 248.718L299.94 169.341C300.416 161.17 298.036 153.582 294.524 151.767C294.286 151.637 294.048 151.637 293.87 151.767C290.358 153.518 287.978 161.105 288.454 169.341L292.917 248.718C293.037 249.755 293.632 250.534 294.227 250.534Z" fill="#A5143A"/>
<g opacity="0.53">
<g opacity="0.53">
<g opacity="0.53">
<path opacity="0.53" d="M293.929 151.767C290.418 153.518 288.038 161.105 288.514 169.341L292.977 248.718C293.037 249.561 293.394 250.274 293.87 250.469V151.767H293.929Z" fill="#F4A15D"/>
</g>
<g opacity="0.53">
<path opacity="0.53" d="M293.93 151.767H294.584C294.346 151.637 294.108 151.637 293.93 151.767Z" fill="#F4A15D"/>
</g>
</g>
</g>
<path d="M294.227 250.534C294.881 250.534 295.417 249.755 295.477 248.718L299.94 169.341C300.416 161.17 298.036 153.582 294.524 151.767C294.286 151.637 294.048 151.637 293.87 151.767C290.358 153.518 287.978 161.105 288.454 169.341L292.917 248.718C293.037 249.755 293.632 250.534 294.227 250.534Z" stroke="#601B23" stroke-width="6" stroke-miterlimit="10" stroke-linecap="round" stroke-linejoin="round"/>
<path d="M381.59 156.306C375.52 146.708 372.009 135.359 372.009 123.232C372.009 107.863 377.543 93.7904 386.768 82.9604C395.992 93.7904 401.586 107.863 401.646 123.232C401.646 135.424 398.135 146.708 392.124 156.306H381.59Z" fill="#CF264D"/>
<path d="M381.59 156.306C375.52 146.708 372.009 135.359 372.009 123.232C372.009 107.863 377.543 93.7904 386.768 82.9604C395.992 93.7904 401.586 107.863 401.646 123.232C401.646 135.424 398.135 146.708 392.124 156.306H381.59Z" fill="#CF264D"/>
<path opacity="0.23" d="M385.935 82.9604C386.649 83.8035 387.363 84.7114 388.018 85.6193C381.828 95.9953 378.258 108.187 378.198 121.157C378.198 133.998 379.983 145.995 386.054 156.371H380.579C374.568 146.773 371.057 135.424 371.057 123.297C371.057 107.863 376.651 93.7904 385.935 82.9604Z" fill="#F4A15D"/>
<path opacity="0.32" d="M385.935 82.9604C386.173 83.2198 386.411 83.5441 386.649 83.8683C379.686 95.0874 375.699 108.252 375.639 122.389C375.639 134.646 378.674 146.189 383.971 156.371H380.579C374.568 146.773 371.057 135.424 371.057 123.297C371.057 107.863 376.651 93.7904 385.935 82.9604Z" fill="#F4A15D"/>
<path opacity="0.37" d="M401.646 123.232C401.646 107.863 396.052 93.8553 386.768 82.9604C386.054 83.8035 385.34 84.7114 384.685 85.6193C390.874 95.9953 394.445 108.187 394.504 121.157C394.504 133.998 391.053 145.995 384.982 156.371H392.124C398.135 146.708 401.646 135.359 401.646 123.232Z" fill="#A5143A"/>
<path opacity="0.72" d="M401.646 123.232C401.646 107.863 396.052 93.8553 386.768 82.9604C386.53 83.2198 386.292 83.5441 386.054 83.8683C393.017 95.0874 397.004 108.252 397.063 122.389C397.063 134.646 394.028 146.189 388.732 156.371H392.124C398.135 146.708 401.646 135.359 401.646 123.232Z" fill="#A5143A"/>
<path opacity="0.37" d="M386.768 82.9604C386.054 83.8035 385.34 84.7114 384.685 85.6193C390.874 95.9953 394.445 108.187 394.504 121.157C394.504 133.998 391.053 145.995 384.982 156.371H392.124C398.135 146.773 401.646 135.424 401.646 123.297C401.646 107.863 396.052 93.7904 386.768 82.9604Z" fill="#A5143A"/>
<path opacity="0.72" d="M386.768 82.9604C386.53 83.2198 386.292 83.5441 386.054 83.8683C393.017 95.0874 397.004 108.252 397.063 122.389C397.063 134.646 394.028 146.189 388.732 156.371H392.124C398.135 146.773 401.646 135.424 401.646 123.297C401.646 107.863 396.052 93.7904 386.768 82.9604Z" fill="#A5143A"/>
<path d="M394.683 94.6335C392.481 90.4182 389.862 86.5272 386.827 82.8956C383.792 86.4623 381.174 90.4182 378.972 94.6335H394.683Z" fill="#601B23"/>
<path d="M381.59 156.306C375.52 146.708 372.009 135.359 372.009 123.232C372.009 107.863 377.543 93.7904 386.768 82.9604C395.992 93.7904 401.586 107.863 401.646 123.232C401.646 135.424 398.135 146.708 392.124 156.306H381.59Z" stroke="#601B23" stroke-width="6" stroke-miterlimit="10" stroke-linecap="round" stroke-linejoin="round"/>
<path d="M377.067 147.746H396.647" stroke="#601B23" stroke-width="4" stroke-miterlimit="10" stroke-linecap="round" stroke-linejoin="round"/>
<path opacity="0.41" d="M275.897 23.1684C275.897 23.1684 279.944 16.2295 293.691 4.55643C287.323 13.9597 286.074 19.8611 285.657 20.315C281.61 21.1581 275.897 23.1684 275.897 23.1684Z" fill="white"/>
</svg>
