<svg xmlns="http://www.w3.org/2000/svg" viewBox="0 0 64 64"><title>Artboard-6</title><g id="Birthday_Day" data-name="Birthday Day"><path d="M58,10H56a1,1,0,0,0-1,1v3a1.983,1.983,0,0,1-.587,1.413A2.038,2.038,0,0,1,52.852,16,2.129,2.129,0,0,1,51,13.831V11a1,1,0,0,0-1-1H42a1,1,0,0,0-1,1v3a1.983,1.983,0,0,1-.587,1.413A2.035,2.035,0,0,1,38.852,16,2.129,2.129,0,0,1,37,13.831V11a1,1,0,0,0-1-1H28a1,1,0,0,0-1,1v3a1.983,1.983,0,0,1-.587,1.413A2.034,2.034,0,0,1,24.852,16,2.129,2.129,0,0,1,23,13.831V11a1,1,0,0,0-1-1H14a1,1,0,0,0-1,1v3a1.983,1.983,0,0,1-.587,1.413A2.032,2.032,0,0,1,10.852,16,2.129,2.129,0,0,1,9,13.831V11a1,1,0,0,0-1-1H6a6.006,6.006,0,0,0-6,6V54a6.006,6.006,0,0,0,6,6H58a6.006,6.006,0,0,0,6-6V16A6.006,6.006,0,0,0,58,10Z" style="fill:#e6edff"/><path d="M32,36a1,1,0,0,1-1-1V32a1,1,0,0,1,2,0v3A1,1,0,0,1,32,36Z" style="fill:#ffc170"/><rect x="21" y="34" width="22" height="12" rx="1" ry="1" style="fill:#cea699"/><path d="M22,46H42a1,1,0,0,0,1-1V39.244a2.463,2.463,0,0,1-1.671.6,2.54,2.54,0,0,1-1.751-.652,4.657,4.657,0,0,0-5.837,0,2.671,2.671,0,0,1-3.5,0,4.651,4.651,0,0,0-5.833,0,2.533,2.533,0,0,1-1.747.652A2.458,2.458,0,0,1,21,39.247V45A1,1,0,0,0,22,46Z" style="fill:#ad8377"/><path d="M32.823,25.432a1.038,1.038,0,0,0-1.646,0C30.522,26.379,29,28.722,29,30a3,3,0,0,0,6,0C35,28.722,33.478,26.379,32.823,25.432Z" style="fill:#e63b47"/><path d="M58,10H56a1,1,0,0,0-1,1v3a1.983,1.983,0,0,1-.587,1.413A2.038,2.038,0,0,1,52.852,16,2.129,2.129,0,0,1,51,13.831V11a1,1,0,0,0-1-1H42a1,1,0,0,0-1,1v3a1.983,1.983,0,0,1-.587,1.413A2.035,2.035,0,0,1,38.852,16,2.129,2.129,0,0,1,37,13.831V11a1,1,0,0,0-1-1H28a1,1,0,0,0-1,1v3a1.983,1.983,0,0,1-.587,1.413A2.034,2.034,0,0,1,24.852,16,2.129,2.129,0,0,1,23,13.831V11a1,1,0,0,0-1-1H14a1,1,0,0,0-1,1v3a1.983,1.983,0,0,1-.587,1.413A2.032,2.032,0,0,1,10.852,16,2.129,2.129,0,0,1,9,13.831V11a1,1,0,0,0-1-1H6a6.006,6.006,0,0,0-6,6v5H64V16A6.006,6.006,0,0,0,58,10Z" style="fill:#e63b47"/><path d="M11,4A4,4,0,0,0,7,8v6a4,4,0,0,0,8,0V8A4,4,0,0,0,11,4Z" style="fill:#4aa4f2"/><path d="M25,4a4,4,0,0,0-4,4v6a4,4,0,0,0,8,0V8A4,4,0,0,0,25,4Z" style="fill:#4aa4f2"/><path d="M39,4a4,4,0,0,0-4,4v6a4,4,0,0,0,8,0V8A4,4,0,0,0,39,4Z" style="fill:#4aa4f2"/><path d="M53,4a4,4,0,0,0-4,4v6a4,4,0,0,0,8,0V8A4,4,0,0,0,53,4Z" style="fill:#4aa4f2"/><rect x="18" y="44" width="28" height="12" rx="1" ry="1" style="fill:#cea699"/><path d="M19,56H45a1,1,0,0,0,1-1V48.432a6.617,6.617,0,0,0-1.252.756,3.2,3.2,0,0,1-4.17,0,5.18,5.18,0,0,0-6.5,0,3.191,3.191,0,0,1-4.162,0,5.174,5.174,0,0,0-6.5,0,3.191,3.191,0,0,1-4.162,0A6.681,6.681,0,0,0,18,48.432V55A1,1,0,0,0,19,56Z" style="fill:#ad8377"/><path d="M49,56H15a1,1,0,0,1,0-2H49a1,1,0,0,1,0,2Z" style="fill:#ffc170"/></g></svg>