<svg xmlns="http://www.w3.org/2000/svg" viewBox="0 0 512 512"><title>Weight_Scale</title><g id="artwork"><g id="_10_weight_Scale" data-name="10_weight_Scale"><rect x="112.99" y="178.11" width="312.96" height="299.03" rx="49.49" style="fill:#dcd3d4"/><rect x="92.04" y="145.04" width="299.03" height="299.03" rx="31.72" style="fill:#f4b4b1"/><rect x="92.04" y="145.29" width="299.03" height="264.8" rx="31.72" style="fill:#ffeef0"/><path d="M92,358.87,343.43,145s47.64-11.68,47.64,36.81L126.93,411.53S83.33,413.4,92,358.87Z" style="fill:#fff"/><polygon points="165.6 411.54 389.36 216.96 389.9 238.19 190.92 411.9 165.6 411.54" style="fill:#fff"/><rect x="188.01" y="168.59" width="107.09" height="48.57" rx="13.04" style="fill:#4966a2"/><path d="M192,211.38l49.61-43h19.5l-52,48.57-15.75-1.37A2.4,2.4,0,0,1,192,211.38Z" style="fill:#3d5890"/><path d="M250.73,219.05l44-38.11.32,26.95a10.08,10.08,0,0,1-4.61,8.58l0,0a10.24,10.24,0,0,1-5.21,1.62Z" style="fill:#3d5890"/><path d="M232.31,166.57l-44,38.11-.32-27a10.08,10.08,0,0,1,4.61-8.58l0,0a10.05,10.05,0,0,1,5.21-1.62Z" style="fill:#3d5890"/><path d="M149.81,249.9a6.95,6.95,0,1,1-6.95-7A6.95,6.95,0,0,1,149.81,249.9Z" style="fill:#f2463e"/><path d="M179.79,249.9a6.95,6.95,0,1,1-6.94-7A6.95,6.95,0,0,1,179.79,249.9Z" style="fill:#f2463e"/><path d="M149.81,317.92a6.95,6.95,0,1,1-6.95-6.95A6.95,6.95,0,0,1,149.81,317.92Z" style="fill:#f2463e"/><path d="M179.79,317.92a6.95,6.95,0,1,1-6.94-6.95A6.94,6.94,0,0,1,179.79,317.92Z" style="fill:#f2463e"/><path d="M149.81,283.91a6.95,6.95,0,1,1-6.95-7A6.95,6.95,0,0,1,149.81,283.91Z" style="fill:#f2463e"/><path d="M179.79,283.91a6.95,6.95,0,1,1-6.94-7A6.95,6.95,0,0,1,179.79,283.91Z" style="fill:#f2463e"/><path d="M317.26,249.9a6.95,6.95,0,1,1-6.95-7A6.95,6.95,0,0,1,317.26,249.9Z" style="fill:#f2463e"/><path d="M347.25,249.9a6.95,6.95,0,1,1-6.95-7A6.95,6.95,0,0,1,347.25,249.9Z" style="fill:#f2463e"/><path d="M149.83,351.93a6.95,6.95,0,1,1-6.94-6.95A6.94,6.94,0,0,1,149.83,351.93Z" style="fill:#f2463e"/><path d="M179.82,351.93a6.95,6.95,0,1,1-6.94-6.95A6.94,6.94,0,0,1,179.82,351.93Z" style="fill:#f2463e"/><path d="M317.29,351.93a6.95,6.95,0,1,1-7-6.95A6.95,6.95,0,0,1,317.29,351.93Z" style="fill:#f2463e"/><path d="M347.28,351.93a6.95,6.95,0,1,1-6.95-6.95A6.95,6.95,0,0,1,347.28,351.93Z" style="fill:#f2463e"/><path d="M317.26,317.92a6.95,6.95,0,1,1-6.95-6.95A6.95,6.95,0,0,1,317.26,317.92Z" style="fill:#f2463e"/><path d="M347.25,317.92A6.95,6.95,0,1,1,340.3,311,6.95,6.95,0,0,1,347.25,317.92Z" style="fill:#f2463e"/><path d="M317.26,283.91a6.95,6.95,0,1,1-6.95-7A6.95,6.95,0,0,1,317.26,283.91Z" style="fill:#f2463e"/><path d="M347.25,283.91a6.95,6.95,0,1,1-6.95-7A6.95,6.95,0,0,1,347.25,283.91Z" style="fill:#f2463e"/><path d="M359.35,139H123.77A37.78,37.78,0,0,0,86,176.77V412.35a37.77,37.77,0,0,0,37.73,37.72H359.35a37.76,37.76,0,0,0,37.72-37.72V176.77A37.77,37.77,0,0,0,359.35,139Zm1,278.49a36.55,36.55,0,0,0,24.7-9.58v4.4a25.75,25.75,0,0,1-25.72,25.72H123.77A25.75,25.75,0,0,1,98,412.35V408a36.57,36.57,0,0,0,24.71,9.58H316.94v-12H122.75A24.74,24.74,0,0,1,98,380.83V176.77A25.76,25.76,0,0,1,123.77,151H359.35a25.75,25.75,0,0,1,25.72,25.73V380.83a24.73,24.73,0,0,1-24.7,24.7H338.23v12Z" style="fill:#142546"/><path d="M282.06,223h-81a19.06,19.06,0,0,1-19-19V181.43a19.06,19.06,0,0,1,19-19h81a19.06,19.06,0,0,1,19,19v22.49A19.06,19.06,0,0,1,282.06,223Zm-81-48.57a7,7,0,0,0-7,7v22.49a7.05,7.05,0,0,0,7,7h81a7,7,0,0,0,7-7V181.43a7,7,0,0,0-7-7Z" style="fill:#142546"/><rect x="252.85" y="181.07" width="12" height="23.61" style="fill:#142546"/><rect x="271.44" y="181.07" width="12" height="23.61" style="fill:#142546"/><rect x="234.26" y="181.07" width="12" height="23.61" style="fill:#142546"/><rect x="211.13" y="378.86" width="60.65" height="12" style="fill:#142546"/><rect x="235.57" y="34.87" width="12" height="19" style="fill:#142546"/><rect x="235.58" y="63.7" width="12" height="41.32" style="fill:#142546"/><rect x="322.5" y="63.95" width="19" height="12" transform="translate(47.86 255.37) rotate(-45.02)" style="fill:#142546"/><rect x="283.08" y="92.24" width="41.32" height="12" transform="translate(19.56 243.66) rotate(-45.02)" style="fill:#142546"/><rect x="145.12" y="61.04" width="12" height="19" transform="translate(-5.6 127.58) rotate(-45.02)" style="fill:#142546"/><rect x="173.41" y="78.15" width="12" height="41.32" transform="translate(-17.3 155.88) rotate(-45.02)" style="fill:#142546"/></g></g></svg>