<svg xmlns="http://www.w3.org/2000/svg" viewBox="0 0 48 48"><defs><style>.cls-1{fill:#6fabe6;}.cls-2{fill:#82bcf4;}.cls-3{fill:#9fdbf3;}.cls-4{fill:#b2e5fb;}.cls-5{fill:#dad7e5;}.cls-6{fill:#edebf2;}.cls-7{fill:#9dcc6b;}.cls-8{fill:#a82af4;}.cls-9{fill:#f26da6;}.cls-10{fill:#f26674;}.cls-11{fill:#f16f39;}.cls-12{fill:#fc6;}.cls-13{fill:#ae3ef9;}.cls-14{fill:#b5e08c;}.cls-15{fill:#ffde76;}.cls-16{fill:#f8834b;}</style></defs><title>color picker</title><g id="color_picker" data-name="color picker"><path class="cls-1" d="M47,13.89a4,4,0,0,1-1.17,2.83l-5.66,5.65-5.66-5.65,5.66-5.66a4,4,0,0,1,5.66,0,4,4,0,0,1,.88,1.33A4.08,4.08,0,0,1,47,13.89Z"/><path class="cls-2" d="M46.71,12.39a4,4,0,0,1-.88,1.33l-1.5,1.5a5.9,5.9,0,0,1-8.32,0h0l3.88-3.88a4.83,4.83,0,0,1,1.93-1.21A3.9,3.9,0,0,1,46.71,12.39Z"/><path class="cls-3" d="M40.88,25.91a2,2,0,0,1-2.83,0L31,18.84a2,2,0,0,1-.31-2.41A1.75,1.75,0,0,1,31,16a2,2,0,0,1,2.83,0l7.07,7.07a1.75,1.75,0,0,1,.31.42A2,2,0,0,1,40.88,25.91Z"/><path class="cls-4" d="M41.19,23.5a1.7,1.7,0,0,1-.31.41,2,2,0,0,1-2.83,0L31,16.84a1.7,1.7,0,0,1-.31-.41A1.75,1.75,0,0,1,31,16a2,2,0,0,1,2.83,0l7.07,7.07A1.75,1.75,0,0,1,41.19,23.5Z"/><path class="cls-5" d="M37.34,25.2,20.25,42.29a6.84,6.84,0,0,1-4.83,2L13.3,46.41a2,2,0,0,1-2.83,0,1.94,1.94,0,0,1-.56-1.67,1.9,1.9,0,0,1,.56-1.15l2.12-2.13a6.81,6.81,0,0,1,2-4.82l17.1-17.1,4.15,4.16Z"/><path class="cls-6" d="M35.84,23.7,19.25,40.29a6.84,6.84,0,0,1-4.83,2L12.3,44.41a2,2,0,0,1-1.42.59,2,2,0,0,1-1-.26,1.9,1.9,0,0,1,.56-1.15l2.12-2.13a6.81,6.81,0,0,1,2-4.82l17.1-17.1Z"/><path class="cls-7" d="M21.49,21.49A12,12,0,0,1,13,25V20A7,7,0,0,0,18,18Z"/><path class="cls-3" d="M13,20v5a12,12,0,0,1-8.49-3.51L8.05,18A7,7,0,0,0,13,20Z"/><path class="cls-1" d="M8.05,18,4.51,21.49A12,12,0,0,1,1,13H6A7,7,0,0,0,8.05,18Z"/><path class="cls-8" d="M8.05,8.05A7,7,0,0,0,6,13H1A12,12,0,0,1,4.51,4.51Z"/><path class="cls-9" d="M13,1V6A7,7,0,0,0,8.05,8.05L4.51,4.51A12,12,0,0,1,13,1Z"/><path class="cls-10" d="M21.49,4.51,18,8.05A7,7,0,0,0,13,6V1A12,12,0,0,1,21.49,4.51Z"/><path class="cls-11" d="M25,13H20A7,7,0,0,0,18,8.05l3.54-3.54A12,12,0,0,1,25,13Z"/><path class="cls-12" d="M25,13a12,12,0,0,1-3.51,8.49L18,18A7,7,0,0,0,20,13Z"/><path class="cls-13" d="M8.05,8.05A7,7,0,0,0,6,13H1.17L1,12A12,12,0,0,1,4.51,4.51Z"/><path class="cls-2" d="M8.05,18,5.57,20.43A12,12,0,0,1,1.17,13H6A7,7,0,0,0,8.05,18Z"/><path class="cls-4" d="M13,20v3a12,12,0,0,1-7.43-2.57L8.05,18A7,7,0,0,0,13,20Z"/><path class="cls-14" d="M20.43,20.43A12,12,0,0,1,13,23V20A7,7,0,0,0,18,18Z"/><path class="cls-15" d="M24.83,13a12,12,0,0,1-4.4,7.43L18,18A7,7,0,0,0,20,13Z"/><path class="cls-16" d="M25,12c0,.34-.07.67-.13,1H20A7,7,0,0,0,18,8.05l3.54-3.54A12,12,0,0,1,25,12Z"/></g></svg>