<svg id="Layer_1" data-name="Layer 1" xmlns="http://www.w3.org/2000/svg" viewBox="0 0 1920 1072"><defs><style>.cls-1{fill:#c0f2f2;}</style></defs><path class="cls-1" d="M0,1072C38.88,967.76,189.37,909.12,327.9,906.23c79.75-1.66,166.87,9.48,233.37-25,29.73-15.44,51.62-38.55,69.64-62.66,32.44-43.42,54.14-91.29,85.43-135.22S791.27,598,851.19,579.9c51.08-15.42,107.71-12.18,162.29-15.52,64.61-4,130.65-18.56,178.7-52.64,83.39-59.16,102.31-168.12,203.68-206.32,61-23,134.34-12.32,198.77-28.56,46.32-11.68,86.5-37.66,109.93-71.09,25.76-36.74,32-81.68,65.92-114.09C1812,52,1883.21,42.41,1920,0H0Z"/></svg>