<svg width="542" height="472" viewBox="0 0 542 472" fill="none" xmlns="http://www.w3.org/2000/svg">
<path d="M237.116 274.735L332.23 352.879C336.951 356.78 343.794 356.78 348.516 352.879C354.742 347.747 354.742 338.167 348.516 333.104L245.875 248.801C240.811 244.627 233.489 244.627 228.357 248.801L125.785 333.035C119.558 338.167 119.558 347.747 125.785 352.811C130.506 356.711 137.349 356.711 142.071 352.811L237.116 274.735Z" stroke="#CECECE" stroke-width="6" stroke-miterlimit="10" stroke-linecap="round" stroke-linejoin="round"/>
<path d="M237.116 274.735L158.972 338.92L165.746 468.316H308.554L315.26 338.92L237.116 274.735Z" stroke="#CECECE" stroke-width="6" stroke-miterlimit="10" stroke-linecap="round" stroke-linejoin="round"/>
<path d="M237.116 358.011C209.266 358.011 187.438 376.692 188.259 399.068L190.859 468.316H283.373L285.973 399.068C286.794 376.692 264.966 358.011 237.116 358.011Z" stroke="#CECECE" stroke-width="6" stroke-miterlimit="10" stroke-linecap="round" stroke-linejoin="round"/>
<path d="M222.952 335.293C224.252 338.304 227.741 339.673 230.752 338.441C232.668 337.688 234.858 337.209 237.116 337.209C239.374 337.209 241.564 337.62 243.48 338.441C246.491 339.673 249.98 338.304 251.28 335.293C251.896 333.856 252.238 332.283 252.238 330.709C252.238 323.455 245.464 317.639 237.048 317.639C228.631 317.639 221.857 323.524 221.857 330.709C221.994 332.351 222.267 333.856 222.952 335.293Z" stroke="#CECECE" stroke-width="6" stroke-miterlimit="10" stroke-linecap="round" stroke-linejoin="round"/>
<path d="M221.667 315.305C223.985 313.484 224.617 310.419 223.077 308.457C221.537 306.495 218.409 306.38 216.09 308.2C213.771 310.02 213.14 313.085 214.68 315.047C216.22 317.009 219.348 317.125 221.667 315.305Z" stroke="#CECECE" stroke-width="6" stroke-miterlimit="10" stroke-linecap="round" stroke-linejoin="round"/>
<path d="M237.116 310.317C240.971 310.317 244.096 308.204 244.096 305.596C244.096 302.988 240.971 300.875 237.116 300.875C233.261 300.875 230.136 302.988 230.136 305.596C230.136 308.204 233.261 310.317 237.116 310.317Z" stroke="#CECECE" stroke-width="6" stroke-miterlimit="10" stroke-linecap="round" stroke-linejoin="round"/>
<path d="M257.898 316.884C259.438 314.923 258.807 311.856 256.488 310.037C254.169 308.217 251.041 308.332 249.501 310.294C247.961 312.256 248.593 315.322 250.912 317.142C253.23 318.962 256.358 318.846 257.898 316.884Z" stroke="#CECECE" stroke-width="6" stroke-miterlimit="10" stroke-linecap="round" stroke-linejoin="round"/>
<path d="M269.756 460.515V468.042" stroke="#00354C" stroke-width="6" stroke-miterlimit="10" stroke-linecap="round" stroke-linejoin="round"/>
<path d="M55.5101 346.652C59.5541 346.652 62.8318 341.322 62.8318 334.746C62.8318 328.17 59.5541 322.84 55.5101 322.84C51.4667 322.84 48.1884 328.17 48.1884 334.746C48.1884 341.322 51.4667 346.652 55.5101 346.652Z" fill="#01D392"/>
<path d="M477.028 394.982L470.254 388.208L463.48 394.982L470.254 401.755L477.028 394.982Z" fill="#01D392"/>
<path d="M428.892 196.704L424.538 192.349L420.183 196.704L424.538 201.058L428.892 196.704Z" fill="#01D392"/>
<path d="M80.6913 106.952V116.737" stroke="#00354C" stroke-width="3" stroke-miterlimit="10" stroke-linecap="round" stroke-linejoin="round"/>
<path d="M80.6913 129.122V138.907" stroke="#00354C" stroke-width="3" stroke-miterlimit="10" stroke-linecap="round" stroke-linejoin="round"/>
<path d="M66.8006 114.958L75.2856 119.816" stroke="#00354C" stroke-width="3" stroke-miterlimit="10" stroke-linecap="round" stroke-linejoin="round"/>
<path d="M86.097 126.043L94.582 130.901" stroke="#00354C" stroke-width="3" stroke-miterlimit="10" stroke-linecap="round" stroke-linejoin="round"/>
<path d="M66.8006 130.901L75.2856 126.043" stroke="#00354C" stroke-width="3" stroke-miterlimit="10" stroke-linecap="round" stroke-linejoin="round"/>
<path d="M86.097 119.816L94.582 114.958" stroke="#00354C" stroke-width="3" stroke-miterlimit="10" stroke-linecap="round" stroke-linejoin="round"/>
<path d="M509.046 148.761V155.535" stroke="#00354C" stroke-width="3" stroke-miterlimit="10" stroke-linecap="round" stroke-linejoin="round"/>
<path d="M509.046 164.157V171" stroke="#00354C" stroke-width="3" stroke-miterlimit="10" stroke-linecap="round" stroke-linejoin="round"/>
<path d="M499.466 154.303L505.351 157.725" stroke="#00354C" stroke-width="3" stroke-miterlimit="10" stroke-linecap="round" stroke-linejoin="round"/>
<path d="M512.809 162.036L518.694 165.389" stroke="#00354C" stroke-width="3" stroke-miterlimit="10" stroke-linecap="round" stroke-linejoin="round"/>
<path d="M499.466 165.389L505.351 162.036" stroke="#00354C" stroke-width="3" stroke-miterlimit="10" stroke-linecap="round" stroke-linejoin="round"/>
<path d="M512.809 157.725L518.694 154.303" stroke="#00354C" stroke-width="3" stroke-miterlimit="10" stroke-linecap="round" stroke-linejoin="round"/>
<path d="M456.631 259.955C462.337 259.955 466.963 255.329 466.963 249.623C466.963 243.916 462.337 239.29 456.631 239.29C450.924 239.29 446.298 243.916 446.298 249.623C446.298 255.329 450.924 259.955 456.631 259.955Z" fill="#F7BF46"/>
<path d="M456.631 234.569V242.848" stroke="#00354C" stroke-width="3" stroke-miterlimit="10" stroke-linecap="round" stroke-linejoin="round"/>
<path d="M456.631 256.328V264.608" stroke="#00354C" stroke-width="3" stroke-miterlimit="10" stroke-linecap="round" stroke-linejoin="round"/>
<path d="M443.629 242.096L450.814 246.201" stroke="#00354C" stroke-width="3" stroke-miterlimit="10" stroke-linecap="round" stroke-linejoin="round"/>
<path d="M462.515 252.975L469.7 257.081" stroke="#00354C" stroke-width="3" stroke-miterlimit="10" stroke-linecap="round" stroke-linejoin="round"/>
<path d="M443.629 257.56L450.814 252.975" stroke="#00354C" stroke-width="3" stroke-miterlimit="10" stroke-linecap="round" stroke-linejoin="round"/>
<path d="M462.515 246.201L469.7 242.096" stroke="#00354C" stroke-width="3" stroke-miterlimit="10" stroke-linecap="round" stroke-linejoin="round"/>
<path d="M301.985 27.9868V38.0456" stroke="#00354C" stroke-width="4" stroke-miterlimit="10" stroke-linecap="round" stroke-linejoin="round"/>
<path d="M306.98 32.9819H296.99" stroke="#00354C" stroke-width="4" stroke-miterlimit="10" stroke-linecap="round" stroke-linejoin="round"/>
<path d="M534.09 379.84V389.898" stroke="#00354C" stroke-width="4" stroke-miterlimit="10" stroke-linecap="round" stroke-linejoin="round"/>
<path d="M539.085 384.903H529.027" stroke="#00354C" stroke-width="4" stroke-miterlimit="10" stroke-linecap="round" stroke-linejoin="round"/>
<path d="M182.032 202.545V208.703" stroke="#00354C" stroke-width="4" stroke-miterlimit="10" stroke-linecap="round" stroke-linejoin="round"/>
<path d="M185.111 205.624H178.953" stroke="#00354C" stroke-width="4" stroke-miterlimit="10" stroke-linecap="round" stroke-linejoin="round"/>
<path d="M158.21 255.474L153.372 250.636L148.533 255.474L153.372 260.313L158.21 255.474Z" fill="#F7BF46"/>
<path d="M2 226.631H20.0648" stroke="#00354C" stroke-width="4" stroke-miterlimit="10" stroke-linecap="round" stroke-linejoin="round"/>
<path d="M26.2232 226.631H33.1344" stroke="#00354C" stroke-width="4" stroke-miterlimit="10" stroke-linecap="round" stroke-linejoin="round"/>
<path d="M12.0588 235.39H32.0395" stroke="#00354C" stroke-width="4" stroke-miterlimit="10" stroke-linecap="round" stroke-linejoin="round"/>
<path d="M393.472 311.412H411.469" stroke="#00354C" stroke-width="4" stroke-miterlimit="10" stroke-linecap="round" stroke-linejoin="round"/>
<path d="M417.627 311.412H424.538" stroke="#00354C" stroke-width="4" stroke-miterlimit="10" stroke-linecap="round" stroke-linejoin="round"/>
<path d="M403.463 318.734H423.512" stroke="#00354C" stroke-width="4" stroke-miterlimit="10" stroke-linecap="round" stroke-linejoin="round"/>
<path d="M404.626 98.8089C424.164 98.8089 440.003 82.9701 440.003 63.4321C440.003 43.894 424.164 28.0552 404.626 28.0552C385.088 28.0552 369.249 43.894 369.249 63.4321C369.249 82.9701 385.088 98.8089 404.626 98.8089Z" fill="#F7BF46"/>
<path d="M440.003 70.7538C459.541 70.7538 475.38 54.9149 475.38 35.3769C475.38 15.8389 459.541 0 440.003 0C420.465 0 404.626 15.8389 404.626 35.3769C404.626 54.9149 420.465 70.7538 440.003 70.7538Z" fill="#F7BF46"/>
<path d="M489.065 80.3336C506.903 80.3336 521.363 65.8735 521.363 48.0359C521.363 30.1983 506.903 15.7383 489.065 15.7383C471.227 15.7383 456.767 30.1983 456.767 48.0359C456.767 65.8735 471.227 80.3336 489.065 80.3336Z" fill="#F7BF46"/>
<path d="M440.003 118.721C459.466 118.721 475.243 102.944 475.243 83.4812C475.243 64.0185 459.466 48.2412 440.003 48.2412C420.541 48.2412 404.763 64.0185 404.763 83.4812C404.763 102.944 420.541 118.721 440.003 118.721Z" fill="#F7BF46"/>
<path d="M477.501 106.952C490.464 106.952 500.971 96.4441 500.971 83.4812C500.971 70.5191 490.464 60.0107 477.501 60.0107C464.539 60.0107 454.03 70.5191 454.03 83.4812C454.03 96.4441 464.539 106.952 477.501 106.952Z" fill="#F7BF46"/>
<path d="M403.463 155.74C403.463 161.078 402.094 164.294 396.757 164.294C391.419 164.294 387.04 162.241 387.04 156.904C387.04 151.566 389.846 146.776 395.251 146.776C400.657 146.776 403.463 150.403 403.463 155.74Z" fill="#F7BF46"/>
<path d="M422.691 129.122C422.691 137.197 420.706 141.987 412.632 141.987C404.557 141.987 398.125 138.907 398.125 130.833C398.125 122.758 404.626 116.258 412.7 116.258C420.775 116.258 422.691 121.116 422.691 129.122Z" fill="#F7BF46"/>
<path d="M475.995 60.216C477.022 58.9843 477.638 57.2736 477.432 55.4261C477.09 52.5521 473.19 51.1152 471.548 50.773C469.358 50.3625 464.773 52.3469 464.773 56.1104C464.773 56.9999 464.089 57.7526 463.2 57.7526H432.065C431.176 57.7526 430.491 56.9999 430.491 56.1788C430.491 55.3577 430.354 54.4681 429.944 53.5786C429.054 51.5257 426.796 51.252 424.812 51.0467C421.391 50.6362 417.764 52.3469 417.764 56.1104C417.764 57.6842 418.311 59.0527 419.269 60.1476C419.885 60.9003 419.885 61.9951 419.269 62.7478C418.243 63.9795 417.627 65.6902 417.832 67.5377C418.174 70.4116 420.912 71.6433 423.512 71.9171C426.933 72.3276 430.491 70.5485 430.491 66.8534C430.491 65.9639 431.176 65.2112 432.065 65.2112H463.2C464.089 65.2112 464.773 65.9639 464.773 66.785C464.773 67.6061 464.91 68.4957 465.321 69.3852C466.21 71.4381 469.426 71.917 470.658 72.1908C472.848 72.6013 477.432 70.6169 477.432 66.8534C477.432 65.2796 476.885 63.9111 475.927 62.8162C475.38 62.0635 475.38 60.9687 475.995 60.216Z" fill="#F6F6F4"/>
<path d="M100.056 242.369C80.486 241.001 79.8018 263.582 83.2231 278.636C84.5917 286.847 75.6961 291.637 71.6589 297.932C69.9482 300.669 68.3744 303.885 67.5533 307.991C65.2952 318.871 71.7273 328.109 72.7538 338.031C73.0275 340.494 72.959 343.026 72.3432 345.626C71.5905 348.431 70.2219 351.169 68.8534 353.906C57.905 366.223 40.114 380.592 52.4309 397.015C54.689 399.889 57.1523 402.421 59.821 404.679C81.1703 423.017 113.331 421.649 137.965 410.016C146.86 405.226 155.756 398.383 157.809 388.119C159.177 377.171 154.387 366.907 147.066 359.654C144.876 357.259 142.481 355.001 140.018 353.016C138.239 350.279 137.144 347.679 136.596 345.147C135.296 338.852 137.281 332.967 139.197 327.014C140.155 324.071 141.044 321.061 141.523 317.981C144.123 302.517 129.069 292.937 120.858 281.989C117.437 277.199 118.805 271.04 120.174 265.566C122.911 252.565 112.647 241.617 100.398 242.301" fill="#01D392"/>
<path d="M103.135 307.17C99.9878 322.019 99.3035 336.594 99.7141 351.169C99.8509 354.795 109.225 415.49 103.204 442.04C103.067 445.872 103.067 448.13 103.067 448.13" stroke="#00354C" stroke-width="6" stroke-miterlimit="10" stroke-linecap="round" stroke-linejoin="round"/>
<path d="M113.331 364.58L103.135 379.292" stroke="#00354C" stroke-width="6" stroke-miterlimit="10" stroke-linecap="round" stroke-linejoin="round"/>
<path d="M119.49 470.232H88.013C87.6025 470.232 87.2603 469.958 87.1919 469.548L79.1175 435.471H128.385L120.311 469.616C120.242 469.958 119.9 470.232 119.49 470.232Z" fill="#F7BF46"/>
<path opacity="0.68" d="M84.0443 454.357H123.458" stroke="#F7BF46" stroke-miterlimit="10"/>
<path opacity="0.68" d="M84.6601 456.821H122.843" stroke="#F7BF46" stroke-miterlimit="10"/>
<path d="M415.916 369.644C416.053 371.491 416.122 373.339 416.122 375.186C416.122 413.437 385.329 444.503 347.352 444.503C315.465 444.503 288.642 422.607 280.841 392.909C283.646 428.56 313.275 456.683 349.405 456.683C387.382 456.683 418.174 425.686 418.174 387.367C418.243 381.208 417.422 375.323 415.916 369.644Z" fill="white"/>
<path d="M415.916 369.644C416.053 371.491 416.122 373.339 416.122 375.186C416.122 413.437 385.329 444.503 347.352 444.503C315.465 444.503 288.642 422.607 280.841 392.909C283.646 428.56 313.275 456.683 349.405 456.683C387.382 456.683 418.174 425.686 418.174 387.367C418.243 381.208 417.422 375.323 415.916 369.644Z" stroke="#00354C" stroke-width="6" stroke-miterlimit="10" stroke-linecap="round" stroke-linejoin="round"/>
<path d="M295.69 307.375C284.057 302.175 263.803 340.494 259.081 368.96C255.181 392.293 256.481 413.711 262.434 427.328L295.69 307.375Z" fill="white"/>
<path d="M265.137 361.159C267.121 349.253 271.843 335.567 277.454 324.14C269.653 336.867 262.605 355 260.073 370.328C256.173 393.662 257.473 415.08 263.426 428.697L266.984 415.832C262.331 402.215 261.579 382.508 265.137 361.159Z" fill="#D1D1D1"/>
<path d="M295.69 307.375C284.057 302.175 263.803 340.494 259.081 368.96C255.181 392.293 256.481 413.711 262.434 427.328L295.69 307.375Z" stroke="#00354C" stroke-width="6" stroke-miterlimit="10" stroke-linecap="round" stroke-linejoin="round"/>
<path d="M331.546 307.375C343.178 302.175 363.433 340.494 368.154 368.96C372.055 392.293 370.754 413.711 364.801 427.328L331.546 307.375Z" fill="white"/>
<path d="M363.159 359.79C361.175 347.884 356.453 334.199 350.842 322.771C358.643 335.499 365.691 353.632 368.223 368.96C372.123 392.293 370.823 413.711 364.87 427.328L361.311 414.464C365.964 400.847 366.649 381.14 363.159 359.79Z" fill="#D1D1D1"/>
<path d="M331.546 307.375C343.178 302.175 363.433 340.494 368.154 368.96C372.055 392.293 370.754 413.711 364.801 427.328L331.546 307.375Z" stroke="#00354C" stroke-width="6" stroke-miterlimit="10" stroke-linecap="round" stroke-linejoin="round"/>
<path d="M366.854 432.46C366.101 421.101 336.541 297.795 328.535 291.637H314.097H299.248C291.242 297.795 261.613 421.033 260.929 432.46C260.039 446.625 255.386 468.179 282.278 468.179H314.097H345.573C372.397 468.179 367.744 446.625 366.854 432.46Z" fill="white"/>
<path d="M264.145 415.011C264.145 415.011 262.024 433.076 272.151 439.713C280.088 444.982 287.068 447.104 300.137 449.499C307.185 450.799 314.849 451.346 314.849 451.346L315.67 467.563L259.971 467.974C259.971 467.974 259.013 445.188 260.381 438.345C261.75 431.571 262.434 420.212 264.145 415.011Z" fill="#D1D1D1"/>
<path d="M364.185 415.011C364.185 415.011 366.307 433.076 356.179 439.713C348.242 444.982 341.262 447.104 328.193 449.499C321.145 450.799 313.481 451.346 313.481 451.346L312.66 467.563L368.359 467.974C368.359 467.974 369.317 445.188 367.949 438.345C366.58 431.571 365.896 420.212 364.185 415.011Z" fill="#D1D1D1"/>
<path d="M338.32 316.476C336.609 315.997 334.967 315.723 333.53 315.723C325.182 315.723 318.544 320.171 318.544 330.435C318.544 340.768 333.53 353.016 341.878 353.016C344.136 353.016 346.257 352.4 348.173 351.305C344.82 338.715 341.399 326.535 338.32 316.476Z" fill="#F7BF46"/>
<path d="M275.025 405.158C284.262 405.158 291.789 396.057 291.789 384.835C291.789 374.092 284.878 365.265 276.12 364.58C272.698 377.992 269.482 391.267 266.882 402.557C269.345 404.2 272.082 405.158 275.025 405.158Z" fill="#F7BF46"/>
<path d="M297.127 294.579C297.127 294.579 301.985 298.48 313.139 298.48C322.171 298.48 330.109 294.579 330.109 294.579L329.424 291.911H297.606L297.127 294.579Z" fill="#D1D1D1"/>
<path d="M366.854 432.46C366.101 421.101 336.541 297.795 328.535 291.637H314.097H299.248C291.242 297.795 261.613 421.033 260.929 432.46C260.039 446.625 255.386 468.179 282.278 468.179H314.097H345.573C372.397 468.179 367.744 446.625 366.854 432.46Z" stroke="#00354C" stroke-width="6" stroke-miterlimit="10" stroke-linecap="round" stroke-linejoin="round"/>
<path d="M365.28 242.369C363.98 229.026 357.411 195.291 350.021 171.684C338.251 133.981 324.429 124.127 316.423 123.101C315.602 122.964 313.823 122.964 313.823 122.964C313.823 122.964 312.112 122.964 311.223 123.101C303.217 124.059 289.463 133.844 277.625 171.616C270.235 195.223 263.734 229.026 262.366 242.438C259.423 272.546 273.861 289.173 292.61 291.568C297.948 292.253 308.486 292.253 313.823 292.253C319.092 292.253 329.63 292.253 335.035 291.568C353.716 289.105 368.223 272.477 365.28 242.369Z" fill="white"/>
<path d="M313.823 269.945C320.965 269.945 326.756 265.381 326.756 259.75C326.756 254.119 320.965 249.554 313.823 249.554C306.68 249.554 300.89 254.119 300.89 259.75C300.89 265.381 306.68 269.945 313.823 269.945Z" fill="#D1D1D1"/>
<path d="M301.985 126.933C301.985 126.933 295.827 150.129 282.962 156.835C286.247 149.445 290.695 140.618 290.695 140.618C290.695 140.618 298.358 127.959 301.985 126.933Z" fill="#D1D1D1"/>
<path d="M316.423 123.169C316.423 123.169 333.119 151.908 347.01 162.925C347.01 162.925 343.862 142.534 340.783 136.375C337.704 130.217 322.65 121.253 316.423 123.169Z" fill="#D1D1D1"/>
<path d="M280.978 233.542C307.87 221.978 323.95 199.192 316.834 182.701C311.839 171.137 296.785 165.731 278.993 167.51C278.583 168.81 278.104 170.179 277.693 171.615C270.851 193.512 264.761 224.099 262.845 239.085C268.729 237.99 274.888 236.211 280.978 233.542Z" fill="#F7BF46"/>
<path d="M352.347 264.882C344.684 276.035 327.919 283.562 310.059 283.562C293.5 283.562 283.578 273.846 277.762 261.734" stroke="#00354C" stroke-width="6" stroke-miterlimit="10" stroke-linecap="round" stroke-linejoin="round"/>
<path d="M313.823 266.319C322.779 266.319 330.04 262.581 330.04 257.971C330.04 253.36 322.779 249.623 313.823 249.623C304.866 249.623 297.606 253.36 297.606 257.971C297.606 262.581 304.866 266.319 313.823 266.319Z" fill="#00354C"/>
<path d="M402.847 463.868C392.446 454.083 372.465 449.225 352.963 450.73C336.267 451.962 323.882 457.641 319.023 465.168C318.202 466.468 319.229 468.179 320.802 468.179H399.836C402.915 468.179 404.763 465.647 402.847 463.868Z" fill="white"/>
<path d="M402.299 463.731C402.094 463.8 401.82 463.868 401.547 463.868H322.513C321.555 463.868 320.734 463.663 320.118 463.252C319.913 463.458 319.639 463.663 319.434 463.868C317.518 465.647 319.366 468.179 322.513 468.179H401.547C403.12 468.179 404.147 466.4 403.326 465.168C402.984 464.621 402.641 464.142 402.299 463.731Z" fill="#D1D1D1"/>
<path d="M402.847 463.868C392.446 454.083 372.465 449.225 352.963 450.73C336.267 451.962 323.882 457.641 319.023 465.168C318.202 466.468 319.229 468.179 320.802 468.179H399.836C402.915 468.179 404.763 465.647 402.847 463.868Z" stroke="#00354C" stroke-width="6" stroke-miterlimit="10" stroke-linecap="round" stroke-linejoin="round"/>
<path d="M360.08 460.515V468.042" stroke="#00354C" stroke-width="6" stroke-miterlimit="10" stroke-linecap="round" stroke-linejoin="round"/>
<path d="M227.057 463.868C237.458 454.083 257.439 449.225 276.941 450.73C293.637 451.962 306.022 457.641 310.881 465.168C311.702 466.468 310.675 468.179 309.101 468.179H230.068C226.989 468.179 225.141 465.647 227.057 463.868Z" fill="white"/>
<path d="M309.923 463.731C309.717 463.8 309.444 463.868 309.17 463.868H230.136C229.178 463.868 228.357 463.663 227.741 463.252C227.536 463.458 227.262 463.663 227.057 463.868C225.141 465.647 226.989 468.179 230.136 468.179H309.17C310.744 468.179 311.77 466.4 310.949 465.168C310.607 464.621 310.265 464.142 309.923 463.731Z" fill="#D1D1D1"/>
<path d="M227.057 463.868C237.458 454.083 257.439 449.225 276.941 450.73C293.637 451.962 306.022 457.641 310.881 465.168C311.702 466.468 310.675 468.179 309.101 468.179H230.068C226.989 468.179 225.141 465.647 227.057 463.868Z" stroke="#00354C" stroke-width="6" stroke-miterlimit="10" stroke-linecap="round" stroke-linejoin="round"/>
<path d="M365.28 242.369C363.98 229.026 357.411 195.291 350.021 171.684C338.251 133.981 324.429 124.127 316.423 123.101C315.602 122.964 313.823 122.964 313.823 122.964C313.823 122.964 312.112 122.964 311.223 123.101C303.217 124.059 289.463 133.844 277.625 171.616C270.235 195.223 263.734 229.026 262.366 242.438C259.423 272.546 273.861 289.173 292.61 291.568C297.948 292.253 308.486 292.253 313.823 292.253C319.092 292.253 329.63 292.253 335.035 291.568C353.716 289.105 368.223 272.477 365.28 242.369Z" stroke="#00354C" stroke-width="6" stroke-miterlimit="10" stroke-linecap="round" stroke-linejoin="round"/>
<path d="M315.191 122.827C315.191 122.827 339.073 117.763 345.642 120.843C352.416 123.99 364.664 148.008 359.601 157.383C351.868 171.752 329.151 119.748 315.191 122.827Z" fill="white"/>
<path d="M315.191 122.827C315.191 122.827 339.073 117.763 345.642 120.843C352.416 123.99 364.664 148.008 359.601 157.383C351.868 171.752 329.151 119.748 315.191 122.827Z" stroke="#00354C" stroke-width="6" stroke-miterlimit="10" stroke-linecap="round" stroke-linejoin="round"/>
<path d="M270.372 127.138L303.422 126.18C303.422 126.18 272.767 159.162 258.602 166.278C244.438 173.395 258.944 127.069 270.372 127.138Z" fill="white"/>
<path d="M270.372 127.138L303.422 126.18C303.422 126.18 272.767 159.162 258.602 166.278C244.438 173.395 258.944 127.069 270.372 127.138Z" stroke="#00354C" stroke-width="6" stroke-miterlimit="10" stroke-linecap="round" stroke-linejoin="round"/>
<path d="M300.753 201.176C302.643 201.176 304.175 199.185 304.175 196.728C304.175 194.272 302.643 192.281 300.753 192.281C298.863 192.281 297.332 194.272 297.332 196.728C297.332 199.185 298.863 201.176 300.753 201.176Z" fill="#00354C"/>
<path d="M329.63 201.176C331.519 201.176 333.051 199.185 333.051 196.728C333.051 194.272 331.519 192.281 329.63 192.281C327.74 192.281 326.208 194.272 326.208 196.728C326.208 199.185 327.74 201.176 329.63 201.176Z" fill="#00354C"/>
<path d="M193.733 468.179H430.97" stroke="#00354C" stroke-width="6" stroke-miterlimit="10" stroke-linecap="round" stroke-linejoin="round"/>
<path d="M382.524 169.015C382.524 172.847 381.566 175.105 377.734 175.105C373.902 175.105 370.823 173.668 370.823 169.836C370.823 166.004 373.902 162.925 377.734 162.925C381.566 162.925 382.524 165.183 382.524 169.015Z" fill="#F7BF46"/>
<path d="M50.5149 468.042H58.3841" stroke="#00354C" stroke-width="6" stroke-miterlimit="10" stroke-linecap="round" stroke-linejoin="round"/>
<path d="M444.998 468.042H473.258" stroke="#00354C" stroke-width="6" stroke-miterlimit="10" stroke-linecap="round" stroke-linejoin="round"/>
<path d="M72.7538 468.042H129.343" stroke="#00354C" stroke-width="6" stroke-miterlimit="10" stroke-linecap="round" stroke-linejoin="round"/>
</svg>
