<?xml version="1.0" encoding="UTF-8" standalone="no"?> <svg xmlns="http://www.w3.org/2000/svg" viewBox="0 0 64 64"><defs><style>.cls-1{fill:red;}</style></defs><title>2</title><g id="Layer_7" data-name="Layer 7"><path class="cls-1" d="M32,58.15A26.15,26.15,0,1,1,50.5,50.5,26.08,26.08,0,0,1,32,58.15ZM32,9.84a22.16,22.16,0,1,0,15.67,6.48A22.1,22.1,0,0,0,32,9.84Z"/><path d="M34.83,32l6.23-6.23a2,2,0,0,0-2.83-2.83L32,29.17l-6.23-6.23a2,2,0,0,0-2.83,2.83L29.17,32l-6.23,6.23a2,2,0,1,0,2.83,2.83L32,34.83l6.23,6.23a2,2,0,0,0,2.83-2.83Z"/></g></svg>