<svg width="588" height="451" viewBox="0 0 588 451" fill="none" xmlns="http://www.w3.org/2000/svg">
<path d="M103.556 346.193C92.5339 319.029 86.7192 289.695 86.7192 259.407C86.7192 197.962 110.672 140.163 154.065 96.7701C197.545 53.2904 255.257 29.4243 316.702 29.4243C378.146 29.4243 435.946 53.3772 479.338 96.7701C501.469 118.901 518.479 144.676 529.935 172.795L555.276 162.467C542.519 131.051 523.426 102.151 498.692 77.4169C450.092 28.8168 385.436 2 316.702 2C247.967 2 183.312 28.7301 134.712 77.4169C86.1117 126.017 59.2949 190.672 59.2949 259.407C59.2949 293.253 65.8039 326.058 78.1275 356.433L103.556 346.193Z" fill="#F5DA8D"/>
<path d="M103.556 346.193C92.5339 319.029 86.7192 289.695 86.7192 259.407C86.7192 197.962 110.672 140.163 154.065 96.7701C197.545 53.2904 255.257 29.4243 316.702 29.4243C378.146 29.4243 435.946 53.3772 479.338 96.7701C501.469 118.901 518.479 144.676 529.935 172.795L555.276 162.467C542.519 131.051 523.426 102.151 498.692 77.4169C450.092 28.8168 385.436 2 316.702 2C247.967 2 183.312 28.7301 134.712 77.4169C86.1117 126.017 59.2949 190.672 59.2949 259.407C59.2949 293.253 65.8039 326.058 78.1275 356.433L103.556 346.193Z" stroke="#3D0938" stroke-width="3.47143" stroke-miterlimit="10" stroke-linecap="round" stroke-linejoin="round"/>
<path d="M128.897 335.952C119.177 311.999 114.057 286.137 114.057 259.494C114.057 205.339 135.146 154.483 173.418 116.123C211.691 77.8509 262.634 56.7619 316.789 56.7619C370.943 56.7619 421.799 77.8509 460.159 116.123C479.686 135.65 494.7 158.388 504.68 183.122L530.021 172.795C518.566 144.676 501.556 118.814 479.425 96.7702C435.946 53.2905 378.233 29.4244 316.789 29.4244C255.344 29.4244 197.545 53.3773 154.152 96.7702C110.672 140.25 86.806 197.962 86.806 259.407C86.806 289.608 92.6207 318.942 103.642 346.193L128.897 335.952Z" fill="#E38980"/>
<path d="M128.897 335.952C119.177 311.999 114.057 286.137 114.057 259.494C114.057 205.339 135.146 154.483 173.418 116.123C211.691 77.8509 262.634 56.7619 316.789 56.7619C370.943 56.7619 421.799 77.8509 460.159 116.123C479.686 135.65 494.7 158.388 504.68 183.122L530.021 172.795C518.566 144.676 501.556 118.814 479.425 96.7702C435.946 53.2905 378.233 29.4244 316.789 29.4244C255.344 29.4244 197.545 53.3773 154.152 96.7702C110.672 140.25 86.806 197.962 86.806 259.407C86.806 289.608 92.6207 318.942 103.642 346.193L128.897 335.952Z" stroke="#3D0938" stroke-width="3.47143" stroke-miterlimit="10" stroke-linecap="round" stroke-linejoin="round"/>
<path d="M154.239 325.624C145.82 304.883 141.394 282.492 141.394 259.494C141.394 212.629 159.619 168.629 192.772 135.477C225.924 102.324 269.924 84.0994 316.789 84.0994C363.653 84.0994 407.653 102.324 440.806 135.477C457.642 152.313 470.66 172.014 479.338 193.45L504.68 183.122C494.613 158.301 479.599 135.563 460.159 116.123C421.886 77.8509 370.943 56.7619 316.789 56.7619C262.634 56.7619 211.778 77.8509 173.418 116.123C135.146 154.396 114.057 205.339 114.057 259.494C114.057 286.137 119.177 311.999 128.897 335.952L154.239 325.624Z" fill="#CC5F7E"/>
<path d="M154.239 325.624C145.82 304.883 141.394 282.492 141.394 259.494C141.394 212.629 159.619 168.629 192.772 135.477C225.924 102.324 269.924 84.0994 316.789 84.0994C363.653 84.0994 407.653 102.324 440.806 135.477C457.642 152.313 470.66 172.014 479.338 193.45L504.68 183.122C494.613 158.301 479.599 135.563 460.159 116.123C421.886 77.8509 370.943 56.7619 316.789 56.7619C262.634 56.7619 211.778 77.8509 173.418 116.123C135.146 154.396 114.057 205.339 114.057 259.494C114.057 286.137 119.177 311.999 128.897 335.952L154.239 325.624Z" stroke="#3D0938" stroke-width="3.47143" stroke-miterlimit="10" stroke-linecap="round" stroke-linejoin="round"/>
<path d="M204.922 305.056C199.194 290.997 196.069 275.636 196.069 259.494C196.069 192.842 250.137 138.775 316.789 138.775C367.385 138.775 410.691 169.931 428.656 214.105L453.997 203.777C446.62 185.639 435.685 169.063 421.452 154.83C393.507 126.885 356.276 111.437 316.789 111.437C277.214 111.437 240.07 126.798 212.125 154.83C184.18 182.775 168.732 220.006 168.732 259.494C168.732 278.934 172.464 297.853 179.58 315.384L204.922 305.056Z" fill="#36C2E3"/>
<path d="M204.922 305.056C199.194 290.997 196.069 275.636 196.069 259.494C196.069 192.842 250.137 138.775 316.789 138.775C367.385 138.775 410.691 169.931 428.656 214.105L453.997 203.777C446.62 185.639 435.685 169.063 421.452 154.83C393.507 126.885 356.276 111.437 316.789 111.437C277.214 111.437 240.07 126.798 212.125 154.83C184.18 182.775 168.732 220.006 168.732 259.494C168.732 278.934 172.464 297.853 179.58 315.384L204.922 305.056Z" stroke="#3D0938" stroke-width="3.47143" stroke-miterlimit="10" stroke-linecap="round" stroke-linejoin="round"/>
<path d="M179.58 315.297C172.464 297.766 168.732 278.934 168.732 259.407C168.732 219.833 184.093 182.688 212.125 154.743C240.07 126.798 277.301 111.35 316.789 111.35C356.363 111.35 393.507 126.711 421.452 154.743C435.685 168.976 446.62 185.639 453.997 203.69L479.338 193.363C470.66 171.927 457.642 152.226 440.806 135.39C407.653 102.238 363.653 84.0126 316.789 84.0126C269.924 84.0126 225.924 102.238 192.772 135.39C159.619 168.542 141.394 212.542 141.394 259.407C141.394 282.492 145.82 304.796 154.239 325.538L179.58 315.297Z" fill="#6D4F8D"/>
<path d="M179.58 315.297C172.464 297.766 168.732 278.934 168.732 259.407C168.732 219.833 184.093 182.688 212.125 154.743C240.07 126.798 277.301 111.35 316.789 111.35C356.363 111.35 393.507 126.711 421.452 154.743C435.685 168.976 446.62 185.639 453.997 203.69L479.338 193.363C470.66 171.927 457.642 152.226 440.806 135.39C407.653 102.238 363.653 84.0126 316.789 84.0126C269.924 84.0126 225.924 102.238 192.772 135.39C159.619 168.542 141.394 212.542 141.394 259.407C141.394 282.492 145.82 304.796 154.239 325.538L179.58 315.297Z" stroke="#3D0938" stroke-width="3.47143" stroke-miterlimit="10" stroke-linecap="round" stroke-linejoin="round"/>
<path d="M178.365 284.662H203.88" stroke="#3D0938" stroke-width="5.20715" stroke-miterlimit="10" stroke-linecap="round" stroke-linejoin="round"/>
<path d="M197.892 284.662H223.32" stroke="#3D0938" stroke-width="5.20715" stroke-miterlimit="10" stroke-linecap="round" stroke-linejoin="round"/>
<path opacity="0.43" d="M555.363 162.554L530.021 172.881L453.997 203.777L428.656 214.105C418.936 190.152 401.752 170.017 379.969 156.652C385.697 149.015 393.681 142.94 403.054 139.122C409.997 136.258 417.721 134.696 425.792 134.696C430.044 134.696 434.21 135.129 438.289 135.997C438.636 135.39 438.983 134.696 439.33 134.088C444.017 126.104 450.526 119.334 458.076 114.214C466.407 108.66 476.127 105.102 486.281 104.06C488.191 103.887 490.1 103.8 492.009 103.8C507.37 103.8 521.516 109.441 532.278 118.901C541.477 132.699 549.201 147.366 555.363 162.554Z" fill="#3D0938"/>
<path d="M561.872 152.053C555.016 152.053 548.767 154.917 544.341 159.603C541.651 133.133 519.26 112.565 492.096 112.565C469.705 112.565 450.526 126.625 443.062 146.412C437.681 144.502 431.867 143.461 425.705 143.461C399.929 143.461 379.014 161.946 379.014 184.771C379.014 206.12 397.326 223.738 420.845 225.908C426.659 245.348 444.711 259.58 466.06 259.58C485.761 259.58 502.597 247.517 509.714 230.42C515.268 235.367 522.471 238.318 530.455 238.318C547.726 238.318 561.698 224.345 561.698 207.075C561.698 204.819 561.438 202.736 561.004 200.653C561.264 200.653 561.438 200.653 561.698 200.653C575.063 200.653 585.912 189.805 585.912 176.44C586.085 162.901 575.237 152.053 561.872 152.053Z" fill="white"/>
<path d="M561.872 179.737C561.611 179.737 561.438 179.737 561.178 179.737C561.611 181.82 561.872 183.99 561.872 186.16C561.872 203.43 547.899 217.403 530.629 217.403C522.645 217.403 515.355 214.452 509.887 209.505C502.771 226.602 485.934 238.665 466.234 238.665C444.885 238.665 426.833 224.432 421.018 204.992C401.492 203.17 385.523 190.759 380.663 174.27C379.708 177.568 379.188 181.126 379.188 184.684C379.188 206.034 397.499 223.651 421.018 225.821C426.833 245.261 444.885 259.494 466.234 259.494C485.934 259.494 502.771 247.43 509.887 230.334C515.441 235.28 522.645 238.231 530.629 238.231C547.899 238.231 561.872 224.259 561.872 206.988C561.872 204.732 561.611 202.649 561.178 200.566C561.438 200.566 561.611 200.566 561.872 200.566C575.237 200.566 586.085 189.718 586.085 176.353C586.085 172.621 585.217 169.063 583.742 165.939C579.837 174.096 571.505 179.737 561.872 179.737Z" fill="#CCFFFF"/>
<path d="M561.872 152.053C555.016 152.053 548.767 154.917 544.341 159.603C541.651 133.133 519.26 112.565 492.096 112.565C469.705 112.565 450.526 126.625 443.062 146.412C437.681 144.502 431.867 143.461 425.705 143.461C399.929 143.461 379.014 161.946 379.014 184.771C379.014 206.12 397.326 223.738 420.845 225.908C426.659 245.348 444.711 259.58 466.06 259.58C485.761 259.58 502.597 247.517 509.714 230.42C515.268 235.367 522.471 238.318 530.455 238.318C547.726 238.318 561.698 224.345 561.698 207.075C561.698 204.819 561.438 202.736 561.004 200.653C561.264 200.653 561.438 200.653 561.698 200.653C575.063 200.653 585.912 189.805 585.912 176.44C586.085 162.901 575.237 152.053 561.872 152.053Z" stroke="#3D0938" stroke-width="3.47143" stroke-miterlimit="10" stroke-linecap="round" stroke-linejoin="round"/>
<path opacity="0.43" d="M204.922 305.056L179.58 315.384L128.897 335.952L103.556 346.279L78.2142 356.607C65.8039 326.232 59.3817 293.34 59.3817 259.58C59.3817 253.766 59.5553 248.038 59.9892 242.31C60.7703 242.31 61.5514 242.31 62.3324 242.31C66.8453 242.31 71.2714 242.744 75.6107 243.612C79.4292 238.491 83.7685 233.979 88.6285 229.986C97.4807 222.696 107.895 217.489 119.004 214.712C124.211 213.41 129.591 212.629 135.059 212.456C135.927 212.456 136.795 212.369 137.749 212.369C141.047 212.369 144.345 212.542 147.556 212.976C156.842 214.191 165.608 217.055 173.592 221.221C182.704 225.994 190.862 232.677 197.458 240.574C196.503 246.736 195.983 253.071 195.983 259.494C196.069 275.636 199.194 290.997 204.922 305.056Z" fill="#3D0938"/>
<path d="M302.816 334.737C302.209 317.206 287.542 303.494 270.011 304.102C268.362 304.188 266.713 304.362 265.064 304.622C257.948 285.703 239.462 272.598 218.113 273.293C213.513 273.466 209.174 274.247 205.008 275.549C198.326 243.438 169.253 219.832 135.406 220.961C111.627 221.742 91.0585 234.499 79.3425 253.332C73.2674 251.509 66.8453 250.641 60.2496 250.902C27.0106 252.03 0.974827 279.888 2.10304 313.127C3.23126 346.366 31.0895 372.402 64.3285 371.274C66.3246 371.187 68.3207 371.013 70.3167 370.753C81.8592 394.359 106.506 410.154 134.451 409.199C163.264 408.245 187.391 389.672 196.764 364.071C204.054 368.063 212.559 370.232 221.498 369.885C232.259 369.538 242.153 365.633 249.963 359.384C255.865 364.591 263.676 367.716 272.181 367.455C289.625 366.935 303.337 352.268 302.816 334.737Z" fill="white"/>
<path d="M301.254 326.145C297.262 338.556 285.893 347.668 272.094 348.189C263.589 348.449 255.778 345.412 249.877 340.118C242.066 346.366 232.172 350.272 221.411 350.619C212.472 350.879 203.967 348.796 196.677 344.804C187.304 370.319 163.264 388.891 134.365 389.933C106.42 390.887 81.8593 375.006 70.2299 351.487C68.2339 351.747 66.2378 351.921 64.2417 352.007C33.6063 353.049 7.57056 331.005 2.79734 301.498C2.18984 305.317 1.92949 309.222 2.01627 313.301C3.14449 346.54 31.0027 372.576 64.2417 371.447C66.2378 371.361 68.2339 371.187 70.2299 370.927C81.7725 394.532 106.42 410.327 134.365 409.373C163.178 408.418 187.304 389.846 196.677 364.244C203.967 368.236 212.472 370.406 221.411 370.059C232.172 369.712 242.066 365.806 249.877 359.558C255.778 364.765 263.589 367.889 272.094 367.629C289.625 367.021 303.337 352.354 302.729 334.824C302.729 331.786 302.122 328.836 301.254 326.145Z" fill="#CCFFFF"/>
<path d="M302.816 334.737C302.209 317.206 287.542 303.494 270.011 304.102C268.362 304.188 266.713 304.362 265.064 304.622C257.948 285.703 239.462 272.598 218.113 273.293C213.513 273.466 209.174 274.247 205.008 275.549C198.326 243.438 169.253 219.832 135.406 220.961C111.627 221.742 91.0585 234.499 79.3425 253.332C73.2674 251.509 66.8453 250.641 60.2496 250.902C27.0106 252.03 0.974827 279.888 2.10304 313.127C3.23126 346.366 31.0895 372.402 64.3285 371.274C66.3246 371.187 68.3207 371.013 70.3167 370.753C81.8592 394.359 106.506 410.154 134.451 409.199C163.264 408.245 187.391 389.672 196.764 364.071C204.054 368.063 212.559 370.232 221.498 369.885C232.259 369.538 242.153 365.633 249.963 359.384C255.865 364.591 263.676 367.716 272.181 367.455C289.625 366.935 303.337 352.268 302.816 334.737Z" stroke="#3D0938" stroke-width="3.47143" stroke-miterlimit="10" stroke-linecap="round" stroke-linejoin="round"/>
<path d="M350.375 324.062L362.091 339.684L368.079 330.051L350.375 324.062Z" fill="#F0406F"/>
<path d="M350.375 324.062L362.091 339.684L368.079 330.051L350.375 324.062Z" stroke="#3D0938" stroke-width="3.47143" stroke-miterlimit="10" stroke-linecap="round" stroke-linejoin="round"/>
<path d="M358.533 308.007L368.079 330.051L378.407 324.323L358.533 308.007Z" fill="#F0406F"/>
<path d="M358.533 308.007L368.079 330.051L378.407 324.323L358.533 308.007Z" stroke="#3D0938" stroke-width="3.47143" stroke-miterlimit="10" stroke-linecap="round" stroke-linejoin="round"/>
<path d="M523.512 341.853C515.268 342.895 496.782 343.763 475.607 336.126C446.881 325.798 432.214 327.534 425.878 329.443C423.709 330.051 421.539 330.832 419.369 331.786C400.624 340.552 392.553 362.942 401.405 381.601C406.959 393.491 417.981 401.041 430.044 402.777C430.044 402.777 430.391 402.864 431.086 402.864C431.259 402.864 431.433 402.864 431.606 402.951C436.119 403.471 449.658 404.6 458.857 401.736C468.403 397.223 454.518 392.45 454.518 392.45C454.518 392.45 465.366 395.487 473.524 391.321C485.5 385.16 472.135 380.82 472.135 380.82C472.135 380.82 483.938 384.378 492.617 376.394C498.084 371.361 493.311 369.625 488.972 369.017C495.047 369.104 505.114 368.236 508.499 361.901C510.929 357.388 505.461 356.347 501.382 356.173C506.502 356 515.615 354.958 520.822 350.966C523.252 349.057 524.901 347.408 526.029 346.019C527.418 344.283 525.856 341.593 523.512 341.853Z" fill="#D4907F"/>
<path d="M523.512 341.853C515.268 342.895 496.782 343.763 475.607 336.126C446.881 325.798 432.214 327.534 425.878 329.443C423.709 330.051 421.539 330.832 419.369 331.786C400.624 340.552 392.553 362.942 401.405 381.601C406.959 393.491 417.981 401.041 430.044 402.777C430.044 402.777 430.391 402.864 431.086 402.864C431.259 402.864 431.433 402.864 431.606 402.951C436.119 403.471 449.658 404.6 458.857 401.736C468.403 397.223 454.518 392.45 454.518 392.45C454.518 392.45 465.366 395.487 473.524 391.321C485.5 385.16 472.135 380.82 472.135 380.82C472.135 380.82 483.938 384.378 492.617 376.394C498.084 371.361 493.311 369.625 488.972 369.017C495.047 369.104 505.114 368.236 508.499 361.901C510.929 357.388 503.205 356.26 499.212 356.086C504.333 355.913 515.615 354.958 520.822 350.966C523.252 349.057 524.901 347.408 526.029 346.019C527.418 344.283 525.856 341.593 523.512 341.853Z" stroke="#3D0938" stroke-width="3.47143" stroke-miterlimit="10" stroke-linecap="round" stroke-linejoin="round"/>
<path d="M467.449 409.286C467.449 409.286 485.5 413.452 511.362 429.334C537.311 445.129 548.073 441.397 548.073 441.397" stroke="#3D0938" stroke-width="4.33929" stroke-miterlimit="10" stroke-linecap="round" stroke-linejoin="round"/>
<path d="M517.524 448.6C517.524 448.6 505.635 448.166 493.832 432.805C482.029 417.444 477.342 410.067 472.396 409.72" stroke="#3D0938" stroke-width="4.33929" stroke-miterlimit="10" stroke-linecap="round" stroke-linejoin="round"/>
<path d="M561.611 378.998C562.393 378.13 563.087 376.655 562.826 375.179C562.74 374.832 562.479 373.877 561.611 373.27C560.744 372.576 559.529 372.315 558.227 372.576C560.83 371.968 562.479 369.625 562.132 367.369C561.698 365.112 559.268 363.463 556.665 363.81C557.966 363.637 559.008 362.942 559.615 361.988C560.136 361.12 560.136 360.165 560.049 359.731C559.876 358.256 558.661 357.128 557.619 356.607C555.363 355.479 552.499 356.694 550.069 357.735C545.296 359.731 542.345 362.769 540.262 364.939C538.7 366.587 536.53 369.017 534.534 372.402C537.572 374.832 540.436 376.394 542.432 377.349C545.122 378.651 548.941 380.386 554.148 380.647C556.751 380.734 559.876 380.82 561.611 378.998Z" fill="#F0406F"/>
<path d="M561.178 375.179C561.091 374.832 560.83 373.877 559.963 373.27C559.789 373.183 559.615 373.096 559.442 372.923C559.181 373.53 558.834 373.964 558.487 374.398C556.751 376.221 553.627 376.134 551.024 376.047C545.816 375.787 541.998 374.051 539.308 372.749C537.919 372.142 536.27 371.187 534.361 369.972C533.84 370.753 533.319 371.534 532.799 372.402C535.836 374.832 538.7 376.394 540.696 377.349C543.386 378.651 547.205 380.386 552.412 380.647C555.016 380.734 558.14 380.82 559.876 378.998C560.83 378.13 561.525 376.655 561.178 375.179Z" fill="#DB2C62"/>
<path d="M556.578 357.475C555.97 358.43 554.929 359.124 553.627 359.297C555.536 359.037 557.359 359.905 558.314 361.207C558.487 360.599 558.4 360.078 558.4 359.818C558.227 358.69 557.533 357.735 556.751 357.128C556.665 357.215 556.665 357.301 556.578 357.475Z" fill="#DB2C62"/>
<path d="M532.885 372.315C533.146 372.489 533.406 372.662 533.666 372.923C534.795 371.361 535.923 370.146 536.877 369.191C538.96 367.021 541.911 364.071 546.684 361.988C549.114 360.946 551.978 359.818 554.235 360.86C555.103 361.294 556.057 362.161 556.491 363.29C557.099 362.942 557.619 362.509 557.966 361.988C558.487 361.12 558.487 360.165 558.4 359.731C558.227 358.256 557.012 357.128 555.97 356.607C553.714 355.479 550.85 356.694 548.42 357.735C543.647 359.731 540.696 362.769 538.613 364.939C537.051 366.587 534.881 369.017 532.885 372.315Z" fill="#F96291"/>
<path d="M561.611 378.998C562.393 378.13 563.087 376.655 562.826 375.179C562.74 374.832 562.479 373.877 561.611 373.27C560.744 372.576 559.529 372.315 558.227 372.576C560.83 371.968 562.479 369.625 562.132 367.369C561.698 365.112 559.268 363.463 556.665 363.81C557.966 363.637 559.008 362.942 559.615 361.988C560.136 361.12 560.136 360.165 560.049 359.731C559.876 358.256 558.661 357.128 557.619 356.607C555.363 355.479 552.499 356.694 550.069 357.735C545.296 359.731 542.345 362.769 540.262 364.939C538.7 366.587 536.53 369.017 534.534 372.402C537.572 374.832 540.436 376.394 542.432 377.349C545.122 378.651 548.941 380.386 554.148 380.647C556.751 380.734 559.876 380.82 561.611 378.998Z" stroke="#3D0938" stroke-width="3.47143" stroke-miterlimit="10" stroke-linecap="round" stroke-linejoin="round"/>
<path d="M534.447 372.402C534.447 372.402 494.96 375.96 454.518 346.713C440.719 336.733 431.693 330.311 425.792 326.319C422.928 323.715 419.63 321.459 415.985 319.81C414.683 319.029 414.77 319.202 414.77 319.202C409.91 317.119 404.442 315.904 398.801 315.904C376.584 315.904 358.533 333.956 358.533 356.173C358.533 371.274 366.864 384.465 379.188 391.321C379.188 391.321 379.274 391.408 379.448 391.408C381.01 392.276 382.659 392.97 384.308 393.665C402.533 401.302 466.928 422.564 534.447 372.402Z" fill="#F1CB9C"/>
<path d="M398.801 320.591C404.442 320.591 409.91 321.806 414.77 323.889C414.77 323.889 414.683 323.715 415.985 324.496C419.543 326.232 422.841 328.402 425.792 331.005C431.693 335.084 440.632 341.42 454.518 351.4C485.934 374.051 518.739 375.006 530.976 375.179C532.799 373.877 532.625 374.658 534.447 373.27C534.447 373.27 494.96 376.828 454.518 347.581C440.719 337.601 431.693 331.179 425.792 327.187C422.928 324.583 419.63 322.327 415.985 320.678C414.683 319.897 414.77 320.07 414.77 320.07C409.91 317.987 404.442 316.772 398.801 316.772C376.584 316.772 358.533 334.824 358.533 357.041C358.533 357.648 358.533 358.169 358.619 358.69C359.748 337.427 377.278 320.591 398.801 320.591Z" fill="#F8E4C1"/>
<path d="M524.641 372.315C461.721 411.629 403.835 392.536 386.738 385.246C385.089 384.639 383.44 383.858 381.878 382.99C381.704 382.903 381.618 382.903 381.618 382.903C369.294 376.047 360.963 362.856 360.963 347.755C360.963 345.325 361.223 342.982 361.57 340.638C359.574 345.412 358.446 350.619 358.446 356.086C358.446 371.187 366.777 384.378 379.101 391.235C379.101 391.235 379.188 391.321 379.361 391.321C380.923 392.189 382.572 392.884 384.221 393.578C402.446 401.302 466.841 422.477 534.361 372.315C534.447 372.402 530.802 372.662 524.641 372.315Z" fill="#D4907F"/>
<path d="M534.447 372.402C534.447 372.402 494.96 375.96 454.518 346.713C440.719 336.733 431.693 330.311 425.792 326.319C422.928 323.715 419.63 321.459 415.985 319.81C414.683 319.029 414.77 319.202 414.77 319.202C409.91 317.119 404.442 315.904 398.801 315.904C376.584 315.904 358.533 333.956 358.533 356.173C358.533 371.274 366.864 384.465 379.188 391.321C379.188 391.321 379.274 391.408 379.448 391.408C381.01 392.276 382.659 392.97 384.308 393.665C402.533 401.302 466.928 422.564 534.447 372.402Z" stroke="#3D0938" stroke-width="3.47143" stroke-miterlimit="10" stroke-linecap="round" stroke-linejoin="round"/>
<path d="M505.895 409.546C497.997 406.943 480.901 399.913 465.019 384.031C443.409 362.422 429.35 357.735 422.841 356.867C420.584 356.433 418.328 356.26 415.985 356.26C395.33 356.26 378.493 373.01 378.493 393.751C378.493 406.856 385.263 418.399 395.417 425.081C395.417 425.081 395.764 425.255 396.284 425.602C396.458 425.689 396.545 425.775 396.718 425.862C400.537 428.205 412.34 435.061 421.886 436.363C432.474 436.363 421.886 426.122 421.886 426.122C421.886 426.122 430.391 433.499 439.504 433.152C452.956 432.718 442.715 422.998 442.715 422.998C442.715 422.998 451.827 431.243 463.11 427.685C470.226 425.428 466.581 421.87 462.936 419.44C468.403 422.13 477.863 425.689 483.678 421.349C487.757 418.312 483.244 415.014 479.686 413.105C484.459 415.101 493.051 418.051 499.473 416.663C502.51 415.969 504.68 415.187 506.329 414.406C508.412 413.452 508.151 410.327 505.895 409.546Z" fill="#EFAB89"/>
<path d="M422.667 428.466C413.121 427.164 401.318 420.308 397.499 417.965C397.326 417.878 397.239 417.791 397.065 417.704C396.545 417.357 396.198 417.184 396.198 417.184C386.044 410.501 379.274 398.959 379.274 385.854C379.274 385.767 379.274 385.68 379.274 385.594C378.667 388.197 378.407 390.887 378.407 393.665C378.407 406.769 385.176 418.312 395.33 424.994C395.33 424.994 395.677 425.168 396.198 425.515C396.371 425.602 396.458 425.689 396.632 425.775C400.45 428.119 412.253 434.975 421.799 436.276C429.089 436.276 426.312 431.416 423.969 428.379C423.535 428.466 423.101 428.466 422.667 428.466Z" fill="#D4907F"/>
<path d="M505.895 409.546C504.94 409.199 503.812 408.852 502.51 408.331C501.816 408.505 500.775 408.245 500.254 408.852C497.043 413.365 479.165 411.195 474.478 409.199C478.037 411.109 477.342 412.063 484.546 413.452C485.153 413.539 483.591 414.059 483.07 414.32C487.93 416.055 494.352 417.704 499.473 416.576C502.51 415.882 504.68 415.101 506.329 414.32C508.412 413.452 508.151 410.327 505.895 409.546Z" fill="#D4907F"/>
<path d="M440.285 425.255C431.085 425.602 418.154 418.832 418.154 418.832C416.158 420.308 415.117 418.399 424.75 428.205C428.048 430.375 433.516 433.239 439.33 433.065C449.137 432.718 446.36 427.511 444.103 424.734C443.236 425.081 441.934 425.255 440.285 425.255Z" fill="#D4907F"/>
<path d="M463.63 419.961C452.435 423.259 439.157 417.097 439.157 417.097C439.157 417.097 439.938 420.308 444.711 424.56C448.009 426.73 454.952 430.201 463.023 427.685C469.705 425.602 467.015 422.304 463.63 419.961Z" fill="#D4907F"/>
<path d="M482.289 414.754C477.69 418.832 462.242 415.795 457.382 413.452C461.027 415.795 461.027 417.704 463.891 419.874H463.804C469.358 422.477 478.123 425.428 483.591 421.349C486.715 419.093 484.98 416.663 482.289 414.754Z" fill="#D4907F"/>
<path d="M505.895 409.546C497.997 406.943 480.901 399.913 465.019 384.031C443.409 362.422 429.35 357.735 422.841 356.867C420.584 356.433 418.328 356.26 415.985 356.26C395.33 356.26 378.493 373.01 378.493 393.751C378.493 406.856 385.263 418.399 395.417 425.081C395.417 425.081 395.764 425.255 396.284 425.602C396.458 425.689 396.545 425.775 396.718 425.862C400.537 428.205 412.34 435.061 421.886 436.363C432.474 436.363 421.886 426.122 421.886 426.122C421.886 426.122 430.391 433.499 439.504 433.152C452.956 432.718 442.715 422.998 442.715 422.998C442.715 422.998 451.827 431.243 463.11 427.685C470.226 425.428 466.581 421.87 462.936 419.44C468.403 422.13 477.863 425.689 483.678 421.349C487.757 418.312 483.244 415.014 479.686 413.105C484.459 415.101 493.051 418.051 499.473 416.663C502.51 415.969 504.68 415.187 506.329 414.406C508.412 413.452 508.151 410.327 505.895 409.546Z" stroke="#3D0938" stroke-width="3.47143" stroke-miterlimit="10" stroke-linecap="round" stroke-linejoin="round"/>
<path d="M382.572 338.816C382.572 338.816 383.093 348.362 391.945 348.362C399.669 348.362 401.839 344.717 401.839 344.717" stroke="#3D0938" stroke-width="3.47143" stroke-miterlimit="10" stroke-linecap="round" stroke-linejoin="round"/>
<path d="M379.622 344.631L383.961 343.589" stroke="#3D0938" stroke-width="3.47143" stroke-miterlimit="10" stroke-linecap="round" stroke-linejoin="round"/>
<path d="M383.961 349.491L386.044 346.366" stroke="#3D0938" stroke-width="3.47143" stroke-miterlimit="10" stroke-linecap="round" stroke-linejoin="round"/>
<path d="M390.557 348.362V351.921" stroke="#3D0938" stroke-width="3.47143" stroke-miterlimit="10" stroke-linecap="round" stroke-linejoin="round"/>
<path d="M397.76 347.495L399.409 351.921" stroke="#3D0938" stroke-width="3.47143" stroke-miterlimit="10" stroke-linecap="round" stroke-linejoin="round"/>
<path d="M404.008 373.877C404.008 373.877 406.959 377.262 410.257 373.877" stroke="#3D0938" stroke-width="2.60358" stroke-miterlimit="10" stroke-linecap="round" stroke-linejoin="round"/>
<path d="M394.115 389.325C394.115 389.325 400.103 391.755 402.533 386.114" stroke="#3D0938" stroke-width="2.60358" stroke-miterlimit="10" stroke-linecap="round" stroke-linejoin="round"/>
<path d="M394.722 403.992C394.722 403.992 398.975 405.641 400.624 401.736" stroke="#3D0938" stroke-width="2.60358" stroke-miterlimit="10" stroke-linecap="round" stroke-linejoin="round"/>
<path d="M430.218 385.333C430.218 385.333 433.863 388.11 436.553 384.812" stroke="#3D0938" stroke-width="2.60358" stroke-miterlimit="10" stroke-linecap="round" stroke-linejoin="round"/>
<path d="M441.066 406.596C441.066 406.596 444.711 409.373 447.401 406.075" stroke="#3D0938" stroke-width="2.60358" stroke-miterlimit="10" stroke-linecap="round" stroke-linejoin="round"/>
<path d="M448.963 394.88C448.963 394.88 452.608 397.657 455.299 394.359" stroke="#3D0938" stroke-width="2.60358" stroke-miterlimit="10" stroke-linecap="round" stroke-linejoin="round"/>
<path d="M426.139 396.789C426.139 396.789 429.784 399.566 432.474 396.268" stroke="#3D0938" stroke-width="2.60358" stroke-miterlimit="10" stroke-linecap="round" stroke-linejoin="round"/>
<path d="M457.555 340.204C457.555 340.204 461.2 342.982 463.891 339.684" stroke="#3D0938" stroke-width="2.60358" stroke-miterlimit="10" stroke-linecap="round" stroke-linejoin="round"/>
<path d="M482.289 359.818C482.289 359.818 485.934 362.595 488.625 359.297" stroke="#3D0938" stroke-width="2.60358" stroke-miterlimit="10" stroke-linecap="round" stroke-linejoin="round"/>
<path d="M482.376 350.792C482.376 350.792 486.628 352.441 488.277 348.449" stroke="#3D0938" stroke-width="2.60358" stroke-miterlimit="10" stroke-linecap="round" stroke-linejoin="round"/>
<path d="M469.532 348.883C469.532 348.883 474.045 349.404 474.652 345.151" stroke="#3D0938" stroke-width="2.60358" stroke-miterlimit="10" stroke-linecap="round" stroke-linejoin="round"/>
<path d="M414.249 407.984C414.249 407.984 418.588 409.46 420.064 405.554" stroke="#3D0938" stroke-width="2.60358" stroke-miterlimit="10" stroke-linecap="round" stroke-linejoin="round"/>
<path d="M412.774 384.031C412.774 384.031 417.46 387.416 420.758 383.077" stroke="#3D0938" stroke-width="2.60358" stroke-miterlimit="10" stroke-linecap="round" stroke-linejoin="round"/>
<path d="M410.257 394.966C410.257 394.966 414.943 398.351 418.241 394.012" stroke="#3D0938" stroke-width="2.60358" stroke-miterlimit="10" stroke-linecap="round" stroke-linejoin="round"/>
<path d="M416.853 419.44C416.853 419.44 417.547 421.783 421.799 426.036" stroke="#3D0938" stroke-width="3.47143" stroke-miterlimit="10" stroke-linecap="round" stroke-linejoin="round"/>
<path d="M442.628 422.998C442.628 422.998 440.806 421.87 438.028 417.791" stroke="#3D0938" stroke-width="3.47143" stroke-miterlimit="10" stroke-linecap="round" stroke-linejoin="round"/>
<path d="M462.936 419.44C462.936 419.44 459.204 416.836 456.167 413.452" stroke="#3D0938" stroke-width="3.47143" stroke-miterlimit="10" stroke-linecap="round" stroke-linejoin="round"/>
<path d="M479.686 413.191C479.686 413.191 473.871 410.761 472.309 409.199" stroke="#3D0938" stroke-width="3.47143" stroke-miterlimit="10" stroke-linecap="round" stroke-linejoin="round"/>
<path d="M332.584 253.592V272.251C332.15 272.164 331.629 272.078 331.108 272.078C327.724 272.078 324.946 274.421 324.946 277.372C324.946 280.322 327.724 282.665 331.108 282.665C334.493 282.665 337.27 280.322 337.27 277.372V256.803L350.809 251.075V265.916C350.375 265.829 349.854 265.742 349.333 265.742C345.949 265.742 343.171 268.085 343.171 271.036C343.171 273.987 345.949 276.33 349.333 276.33C352.718 276.33 355.495 273.987 355.495 271.036V249.079V247.257V243.872L332.584 253.592Z" fill="#F0406F"/>
<path d="M332.584 253.592V272.251C332.15 272.164 331.629 272.078 331.108 272.078C327.724 272.078 324.946 274.421 324.946 277.372C324.946 280.322 327.724 282.665 331.108 282.665C334.493 282.665 337.27 280.322 337.27 277.372V256.803L350.809 251.075V265.916C350.375 265.829 349.854 265.742 349.333 265.742C345.949 265.742 343.171 268.085 343.171 271.036C343.171 273.987 345.949 276.33 349.333 276.33C352.718 276.33 355.495 273.987 355.495 271.036V249.079V247.257V243.872L332.584 253.592Z" stroke="#3D0938" stroke-width="1.73572" stroke-miterlimit="10" stroke-linecap="round" stroke-linejoin="round"/>
<path d="M331.455 177.481L325.207 199.785C324.946 200.826 323.818 201.347 322.777 201.087C318.351 199.872 313.838 201.955 312.796 205.773C311.755 209.592 314.445 213.671 318.871 214.886C323.298 216.101 327.81 214.018 328.852 210.199L335.968 184.511C336.142 183.816 336.836 183.209 337.53 183.122L353.152 181.126C354.54 180.952 355.582 182.167 355.235 183.556L351.156 198.136C350.895 199.177 349.767 199.698 348.726 199.438C344.3 198.223 339.787 200.306 338.745 204.124C337.704 207.943 340.394 212.022 344.82 213.237C349.246 214.452 353.759 212.369 354.801 208.55L362.785 179.911L363.393 177.568L363.826 175.919C364.174 174.617 363.132 173.315 361.744 173.489L331.455 177.481Z" fill="#21E8A6"/>
<path d="M331.455 177.481L325.207 199.785C324.946 200.826 323.818 201.347 322.777 201.087C318.351 199.872 313.838 201.955 312.796 205.773C311.755 209.592 314.445 213.671 318.871 214.886C323.298 216.101 327.81 214.018 328.852 210.199L335.968 184.511C336.142 183.816 336.836 183.209 337.53 183.122L353.152 181.126C354.54 180.952 355.582 182.167 355.235 183.556L351.156 198.136C350.895 199.177 349.767 199.698 348.726 199.438C344.3 198.223 339.787 200.306 338.745 204.124C337.704 207.943 340.394 212.022 344.82 213.237C349.246 214.452 353.759 212.369 354.801 208.55L362.785 179.911L363.393 177.568L363.826 175.919C364.174 174.617 363.132 173.315 361.744 173.489L331.455 177.481Z" stroke="#3D0938" stroke-width="1.73572" stroke-miterlimit="10" stroke-linecap="round" stroke-linejoin="round"/>
<path d="M343.866 292.559L343.171 293.6C342.477 294.642 341.523 295.423 340.481 296.03L334.84 299.242L335.621 301.932L338.659 311.912C338.311 311.912 338.051 311.999 337.704 312.086C335.881 312.607 334.753 314.342 335.187 315.991C335.621 317.553 337.53 318.421 339.44 317.901C341.175 317.38 341.609 316.859 341.349 315.384L341.436 314.516L338.398 303.668L342.217 301.411C343.432 300.717 344.473 299.762 345.254 298.547L345.601 298.027L343.866 292.559Z" fill="#E38980"/>
<path d="M344.734 292.559L344.039 293.6C343.345 294.642 342.39 295.423 341.349 296.03L335.708 299.242L336.489 301.932L339.526 311.912C339.179 311.912 338.919 311.999 338.572 312.086C336.749 312.607 335.621 314.342 336.055 315.991C336.489 317.553 338.398 318.421 340.308 317.901C342.043 317.38 341.349 316.685 341.089 315.123L337.791 304.188L343.085 301.411C344.3 300.717 345.341 299.762 346.122 298.547L346.469 298.027L344.734 292.559Z" stroke="#3D0938" stroke-width="1.73572" stroke-miterlimit="10" stroke-linecap="round" stroke-linejoin="round"/>
<path opacity="0.43" d="M82.7271 157.867C84.6364 158.301 86.5457 158.475 88.5417 158.475C90.1039 158.475 91.5793 158.301 93.1414 158.041C107.721 155.524 117.528 141.638 114.925 127.058C113.796 120.81 110.585 115.342 106.072 111.437C94.7035 127.492 85.3307 144.676 78.0406 162.727C79.8632 161.252 81.4253 159.69 82.7271 157.867Z" fill="#3D0938"/>
<path d="M106.42 128.621C104.684 118.727 95.3111 112.131 85.5043 113.867C85.3307 113.867 85.1571 113.954 85.0704 113.954C80.7311 102.585 68.8414 95.4684 56.3442 97.638C45.5828 99.5473 37.5117 107.792 35.4288 117.859C32.3913 116.21 28.8331 115.516 25.1881 116.21C16.5963 117.686 10.8684 125.843 12.3438 134.435C13.8192 143.027 21.977 148.755 30.5688 147.28C33.4328 146.759 35.9496 145.544 38.0324 143.808C40.0285 155.264 51.0503 162.988 62.506 160.992C70.3168 159.603 76.4785 154.136 78.9086 147.106C82.5536 149.449 87.0664 150.491 91.7529 149.71C101.56 147.8 108.155 138.427 106.42 128.621Z" fill="white"/>
<path d="M93.1414 141.986C88.5418 142.767 83.9421 141.725 80.2971 139.382C77.8671 146.412 71.7921 151.879 63.8946 153.268C52.3521 155.264 41.417 147.54 39.421 136.084C37.3381 137.82 34.8213 139.035 31.9574 139.556C23.3656 141.031 15.2077 135.303 13.7324 126.711C13.6456 126.104 13.5588 125.496 13.5588 124.976C12.257 127.753 11.7363 131.051 12.3438 134.348C13.8191 142.94 21.977 148.668 30.5688 147.193C33.4328 146.672 35.9495 145.457 38.0324 143.721C40.0285 155.177 51.0503 162.901 62.506 160.905C70.3167 159.516 76.4785 154.049 78.9085 147.019C82.5535 149.362 87.0664 150.404 91.7528 149.623C100.692 148.061 106.94 140.163 106.767 131.311C104.337 136.692 99.39 140.857 93.1414 141.986Z" fill="#CCFFFF"/>
<path d="M106.42 128.621C104.684 118.727 95.3111 112.131 85.5043 113.867C85.3307 113.867 85.1571 113.954 85.0704 113.954C80.7311 102.585 68.8414 95.4684 56.3442 97.638C45.5828 99.5473 37.5117 107.792 35.4288 117.859C32.3913 116.21 28.8331 115.516 25.1881 116.21C16.5963 117.686 10.8684 125.843 12.3438 134.435C13.8192 143.027 21.977 148.755 30.5688 147.28C33.4328 146.759 35.9496 145.544 38.0324 143.808C40.0285 155.264 51.0503 162.988 62.506 160.992C70.3168 159.603 76.4785 154.136 78.9086 147.106C82.5536 149.449 87.0664 150.491 91.7529 149.71C101.56 147.8 108.155 138.427 106.42 128.621Z" stroke="#3D0938" stroke-width="3.47143" stroke-miterlimit="10" stroke-linecap="round" stroke-linejoin="round"/>
</svg>
