<?xml version="1.0" encoding="utf-8"?>
<!-- Generator: Adobe Illustrator 24.3.0, SVG Export Plug-In . SVG Version: 6.00 Build 0)  -->
<svg version="1.1" id="Layer_1" xmlns="http://www.w3.org/2000/svg" xmlns:xlink="http://www.w3.org/1999/xlink" x="0px" y="0px"
	 viewBox="0 0 120 120" enable-background="new 0 0 120 120" xml:space="preserve">
<path fill="#1A2559" d="M26.3,40.798h14.251v-14.25H26.3V40.798z M29.3,29.546h8.25v8.252H29.3V29.546z M59.301,26.548v14.25h14.25
	v-14.25H59.301z M62.3,37.799v-8.251h8.249l0.002,8.251H62.3z M26.3,75.797h14.251V61.549H26.3V75.797z M29.3,64.548h8.25v8.25H29.3
	V64.548z"/>
<g>
	<g>
		<circle fill="#FBCF26" cx="50.301" cy="51.298" r="8"/>
	</g>
</g>
<g>
	<g>
		<path fill="#1A2559" d="M50.338,51.402l42.488,14.062l-12.563,4.673l10.409,10.409L80.551,90.67L70.105,80.224l-4.867,12.309
			L50.338,51.402z M80.551,86.425l5.878-5.878L74.837,68.957l8.937-3.328l-28.51-9.436l10.097,27.87l3.634-9.19L80.551,86.425
			L80.551,86.425z"/>
	</g>
</g>
<path fill="#1A2559" d="M31.967,54.936h2.708v-2.708h-2.708V54.936z M31.967,50.325h2.708v-2.708h-2.708V50.325z M31.967,45.716
	h2.708v-2.709h-2.708V45.716z M31.967,59.546h2.708v-2.708h-2.708V59.546z M64.967,43.007v2.709h2.708v-2.709H64.967z
	 M64.967,54.936h2.708v-2.708h-2.708V54.936z M64.967,50.325h2.708v-2.708h-2.708V50.325z M55.383,34.797h2.708v-2.709h-2.708
	V34.797z M41.552,34.797h2.709v-2.709h-2.709V34.797z M50.772,34.797h2.708v-2.709h-2.708V34.797z M46.162,34.797h2.708v-2.709
	h-2.708V34.797z M50.772,69.797h2.708v-2.709h-2.708V69.797z M46.162,69.797h2.708v-2.709h-2.708V69.797z M41.552,69.797h2.709
	v-2.709h-2.709V69.797z"/>
</svg>
