<svg width="444" height="531" viewBox="0 0 444 531" fill="none" xmlns="http://www.w3.org/2000/svg">
<g opacity="0.2">
<path opacity="0.2" d="M38 40.3179V93.3179H110V40.3179H38ZM100 74.3179H48V50.3179H100V74.3179Z" fill="#2D2D2D" stroke="#2D2D2D" stroke-width="6" stroke-miterlimit="10" stroke-linecap="round" stroke-linejoin="round"/>
<path opacity="0.2" d="M74 62.3179V74.3179" stroke="#2D2D2D" stroke-width="6" stroke-miterlimit="10" stroke-linecap="round" stroke-linejoin="round"/>
<path opacity="0.2" d="M103 206.418H45V230.218H103V206.418Z" fill="#2D2D2D" stroke="#2D2D2D" stroke-width="6" stroke-miterlimit="10" stroke-linecap="round" stroke-linejoin="round"/>
<path opacity="0.2" d="M103 327.418H45V351.218H103V327.418Z" fill="#2D2D2D" stroke="#2D2D2D" stroke-width="6" stroke-miterlimit="10" stroke-linecap="round" stroke-linejoin="round"/>
<path opacity="0.2" d="M74 336.418C105.48 336.418 131 310.898 131 279.418C131 247.938 105.48 222.418 74 222.418C42.52 222.418 17 247.938 17 279.418C17 310.898 42.52 336.418 74 336.418Z" fill="#2D2D2D" stroke="#2D2D2D" stroke-width="6" stroke-miterlimit="10" stroke-linecap="round" stroke-linejoin="round"/>
<path opacity="0.2" d="M134 283.518H132.6C130.3 283.518 128.4 281.618 128.4 279.318V272.518C128.4 270.218 130.3 268.318 132.6 268.318H134C136.3 268.318 138.2 270.218 138.2 272.518V279.318C138.2 281.618 136.3 283.518 134 283.518Z" fill="#2D2D2D" stroke="#2D2D2D" stroke-width="6" stroke-miterlimit="10" stroke-linecap="round" stroke-linejoin="round"/>
<path opacity="0.2" d="M95 93.4179H53V214.818H95V93.4179Z" fill="#2D2D2D" stroke="#2D2D2D" stroke-width="6" stroke-miterlimit="10" stroke-linecap="round" stroke-linejoin="round"/>
<path opacity="0.2" d="M74 526.818C62.1 526.818 52.5 520.218 52.5 508.318V345.418H95.5V508.318C95.5 520.118 85.8 526.818 74 526.818Z" fill="#2D2D2D" stroke="#2D2D2D" stroke-width="6" stroke-miterlimit="10" stroke-linecap="round" stroke-linejoin="round"/>
</g>
<g opacity="0.2">
<path opacity="0.2" d="M288.5 327.118L309.1 314.718C293.3 304.318 283.1 286.118 283.8 265.818C284.6 242.418 299.7 222.918 320.4 215.318L297.5 201.918C276.6 215.318 262.4 238.418 261.5 265.018C260.6 289.618 271.2 312.118 288.5 327.118Z" fill="#2D2D2D" stroke="#2D2D2D" stroke-width="6" stroke-miterlimit="10" stroke-linecap="round" stroke-linejoin="round"/>
<path opacity="0.2" d="M414 422.818L342.6 376.818L330.9 14.9179C330.7 10.2179 326.8 6.51793 322.1 6.71793L317.3 6.91793C312.6 7.11793 308.9 11.0179 309.1 15.7179L321.1 389.018L402.1 441.218C406 443.718 411.3 442.618 413.8 438.718L416.4 434.718C419.1 430.618 418 425.418 414 422.818Z" fill="#2D2D2D" stroke="#2D2D2D" stroke-width="6" stroke-miterlimit="10" stroke-linecap="round" stroke-linejoin="round"/>
<path opacity="0.2" d="M436.2 119.017L361.6 159.717L323.7 519.817C323.2 524.517 319 527.917 314.4 527.417L309.6 526.917C304.9 526.417 301.5 522.217 302 517.617L341.1 146.117L425.7 99.9169C429.8 97.7169 435 99.2169 437.2 103.317L439.5 107.517C441.8 111.617 440.3 116.717 436.2 119.017Z" fill="#2D2D2D" stroke="#2D2D2D" stroke-width="6" stroke-miterlimit="10" stroke-linecap="round" stroke-linejoin="round"/>
<path opacity="0.2" d="M325.8 224.518C380.918 224.518 425.6 179.836 425.6 124.718C425.6 69.5999 380.918 24.9179 325.8 24.9179C270.682 24.9179 226 69.5999 226 124.718C226 179.836 270.682 224.518 325.8 224.518Z" fill="#2D2D2D" stroke="#2D2D2D" stroke-width="6" stroke-miterlimit="10" stroke-linecap="round" stroke-linejoin="round"/>
</g>
<path d="M393.6 415.618L320.6 372.218L295.8 10.9179C295.5 6.21792 291.4 2.71793 286.7 3.01793L281.9 3.31791C277.2 3.61791 273.7 7.71792 274 12.4179L299.6 385.018L382.5 434.218C386.5 436.618 391.7 435.318 394.1 431.218L396.5 427.118C399 423.218 397.7 418.018 393.6 415.618Z" fill="#823017"/>
<path d="M264.7 324.518L284.9 311.418C268.7 301.618 257.8 283.818 257.8 263.518C257.8 240.118 272.2 220.118 292.5 211.718L269.1 199.118C248.7 213.318 235.4 236.818 235.4 263.518C235.4 288.118 246.9 310.118 264.7 324.518Z" fill="#9D401E"/>
<path opacity="0.46" d="M242.4 263.418C242.4 238.018 254.5 215.518 273.2 201.218L269.2 199.018C248.8 213.218 235.5 236.718 235.5 263.418C235.5 288.118 246.9 310.118 264.8 324.518L268.8 321.918C252.6 307.518 242.4 286.618 242.4 263.418Z" fill="#9D401E"/>
<path d="M249.4 218.718C256.5 222.018 264.1 224.618 271.9 226.218C277.5 219.918 284.6 214.818 292.5 211.518L269.1 198.918C261.5 204.318 254.8 211.018 249.4 218.718Z" fill="#823017"/>
<path d="M264.7 324.518L284.9 311.418C280.1 308.518 275.7 304.818 271.9 300.618C264.1 302.318 256.5 304.818 249.4 308.118C253.7 314.218 258.9 319.818 264.7 324.518Z" fill="#823017"/>
<path d="M264.7 324.518L284.9 311.418C268.7 301.618 257.8 283.818 257.8 263.518C257.8 240.118 272.2 220.118 292.5 211.718L269.1 199.118C248.7 213.318 235.4 236.818 235.4 263.518C235.4 288.118 246.9 310.118 264.7 324.518Z" stroke="#2D2D2D" stroke-width="6" stroke-miterlimit="10" stroke-linecap="round" stroke-linejoin="round"/>
<path d="M393.6 415.618L320.6 372.218L295.8 10.9179C295.5 6.21792 291.4 2.71793 286.7 3.01793L281.9 3.31791C277.2 3.61791 273.7 7.71792 274 12.4179L299.6 385.018L382.5 434.218C386.5 436.618 391.7 435.318 394.1 431.218L396.5 427.118C399 423.218 397.7 418.018 393.6 415.618Z" stroke="#2D2D2D" stroke-width="6" stroke-miterlimit="10" stroke-linecap="round" stroke-linejoin="round"/>
<path d="M404.7 111.118L331.7 154.518L306.9 515.818C306.6 520.518 302.5 524.018 297.8 523.718L293 523.418C288.3 523.118 284.8 519.018 285.1 514.318L310.7 141.618L393.6 92.4179C397.6 90.0179 402.8 91.3179 405.2 95.4179L407.6 99.5179C410.1 103.518 408.7 108.818 404.7 111.118Z" fill="#823017"/>
<path d="M404.7 111.118L331.7 154.518L306.9 515.818C306.6 520.518 302.5 524.018 297.8 523.718L293 523.418C288.3 523.118 284.8 519.018 285.1 514.318L310.7 141.618L393.6 92.4179C397.6 90.0179 402.8 91.3179 405.2 95.4179L407.6 99.5179C410.1 103.518 408.7 108.818 404.7 111.118Z" stroke="#2D2D2D" stroke-width="6" stroke-miterlimit="10" stroke-linecap="round" stroke-linejoin="round"/>
<path d="M294.7 21.1179C239.6 21.1179 194.9 65.8179 194.9 120.918C194.9 176.018 239.6 220.718 294.7 220.718C349.8 220.718 394.5 176.018 394.5 120.918C394.5 65.8179 349.8 21.1179 294.7 21.1179ZM294.7 197.818C252.2 197.818 217.8 163.418 217.8 120.918C217.8 78.4179 252.2 43.9179 294.7 43.9179C337.2 43.9179 371.6 78.4179 371.6 120.818C371.6 163.218 337.1 197.818 294.7 197.818Z" fill="#9D401E"/>
<g opacity="0.6">
<path opacity="0.6" d="M202.9 120.918C202.9 67.1179 245.4 23.3179 298.7 21.2179C297.4 21.1179 296 21.1179 294.7 21.1179C239.6 21.1179 194.9 65.8179 194.9 120.918C194.9 176.018 239.6 220.718 294.7 220.718C296 220.718 297.4 220.718 298.7 220.618C245.4 218.518 202.9 174.618 202.9 120.918Z" fill="#9D401E"/>
<path opacity="0.6" d="M298.7 197.718C300 197.818 301.4 197.818 302.7 197.818C345.2 197.818 379.6 163.418 379.6 120.918C379.6 78.4179 345.1 43.9179 302.7 43.9179C301.4 43.9179 300 43.9179 298.7 44.0179C339.3 46.1179 371.6 79.7179 371.6 120.818C371.6 161.918 339.3 195.618 298.7 197.718Z" fill="#9D401E"/>
</g>
<path d="M294.7 21.1179C239.6 21.1179 194.9 65.8179 194.9 120.918C194.9 176.018 239.6 220.718 294.7 220.718C349.8 220.718 394.5 176.018 394.5 120.918C394.5 65.8179 349.8 21.1179 294.7 21.1179ZM294.7 197.818C252.2 197.818 217.8 163.418 217.8 120.918C217.8 78.4179 252.2 43.9179 294.7 43.9179C337.2 43.9179 371.6 78.4179 371.6 120.818C371.6 163.218 337.1 197.818 294.7 197.818Z" stroke="#2D2D2D" stroke-width="6" stroke-miterlimit="10" stroke-linecap="round" stroke-linejoin="round"/>
<path d="M294.7 220.718C349.818 220.718 394.5 176.036 394.5 120.918C394.5 65.7999 349.818 21.1179 294.7 21.1179C239.582 21.1179 194.9 65.7999 194.9 120.918C194.9 176.036 239.582 220.718 294.7 220.718Z" stroke="#2D2D2D" stroke-width="6" stroke-miterlimit="10" stroke-linecap="round" stroke-linejoin="round"/>
<path opacity="0.81" d="M294.7 197.818C337.171 197.818 371.6 163.388 371.6 120.918C371.6 78.4469 337.171 44.0179 294.7 44.0179C252.229 44.0179 217.8 78.4469 217.8 120.918C217.8 163.388 252.229 197.818 294.7 197.818Z" fill="#A4ECFF"/>
<path d="M294.7 197.818C337.171 197.818 371.6 163.388 371.6 120.918C371.6 78.4469 337.171 44.0179 294.7 44.0179C252.229 44.0179 217.8 78.4469 217.8 120.918C217.8 163.388 252.229 197.818 294.7 197.818Z" stroke="#2D2D2D" stroke-width="6" stroke-miterlimit="10" stroke-linecap="round" stroke-linejoin="round"/>
<path d="M294.7 306.118C239.6 306.118 194.9 350.818 194.9 405.918C194.9 461.018 239.6 505.718 294.7 505.718C349.8 505.718 394.5 461.018 394.5 405.918C394.4 350.818 349.8 306.118 294.7 306.118ZM294.7 482.818C252.2 482.818 217.8 448.418 217.8 405.918C217.8 363.418 252.3 329.018 294.7 329.018C337.2 329.018 371.6 363.518 371.6 405.918C371.6 448.418 337.1 482.818 294.7 482.818Z" fill="#9D401E"/>
<g opacity="0.6">
<g opacity="0.6">
<g opacity="0.6">
<path opacity="0.6" d="M298.7 482.718C300 482.818 301.4 482.818 302.7 482.818C345.2 482.818 379.6 448.318 379.6 405.918C379.6 363.518 345.1 328.918 302.7 328.918C301.4 328.918 300 328.918 298.7 329.018C339.3 331.118 371.6 364.718 371.6 405.818C371.6 446.918 339.3 480.618 298.7 482.718Z" fill="#9D401E"/>
</g>
<g opacity="0.6">
<path opacity="0.6" d="M202.9 405.918C202.9 352.118 245.4 308.318 298.7 306.218C297.4 306.118 296 306.118 294.7 306.118C239.6 306.118 194.9 350.818 194.9 405.918C194.9 461.018 239.6 505.718 294.7 505.718C296 505.718 297.4 505.718 298.7 505.618C245.4 503.518 202.9 459.618 202.9 405.918Z" fill="#9D401E"/>
</g>
</g>
</g>
<path d="M294.7 306.118C239.6 306.118 194.9 350.818 194.9 405.918C194.9 461.018 239.6 505.718 294.7 505.718C349.8 505.718 394.5 461.018 394.5 405.918C394.4 350.818 349.8 306.118 294.7 306.118ZM294.7 482.818C252.2 482.818 217.8 448.418 217.8 405.918C217.8 363.418 252.3 329.018 294.7 329.018C337.2 329.018 371.6 363.518 371.6 405.918C371.6 448.418 337.1 482.818 294.7 482.818Z" stroke="#2D2D2D" stroke-width="6" stroke-miterlimit="10" stroke-linecap="round" stroke-linejoin="round"/>
<path opacity="0.81" d="M294.7 482.818C337.171 482.818 371.6 448.388 371.6 405.918C371.6 363.447 337.171 329.018 294.7 329.018C252.229 329.018 217.8 363.447 217.8 405.918C217.8 448.388 252.229 482.818 294.7 482.818Z" fill="#A4ECFF"/>
<path d="M294.7 482.818C337.171 482.818 371.6 448.388 371.6 405.918C371.6 363.447 337.171 329.018 294.7 329.018C252.229 329.018 217.8 363.447 217.8 405.918C217.8 448.388 252.229 482.818 294.7 482.818Z" stroke="#2D2D2D" stroke-width="6" stroke-miterlimit="10" stroke-linecap="round" stroke-linejoin="round"/>
<g opacity="0.71">
<path opacity="0.71" d="M255.4 121.718C255.3 140.418 258.7 154.218 252.2 154.118C246 154.218 232.2 140.418 232.4 121.718C232.3 103.018 246 89.2179 252.2 89.3179C258.7 89.1179 255.2 102.918 255.4 121.718Z" fill="white"/>
</g>
<g opacity="0.71">
<path opacity="0.71" d="M260.5 405.918C260.4 424.618 263.8 438.418 257.3 438.318C251.1 438.418 237.3 424.618 237.5 405.918C237.4 387.218 251.1 373.418 257.3 373.518C263.8 373.418 260.4 387.118 260.5 405.918Z" fill="white"/>
</g>
<path d="M119.5 283.518H118.1C115.8 283.518 113.9 281.618 113.9 279.318V272.518C113.9 270.218 115.8 268.318 118.1 268.318H119.5C121.8 268.318 123.7 270.218 123.7 272.518V279.318C123.7 281.618 121.8 283.518 119.5 283.518Z" stroke="#2D2D2D" stroke-width="6" stroke-miterlimit="10" stroke-linecap="round" stroke-linejoin="round"/>
<path d="M119.5 283.518H118.1C115.8 283.518 113.9 281.618 113.9 279.318V272.518C113.9 270.218 115.8 268.318 118.1 268.318H119.5C121.8 268.318 123.7 270.218 123.7 272.518V279.318C123.7 281.618 121.8 283.518 119.5 283.518Z" fill="#2D2D2D"/>
<path d="M24 36.3179V89.3179H96V36.3179H24ZM86 70.3179H34V46.3179H86V70.3179Z" fill="white"/>
<path d="M24 36.3179V89.3179H96V36.3179H24ZM86 70.3179H34V46.3179H86V70.3179Z" stroke="#2D2D2D" stroke-width="6" stroke-miterlimit="10" stroke-linecap="round" stroke-linejoin="round"/>
<path d="M60 58.3179V70.3179" stroke="#2D2D2D" stroke-width="6" stroke-miterlimit="10" stroke-linecap="round" stroke-linejoin="round"/>
<path d="M89 202.418H31V226.218H89V202.418Z" fill="#E0E0E0"/>
<path d="M89 202.418H31V226.218H89V202.418Z" stroke="#2D2D2D" stroke-width="6" stroke-miterlimit="10" stroke-linecap="round" stroke-linejoin="round"/>
<path d="M89 323.418H31V347.218H89V323.418Z" fill="#E0E0E0"/>
<path d="M89 323.418H31V347.218H89V323.418Z" stroke="#2D2D2D" stroke-width="6" stroke-miterlimit="10" stroke-linecap="round" stroke-linejoin="round"/>
<path d="M60 332.418C91.48 332.418 117 306.898 117 275.418C117 243.938 91.48 218.418 60 218.418C28.52 218.418 3 243.938 3 275.418C3 306.898 28.52 332.418 60 332.418Z" fill="white"/>
<path d="M60 332.418C91.48 332.418 117 306.898 117 275.418C117 243.938 91.48 218.418 60 218.418C28.52 218.418 3 243.938 3 275.418C3 306.898 28.52 332.418 60 332.418Z" stroke="#2D2D2D" stroke-width="6" stroke-miterlimit="10" stroke-linecap="round" stroke-linejoin="round"/>
<path d="M60 320.418C84.853 320.418 105 300.271 105 275.418C105 250.565 84.853 230.418 60 230.418C35.147 230.418 15 250.565 15 275.418C15 300.271 35.147 320.418 60 320.418Z" fill="#42494F"/>
<path d="M60 320.418C84.853 320.418 105 300.271 105 275.418C105 250.565 84.853 230.418 60 230.418C35.147 230.418 15 250.565 15 275.418C15 300.271 35.147 320.418 60 320.418Z" stroke="#2D2D2D" stroke-width="6" stroke-miterlimit="10" stroke-linecap="round" stroke-linejoin="round"/>
<path d="M81 89.4179H39V210.818H81V89.4179Z" fill="#3C3A47"/>
<path opacity="0.3" d="M80.8 199.019H38.5V210.519H80.8V199.019Z" fill="#3C3A47"/>
<path opacity="0.3" d="M80.8 85.6179H38.5V97.1179H80.8V85.6179Z" fill="#3C3A47"/>
<path d="M81 89.4179H39V210.818H81V89.4179Z" stroke="#2D2D2D" stroke-width="6" stroke-miterlimit="10" stroke-linecap="round" stroke-linejoin="round"/>
<path d="M60 522.818C48.1 522.818 38.5 516.218 38.5 504.318V341.418H81.5V504.318C81.5 516.118 71.8 522.818 60 522.818Z" fill="#3C3A47"/>
<path opacity="0.3" d="M80.8 341.418H38.5V352.918H80.8V341.418Z" fill="#3C3A47"/>
<path d="M60 522.818C48.1 522.818 38.5 516.218 38.5 504.318V341.418H81.5V504.318C81.5 516.118 71.8 522.818 60 522.818Z" stroke="#2D2D2D" stroke-width="6" stroke-miterlimit="10" stroke-linecap="round" stroke-linejoin="round"/>
<path d="M26.4 273.618V265.618L27.4 264.718L28.3 265.618V273.618L27.4 274.618L26.4 273.618Z" fill="#373E42"/>
<path d="M37.1 273.618V265.618L38.1 264.718L39 265.618V273.618L38.1 274.618L37.1 273.618Z" fill="#373E42"/>
<path d="M28.7 265.218L27.8 264.318L28.7 263.418H36.7L37.6 264.318L36.7 265.218H28.7Z" fill="#373E42"/>
<path d="M28.7 275.918L27.8 275.018L28.7 274.118H36.7L37.6 275.018L36.7 275.918H28.7Z" fill="#373E42"/>
<path d="M26.4 284.318V276.318L27.4 275.418L28.3 276.318V284.318L27.4 285.218L26.4 284.318Z" fill="#373E42"/>
<path d="M37.1 284.318V276.318L38.1 275.418L39 276.318V284.318L38.1 285.218L37.1 284.318Z" fill="#373E42"/>
<path d="M28.7 286.618L27.8 285.718L28.7 284.818H36.7L37.6 285.718L36.7 286.618H28.7Z" fill="#373E42"/>
<path d="M42.2 273.618V265.618L43.1 264.718L43.999 265.618V273.618L43.1 274.618L42.2 273.618Z" fill="#373E42"/>
<path d="M52.8 273.618V265.618L53.8 264.718L54.7 265.618V273.618L53.8 274.618L52.8 273.618Z" fill="#76D676"/>
<path d="M44.399 265.218L43.499 264.318L44.399 263.418H52.399L53.299 264.318L52.399 265.218H44.399Z" fill="#373E42"/>
<path d="M44.399 275.918L43.499 275.018L44.399 274.118H52.399L53.299 275.018L52.399 275.918H44.399Z" fill="#373E42"/>
<path d="M42.2 284.318V276.318L43.1 275.418L43.999 276.318V284.318L43.1 285.218L42.2 284.318Z" fill="#373E42"/>
<path d="M52.8 284.318V276.318L53.8 275.418L54.7 276.318V284.318L53.8 285.218L52.8 284.318Z" fill="#76D676"/>
<path d="M44.399 286.618L43.499 285.718L44.399 284.818H52.399L53.299 285.718L52.399 286.618H44.399Z" fill="#373E42"/>
<path d="M63.7 273.618V265.618L64.6 264.718L65.499 265.618V273.618L64.6 274.618L63.7 273.618Z" fill="#76D676"/>
<path d="M74.4 273.618V265.618L75.3 264.718L76.2 265.618V273.618L75.3 274.618L74.4 273.618Z" fill="#76D676"/>
<path d="M65.899 265.218L64.999 264.318L65.899 263.418H73.899L74.799 264.318L73.899 265.218H65.899Z" fill="#76D676"/>
<path d="M65.899 275.918L64.999 275.018L65.899 274.118H73.899L74.799 275.018L73.899 275.918H65.899Z" fill="#373E42"/>
<path d="M63.7 284.318V276.318L64.6 275.418L65.499 276.318V284.318L64.6 285.218L63.7 284.318Z" fill="#76D676"/>
<path d="M74.4 284.318V276.318L75.3 275.418L76.2 276.318V284.318L75.3 285.218L74.4 284.318Z" fill="#76D676"/>
<path d="M65.899 286.618L64.999 285.718L65.899 284.818H73.899L74.799 285.718L73.899 286.618H65.899Z" fill="#76D676"/>
<path d="M79.4 273.618V265.618L80.3 264.718L81.2 265.618V273.618L80.3 274.618L79.4 273.618Z" fill="#76D676"/>
<path d="M90.1 273.618V265.618L91 264.718L91.9 265.618V273.618L91 274.618L90.1 273.618Z" fill="#76D676"/>
<path d="M81.6 265.218L80.7 264.318L81.6 263.418H89.6L90.6 264.318L89.6 265.218H81.6Z" fill="#76D676"/>
<path d="M81.6 275.918L80.7 275.018L81.6 274.118H89.6L90.6 275.018L89.6 275.918H81.6Z" fill="#76D676"/>
<path d="M79.4 284.318V276.318L80.3 275.418L81.2 276.318V284.318L80.3 285.218L79.4 284.318Z" fill="#76D676"/>
<path d="M90.1 284.318V276.318L91 275.418L91.9 276.318V284.318L91 285.218L90.1 284.318Z" fill="#76D676"/>
<path d="M81.6 286.618L80.7 285.718L81.6 284.818H89.6L90.6 285.718L89.6 286.618H81.6Z" fill="#76D676"/>
<path d="M59.9 270.618H58.1V272.418H59.9V270.618Z" fill="#76D676"/>
<path d="M59.9 277.618H58.1V279.418H59.9V277.618Z" fill="#76D676"/>
<path d="M60.1 74.3189C58.7 74.3189 57.6 73.2189 57.6 71.8189V71.5189C57.6 70.1189 58.7 69.0189 60.1 69.0189C61.5 69.0189 62.6 70.1189 62.6 71.5189V71.8189C62.6 73.2189 61.5 74.3189 60.1 74.3189Z" stroke="#2D2D2D" stroke-width="6" stroke-miterlimit="10" stroke-linecap="round" stroke-linejoin="round"/>
<path d="M60 402.418C63.258 402.418 65.9 399.732 65.9 396.418C65.9 393.104 63.258 390.418 60 390.418C56.741 390.418 54.1 393.104 54.1 396.418C54.1 399.732 56.741 402.418 60 402.418Z" fill="white"/>
<path d="M60 402.418C63.258 402.418 65.9 399.732 65.9 396.418C65.9 393.104 63.258 390.418 60 390.418C56.741 390.418 54.1 393.104 54.1 396.418C54.1 399.732 56.741 402.418 60 402.418Z" fill="#D59729" stroke="#2D2D2D" stroke-width="6" stroke-miterlimit="10" stroke-linecap="round" stroke-linejoin="round"/>
<path d="M60 428.118C63.258 428.118 65.9 425.432 65.9 422.118C65.9 418.804 63.258 416.118 60 416.118C56.741 416.118 54.1 418.804 54.1 422.118C54.1 425.432 56.741 428.118 60 428.118Z" fill="#D59729"/>
<path d="M60 428.118C63.258 428.118 65.9 425.432 65.9 422.118C65.9 418.804 63.258 416.118 60 416.118C56.741 416.118 54.1 418.804 54.1 422.118C54.1 425.432 56.741 428.118 60 428.118Z" stroke="#2D2D2D" stroke-width="6" stroke-miterlimit="10" stroke-linecap="round" stroke-linejoin="round"/>
<path d="M60 451.719C63.258 451.719 65.9 449.032 65.9 445.719C65.9 442.405 63.258 439.719 60 439.719C56.741 439.719 54.1 442.405 54.1 445.719C54.1 449.032 56.741 451.719 60 451.719Z" fill="#D59729"/>
<path d="M60 451.719C63.258 451.719 65.9 449.032 65.9 445.719C65.9 442.405 63.258 439.719 60 439.719C56.741 439.719 54.1 442.405 54.1 445.719C54.1 449.032 56.741 451.719 60 451.719Z" stroke="#2D2D2D" stroke-width="6" stroke-miterlimit="10" stroke-linecap="round" stroke-linejoin="round"/>
<g opacity="0.15">
<path opacity="0.15" d="M32.4 275.918C32.3 290.618 36.2 301.318 32.7 301.218C29.4 301.318 19.9 290.518 20 275.918C19.9 261.218 29.4 250.518 32.7 250.618C36.3 250.518 32.3 261.218 32.4 275.918Z" fill="white"/>
</g>
</svg>
