<?xml version="1.0" encoding="utf-8"?>
<!-- Generator: Adobe Illustrator 21.0.0, SVG Export Plug-In . SVG Version: 6.00 Build 0)  -->
<svg version="1.1" id="Layer_1" xmlns="http://www.w3.org/2000/svg" xmlns:xlink="http://www.w3.org/1999/xlink" x="0px" y="0px"
	 viewBox="0 0 64 64" style="enable-background:new 0 0 64 64;" xml:space="preserve">
<style type="text/css">
	.st0{fill:#039BE5;stroke:#0277BD;stroke-linecap:round;stroke-linejoin:round;stroke-miterlimit:10;}
	.st1{fill:#81D4FA;stroke:#0277BD;stroke-linecap:round;stroke-linejoin:round;stroke-miterlimit:10;}
	.st2{fill:#EC407A;stroke:#0277BD;stroke-linecap:round;stroke-linejoin:round;stroke-miterlimit:10;}
	.st3{fill:#FFA726;stroke:#0277BD;stroke-linecap:round;stroke-linejoin:round;stroke-miterlimit:10;}
	.st4{fill:#80CBC4;stroke:#0277BD;stroke-linecap:round;stroke-linejoin:round;stroke-miterlimit:10;}
	.st5{fill:none;stroke:#F48FB1;stroke-linecap:round;stroke-linejoin:round;stroke-miterlimit:10;}
	.st6{fill:none;stroke:#FFCC80;stroke-linecap:round;stroke-linejoin:round;stroke-miterlimit:10;}
	.st7{fill:none;stroke:#E0F2F1;stroke-linecap:round;stroke-linejoin:round;stroke-miterlimit:10;}
	.st8{fill:none;stroke:#26A69A;stroke-linecap:round;stroke-linejoin:round;stroke-miterlimit:10;}
	.st9{fill:none;stroke:#F57C00;stroke-linecap:round;stroke-linejoin:round;stroke-miterlimit:10;}
	.st10{fill:none;stroke:#D81B60;stroke-linecap:round;stroke-linejoin:round;stroke-miterlimit:10;}
	.st11{fill:#EEEEEE;stroke:#0277BD;stroke-linecap:round;stroke-linejoin:round;stroke-miterlimit:10;}
	.st12{fill:none;stroke:#BDBDBD;stroke-linecap:round;stroke-linejoin:round;stroke-miterlimit:10;}
	.st13{fill:none;stroke:#E1F5FE;stroke-linecap:round;stroke-linejoin:round;stroke-miterlimit:10;}
	.st14{fill:none;stroke:#FFFFFF;stroke-linecap:round;stroke-linejoin:round;stroke-miterlimit:10;}
	.st15{fill:none;stroke:#29B6F6;stroke-linecap:round;stroke-linejoin:round;stroke-miterlimit:10;}
	.st16{fill:none;stroke:#4FC3F7;stroke-linecap:round;stroke-linejoin:round;stroke-miterlimit:10;}
	.st17{fill:none;stroke:#0277BD;stroke-linecap:round;stroke-linejoin:round;stroke-miterlimit:10;}
</style>
<g id="Dimension">
	<g>
		<g>
			<line class="st1" x1="59.8" y1="13.5" x2="59.8" y2="58.5"/>
			<polyline class="st17" points="56.8,16.5 59.8,13.5 62.8,16.5 			"/>
			<polyline class="st17" points="62.8,55.5 59.8,58.5 56.8,55.5 			"/>
		</g>
		<g>
			<line class="st1" x1="5.7" y1="4.5" x2="50.8" y2="4.5"/>
			<polyline class="st17" points="8.7,7.5 5.7,4.5 8.7,1.5 			"/>
			<polyline class="st17" points="47.8,1.5 50.8,4.5 47.8,7.5 			"/>
		</g>
		<line class="st11" x1="25.2" y1="62.5" x2="25.2" y2="60.5"/>
		<g>
			<path class="st1" d="M8.7,58.5h39c1.7,0,3-1.3,3-3v-39c0-1.7-1.3-3-3-3h-39c-1.7,0-3,1.3-3,3v39C5.7,57.2,7.1,58.5,8.7,58.5z"/>
			<path class="st11" d="M37.8,52.5h7c0.6,0,1-0.4,1-1v-4c0-0.6-0.4-1-1-1h-7c-0.6,0-1,0.4-1,1v4C36.8,52.1,37.2,52.5,37.8,52.5z"/>
			<line class="st15" x1="47.8" y1="56.5" x2="8.7" y2="56.5"/>
			<line class="st13" x1="47.8" y1="15.5" x2="8.7" y2="15.5"/>
			<polygon class="st0" points="22.3,29.5 25.3,26.5 28.3,29.5 31.3,26.5 34.3,29.5 34.3,13.5 22.3,13.5 			"/>
			<line class="st16" x1="34.3" y1="15.5" x2="22.2" y2="15.5"/>
			<polygon class="st17" points="22.3,29.5 25.3,26.5 28.3,29.5 31.3,26.5 34.3,29.5 34.3,13.5 22.3,13.5 			"/>
		</g>
		<path class="st3" d="M1.2,34.9v26.6c0,0.6,0.4,1,1,1h26.6c0.9,0,1.3-1.1,0.7-1.7L3,34.2C2.3,33.6,1.2,34,1.2,34.9z M7.2,47
			l9.5,9.5H7.2V47z"/>
		<line class="st11" x1="5.2" y1="62.5" x2="5.2" y2="60.5"/>
		<line class="st11" x1="9.2" y1="62.5" x2="9.2" y2="60.5"/>
		<line class="st11" x1="13.2" y1="62.5" x2="13.2" y2="60.5"/>
		<line class="st11" x1="17.2" y1="62.5" x2="17.2" y2="60.5"/>
		<line class="st11" x1="21.2" y1="62.5" x2="21.2" y2="60.5"/>
		<line class="st11" x1="1.2" y1="38.5" x2="3.2" y2="38.5"/>
		<line class="st11" x1="1.2" y1="42.5" x2="3.2" y2="42.5"/>
		<line class="st11" x1="1.2" y1="46.5" x2="3.2" y2="46.5"/>
		<line class="st11" x1="1.2" y1="50.5" x2="3.2" y2="50.5"/>
		<line class="st11" x1="1.2" y1="54.5" x2="3.2" y2="54.5"/>
		<line class="st11" x1="1.2" y1="58.5" x2="3.2" y2="58.5"/>
	</g>
</g>
</svg>
