<svg width="368" height="85" viewBox="0 0 368 85" fill="none" xmlns="http://www.w3.org/2000/svg">
<path fill-rule="evenodd" clip-rule="evenodd" d="M45.93 3.05024H6.07004C4.39384 3.05024 3.03502 4.41588 3.03502 6.10048V78.8995C3.03502 80.5841 4.39384 81.9498 6.07004 81.9498H45.93C47.6062 81.9498 48.965 80.5841 48.965 78.8995V6.10048C48.965 4.41588 47.6062 3.05024 45.93 3.05024ZM6.07004 0C2.71765 0 0 2.73128 0 6.10048V78.8995C0 82.2687 2.71765 85 6.07004 85H45.93C49.2823 85 52 82.2687 52 78.8995V6.10048C52 2.73128 49.2823 0 45.93 0H6.07004Z" fill="#075D37"/>
<path d="M18 76.5C18 75.1193 18.8844 74 19.9753 74H32.0247C33.1156 74 34 75.1193 34 76.5C34 77.8807 33.1156 79 32.0247 79H19.9753C18.8844 79 18 77.8807 18 76.5Z" fill="#075D37"/>
<path fill-rule="evenodd" clip-rule="evenodd" d="M30.0652 17.9565H17.9348C17.3945 17.9565 16.9565 18.3945 16.9565 18.9348V31.0652C16.9565 31.6055 17.3945 32.0435 17.9348 32.0435H30.0652C30.6055 32.0435 31.0435 31.6055 31.0435 31.0652V18.9348C31.0435 18.3945 30.6055 17.9565 30.0652 17.9565ZM17.9348 16C16.3139 16 15 17.3139 15 18.9348V31.0652C15 32.6861 16.3139 34 17.9348 34H30.0652C31.6861 34 33 32.6861 33 31.0652V18.9348C33 17.3139 31.6861 16 30.0652 16H17.9348Z" fill="#075D37"/>
<path d="M19 36.9821C19 36.4397 19.4477 36 20 36C20.5523 36 21 36.4397 21 36.9821V40.0179C21 40.5603 20.5523 41 20 41C19.4477 41 19 40.5603 19 40.0179V36.9821Z" fill="#075D37"/>
<path d="M23 36.9821C23 36.4397 23.4477 36 24 36C24.5523 36 25 36.4397 25 36.9821V40.0179C25 40.5603 24.5523 41 24 41C23.4477 41 23 40.5603 23 40.0179V36.9821Z" fill="#075D37"/>
<path d="M27 36.9821C27 36.4397 27.6716 36 28.5 36C29.3284 36 30 36.4397 30 36.9821V40.0179C30 40.5603 29.3284 41 28.5 41C27.6716 41 27 40.5603 27 40.0179V36.9821Z" fill="#075D37"/>
<path d="M19 10.1786C19 9.52766 19.4477 9 20 9C20.5523 9 21 9.52766 21 10.1786V13.8214C21 14.4723 20.5523 15 20 15C19.4477 15 19 14.4723 19 13.8214V10.1786Z" fill="#075D37"/>
<path d="M23 10.1786C23 9.52766 23.4477 9 24 9C24.5523 9 25 9.52766 25 10.1786V13.8214C25 14.4723 24.5523 15 24 15C23.4477 15 23 14.4723 23 13.8214V10.1786Z" fill="#075D37"/>
<path d="M27 10.1786C27 9.52766 27.6716 9 28.5 9C29.3284 9 30 9.52766 30 10.1786V13.8214C30 14.4723 29.3284 15 28.5 15C27.6716 15 27 14.4723 27 13.8214V10.1786Z" fill="#075D37"/>
<path d="M38.8214 19C39.4723 19 40 19.4477 40 20C40 20.5523 39.4723 21 38.8214 21L35.1786 21C34.5277 21 34 20.5523 34 20C34 19.4477 34.5277 19 35.1786 19L38.8214 19Z" fill="#075D37"/>
<path d="M38.8214 24C39.4723 24 40 24.4477 40 25C40 25.5523 39.4723 26 38.8214 26L35.1786 26C34.5277 26 34 25.5523 34 25C34 24.4477 34.5277 24 35.1786 24L38.8214 24Z" fill="#075D37"/>
<path d="M38.8214 28C39.4723 28 40 28.4477 40 29C40 29.5523 39.4723 30 38.8214 30L35.1786 30C34.5277 30 34 29.5523 34 29C34 28.4477 34.5277 28 35.1786 28L38.8214 28Z" fill="#075D37"/>
<path d="M12.8214 19C13.4723 19 14 19.4477 14 20C14 20.5523 13.4723 21 12.8214 21L9.17857 21C8.52766 21 8 20.5523 8 20C8 19.4477 8.52766 19 9.17857 19L12.8214 19Z" fill="#075D37"/>
<path d="M12.8214 24C13.4723 24 14 24.4477 14 25C14 25.5523 13.4723 26 12.8214 26L9.17857 26C8.52766 26 8 25.5523 8 25C8 24.4477 8.52766 24 9.17857 24L12.8214 24Z" fill="#075D37"/>
<path d="M12.8214 28C13.4723 28 14 28.4477 14 29C14 29.5523 13.4723 30 12.8214 30L9.17857 30C8.52766 30 8 29.5523 8 29C8 28.4477 8.52766 28 9.17857 28L12.8214 28Z" fill="#075D37"/>
<path d="M21 21C21 21.5523 20.7761 22 20.5 22C20.2239 22 20 21.5523 20 21C20 20.4477 20.2239 20 20.5 20C20.7761 20 21 20.4477 21 21Z" fill="#075D37"/>
<path fill-rule="evenodd" clip-rule="evenodd" d="M19.0769 19.7568C18.958 19.7568 18.8615 19.8415 18.8615 19.9459V25.6216C18.8615 25.8306 18.6687 26 18.4308 26C18.1929 26 18 25.8306 18 25.6216V19.9459C18 19.4235 18.4822 19 19.0769 19H24.5692C24.8071 19 25 19.1694 25 19.3784C25 19.5874 24.8071 19.7568 24.5692 19.7568H19.0769Z" fill="#075D37"/>
<path d="M59 38.1535V2.2698H63.7977L69.8825 20.6584C70.2985 21.9752 70.8316 23.7624 71.4817 26.0198C72.1318 28.2459 72.5088 29.5157 72.6129 29.8292H72.7689C72.8989 29.3589 73.848 26.302 75.6163 20.6584L81.6231 2.2698H86.4987V38.1535H82.7152V19.2475C82.7152 16.2376 82.8582 12.6007 83.1443 8.33663H82.9883L81.272 14.0743L74.2901 35.7079H71.2087L64.2267 14.0743L62.4325 8.2896H62.2764C62.6145 13.1807 62.7835 16.8333 62.7835 19.2475V38.1535H59Z" fill="#075D37"/>
<path d="M95.626 25.2203C95.626 28.387 96.2111 30.8639 97.3812 32.651C98.5514 34.4068 99.9816 35.2847 101.672 35.2847C103.336 35.2847 104.753 34.4068 105.923 32.651C107.094 30.8639 107.679 28.387 107.679 25.2203C107.679 21.9909 107.094 19.4984 105.923 17.7426C104.753 15.9868 103.336 15.1089 101.672 15.1089C100.008 15.1089 98.5774 15.9868 97.3812 17.7426C96.2111 19.467 95.626 21.9596 95.626 25.2203ZM91.8815 25.2203C91.8815 21.3012 92.7266 18.0248 94.4168 15.3911C96.107 12.7261 98.5254 11.3936 101.672 11.3936C104.766 11.3936 107.159 12.7261 108.849 15.3911C110.565 18.0248 111.423 21.3012 111.423 25.2203C111.423 26.8507 111.241 28.434 110.877 29.9703C110.539 31.5066 110.006 32.9802 109.278 34.3911C108.576 35.7706 107.562 36.8837 106.235 37.7302C104.909 38.5767 103.388 39 101.672 39C99.9556 39 98.4344 38.5924 97.1082 37.7772C95.808 36.9307 94.7809 35.8177 94.0268 34.4381C93.2987 33.0586 92.7526 31.6007 92.3885 30.0644C92.0505 28.4967 91.8815 26.882 91.8815 25.2203Z" fill="#075D37"/>
<path d="M116.182 38.1535V1H119.809V16.2847C120.251 15.0619 121.018 13.9488 122.111 12.9455C123.229 11.9109 124.529 11.3936 126.011 11.3936C128.663 11.3936 130.835 12.632 132.525 15.1089C134.215 17.5545 135.06 20.9092 135.06 25.1733C135.06 27.5561 134.787 29.6724 134.241 31.5223C133.695 33.3721 132.967 34.83 132.057 35.896C131.147 36.9307 130.185 37.6988 129.171 38.2005C128.156 38.7335 127.103 39 126.011 39C124.581 39 123.307 38.514 122.189 37.5421C121.07 36.5388 120.264 35.3474 119.77 33.9678V38.1535H116.182ZM119.731 25.1733C119.731 28.2772 120.277 30.7384 121.369 32.5569C122.488 34.3754 123.866 35.2847 125.504 35.2847C127.194 35.2847 128.585 34.4068 129.678 32.651C130.77 30.8639 131.316 28.3713 131.316 25.1733C131.316 22.1007 130.783 19.6551 129.717 17.8366C128.65 16.0182 127.246 15.1089 125.504 15.1089C123.866 15.1089 122.488 16.0338 121.369 17.8837C120.277 19.7021 119.731 22.132 119.731 25.1733Z" fill="#075D37"/>
<path d="M139.936 7.11386V1.75248H144.266V7.11386H139.936ZM140.326 38.1535V12.2401H143.915V38.1535H140.326Z" fill="#075D37"/>
<path d="M150.975 38.1535V1H154.602V38.1535H150.975Z" fill="#075D37"/>
<path d="M159.595 25.0322C159.595 20.9563 160.518 17.6642 162.364 15.1559C164.21 12.6477 166.577 11.3936 169.463 11.3936C172.349 11.3936 174.651 12.632 176.367 15.1089C178.109 17.5858 178.98 20.7525 178.98 24.6089C178.98 25.1106 178.954 25.8003 178.902 26.6782H163.3C163.3 29.0611 163.859 31.1147 164.977 32.8391C166.122 34.5322 167.682 35.3787 169.658 35.3787C172.31 35.3787 174.248 33.9992 175.47 31.2401L178.551 32.4158C177.875 34.3284 176.77 35.9117 175.236 37.1658C173.728 38.3886 171.855 39 169.619 39C166.629 39 164.21 37.7302 162.364 35.1906C160.518 32.6196 159.595 29.2335 159.595 25.0322ZM163.378 23.4332H175.275C175.275 21.0817 174.755 19.0908 173.715 17.4604C172.674 15.83 171.257 15.0149 169.463 15.0149C167.643 15.0149 166.187 15.8614 165.094 17.5545C164.002 19.2162 163.43 21.1757 163.378 23.4332Z" fill="#075D37"/>
<path d="M182.101 25.1733C182.101 20.9092 182.959 17.5545 184.675 15.1089C186.391 12.632 188.563 11.3936 191.189 11.3936C192.645 11.3936 193.919 11.8795 195.011 12.8515C196.104 13.8234 196.884 14.9365 197.352 16.1906V1H200.979V38.1535H197.469V33.9208C196.949 35.363 196.13 36.5701 195.011 37.5421C193.893 38.514 192.619 39 191.189 39C190.097 39 189.031 38.7335 187.991 38.2005C186.95 37.6988 185.975 36.9307 185.065 35.896C184.181 34.83 183.466 33.3721 182.92 31.5223C182.374 29.6724 182.101 27.5561 182.101 25.1733ZM185.845 25.1733C185.845 28.2772 186.378 30.7384 187.444 32.5569C188.511 34.3754 189.915 35.2847 191.657 35.2847C193.269 35.2847 194.634 34.3754 195.753 32.5569C196.871 30.7384 197.43 28.2772 197.43 25.1733C197.43 22.132 196.871 19.7021 195.753 17.8837C194.66 16.0338 193.295 15.1089 191.657 15.1089C189.889 15.1089 188.472 16.0338 187.405 17.8837C186.365 19.7335 185.845 22.1634 185.845 25.1733Z" fill="#075D37"/>
<path d="M209.521 25.2203C209.521 28.387 210.107 30.8639 211.277 32.651C212.447 34.4068 213.877 35.2847 215.567 35.2847C217.232 35.2847 218.649 34.4068 219.819 32.651C220.989 30.8639 221.574 28.387 221.574 25.2203C221.574 21.9909 220.989 19.4984 219.819 17.7426C218.649 15.9868 217.232 15.1089 215.567 15.1089C213.903 15.1089 212.473 15.9868 211.277 17.7426C210.107 19.467 209.521 21.9596 209.521 25.2203ZM205.777 25.2203C205.777 21.3012 206.622 18.0248 208.312 15.3911C210.003 12.7261 212.421 11.3936 215.567 11.3936C218.662 11.3936 221.054 12.7261 222.744 15.3911C224.46 18.0248 225.319 21.3012 225.319 25.2203C225.319 26.8507 225.137 28.434 224.773 29.9703C224.434 31.5066 223.901 32.9802 223.173 34.3911C222.471 35.7706 221.457 36.8837 220.131 37.7302C218.805 38.5767 217.284 39 215.567 39C213.851 39 212.33 38.5924 211.004 37.7772C209.703 36.9307 208.676 35.8177 207.922 34.4381C207.194 33.0586 206.648 31.6007 206.284 30.0644C205.946 28.4967 205.777 26.882 205.777 25.2203Z" fill="#075D37"/>
<path d="M230.155 38.1535V1H233.822V24.3267L242.559 12.2401H247.279L239.517 22.6807L248.02 38.1535H243.651L237.176 25.7376L233.822 30.2525V38.1535H230.155Z" fill="#075D37"/>
<path d="M252.934 31.2871C252.934 32.4158 253.324 33.3721 254.105 34.1559C254.885 34.9398 255.938 35.3317 257.264 35.3317C259.032 35.3317 260.527 34.6419 261.75 33.2624C262.998 31.8828 263.622 30.1114 263.622 27.948V24.75C262.582 25.0635 260.891 25.4398 258.551 25.8787C254.807 26.6312 252.934 28.434 252.934 31.2871ZM249.268 31.6634C249.268 26.8036 252.323 23.8094 258.434 22.6807C261.086 22.179 262.816 21.7715 263.622 21.4579V20C263.622 18.495 263.18 17.2723 262.296 16.3317C261.438 15.3911 260.215 14.9208 258.629 14.9208C257.381 14.9208 256.172 15.2814 255.002 16.0025C253.857 16.6922 252.895 17.6172 252.115 18.7772L249.814 16.4257C250.88 14.8894 252.18 13.6667 253.714 12.7574C255.249 11.8482 256.861 11.3936 258.551 11.3936C264.35 11.3936 267.249 14.8424 267.249 21.7401V38.1535H263.739V34.25C263.297 35.5355 262.452 36.6485 261.203 37.5891C259.955 38.5297 258.486 39 256.796 39C254.43 39 252.583 38.3259 251.257 36.9777C249.931 35.5982 249.268 33.8267 249.268 31.6634Z" fill="#075D37"/>
<path d="M275.206 31.2871C275.206 32.4158 275.596 33.3721 276.377 34.1559C277.157 34.9398 278.21 35.3317 279.536 35.3317C281.304 35.3317 282.799 34.6419 284.022 33.2624C285.27 31.8828 285.894 30.1114 285.894 27.948V24.75C284.854 25.0635 283.163 25.4398 280.823 25.8787C277.079 26.6312 275.206 28.434 275.206 31.2871ZM271.54 31.6634C271.54 26.8036 274.595 23.8094 280.706 22.6807C283.359 22.179 285.088 21.7715 285.894 21.4579V20C285.894 18.495 285.452 17.2723 284.568 16.3317C283.71 15.3911 282.487 14.9208 280.901 14.9208C279.653 14.9208 278.444 15.2814 277.274 16.0025C276.13 16.6922 275.167 17.6172 274.387 18.7772L272.086 16.4257C273.152 14.8894 274.452 13.6667 275.986 12.7574C277.521 11.8482 279.133 11.3936 280.823 11.3936C286.622 11.3936 289.521 14.8424 289.521 21.7401V38.1535H286.011V34.25C285.569 35.5355 284.724 36.6485 283.476 37.5891C282.227 38.5297 280.758 39 279.068 39C276.702 39 274.855 38.3259 273.529 36.9777C272.203 35.5982 271.54 33.8267 271.54 31.6634Z" fill="#075D37"/>
<path d="M295.216 38.1535V12.2401H298.805V16.2847H298.844C299.182 15.1246 299.923 14.0272 301.067 12.9926C302.237 11.9266 303.667 11.3936 305.357 11.3936C307.412 11.3936 309.076 12.1617 310.35 13.698C311.65 15.2343 312.3 17.8053 312.3 21.4109V38.1535H308.595V22.1163C308.595 17.4447 307.243 15.1089 304.538 15.1089C303.004 15.1089 301.678 15.8771 300.56 17.4134C299.468 18.9183 298.922 20.7368 298.922 22.8688V38.1535H295.216Z" fill="#075D37"/>
<path d="M318.853 38.1535V2.2698H329.931C332.895 2.2698 335.145 3.11634 336.679 4.80941C338.213 6.47112 338.98 8.72855 338.98 11.5817C338.98 13.4315 338.59 15.0149 337.81 16.3317C337.056 17.6485 336.081 18.6361 334.885 19.2946C336.315 19.8276 337.537 20.8779 338.551 22.4455C339.565 23.9818 340.072 25.8317 340.072 27.9951C340.072 30.8168 339.305 33.2153 337.771 35.1906C336.237 37.1658 334.104 38.1535 331.374 38.1535H318.853ZM322.637 34.25H330.555C332.141 34.25 333.467 33.7013 334.533 32.604C335.626 31.5066 336.172 29.986 336.172 28.0421C336.172 26.1922 335.652 24.6559 334.611 23.4332C333.571 22.2104 332.167 21.599 330.399 21.599H322.637V34.25ZM322.637 17.7896H329.385C331.023 17.7896 332.375 17.3036 333.441 16.3317C334.533 15.3284 335.08 13.8548 335.08 11.9109C335.08 10.1865 334.637 8.80693 333.753 7.77228C332.869 6.70627 331.465 6.17327 329.541 6.17327H322.637V17.7896Z" fill="#075D37"/>
<path d="M345.806 38.1535V2.2698H354.114C358.457 2.2698 361.85 3.80611 364.295 6.87871C366.765 9.95132 368 14.4035 368 20.2351C368 25.6906 366.83 30.0487 364.49 33.3094C362.149 36.5388 358.665 38.1535 354.036 38.1535H345.806ZM349.59 34.297H353.529C356.831 34.297 359.419 33.184 361.291 30.9579C363.163 28.7005 364.099 25.1262 364.099 20.2351C364.099 10.8606 360.602 6.17327 353.607 6.17327H349.59V34.297Z" fill="#075D37"/>
<path d="M78.581 58.1266C78.2602 56.9668 77.8373 55.9275 77.3123 55.0088C76.7971 54.0787 76.1798 53.2863 75.4605 52.6318C74.7508 51.9772 73.944 51.4777 73.0399 51.1331C72.1358 50.7886 71.1443 50.6164 70.0652 50.6164C68.296 50.6164 66.6871 51.1561 65.2387 52.2356C63.7902 53.315 62.6383 54.9055 61.7828 57.007C60.9273 59.1085 60.4996 61.6865 60.4996 64.7412C60.4996 67.7958 60.9322 70.3738 61.7974 72.4753C62.6626 74.5768 63.834 76.1673 65.3116 77.2467C66.7892 78.3262 68.4515 78.8659 70.2985 78.8659C72.0095 78.8659 73.5162 78.4353 74.8189 77.574C76.1312 76.7013 77.1519 75.4725 77.881 73.8878C78.6198 72.2916 78.9892 70.414 78.9892 68.2551L80.0975 68.5307H71.1151V64.7412H82.4889V68.5307C82.4889 71.4361 81.9639 73.9624 80.914 76.1099C79.8739 78.2573 78.4351 79.9224 76.5978 81.1052C74.7703 82.2765 72.6705 82.8622 70.2985 82.8622C67.6544 82.8622 65.331 82.1273 63.3285 80.6574C61.3356 79.1875 59.7802 77.0975 58.6623 74.3873C57.5541 71.6772 57 68.4618 57 64.7412C57 61.9507 57.3159 59.4415 57.9478 57.2137C58.5894 54.9744 59.4935 53.0681 60.66 51.4949C61.8266 49.9216 63.207 48.7159 64.8012 47.8776C66.3955 47.0393 68.1502 46.6201 70.0652 46.6201C71.6401 46.6201 73.1079 46.9015 74.4689 47.4642C75.8396 48.0154 77.0596 48.802 78.1289 49.824C79.208 50.8346 80.1072 52.0461 80.8265 53.4586C81.5459 54.8596 82.0417 56.4156 82.3139 58.1266H78.581Z" fill="black"/>
<path d="M97.6065 82.9311C95.4484 82.9311 93.5868 82.3684 92.0217 81.243C90.4663 80.1061 89.2657 78.5214 88.42 76.4888C87.584 74.4448 87.1659 72.0677 87.1659 69.3575C87.1659 66.6474 87.584 64.2588 88.42 62.1918C89.2657 60.1133 90.442 58.4941 91.9487 57.3343C93.4652 56.1629 95.2345 55.5773 97.2565 55.5773C98.423 55.5773 99.575 55.807 100.712 56.2663C101.85 56.7256 102.885 57.4721 103.818 58.5056C104.752 59.5276 105.495 60.8827 106.049 62.5708C106.603 64.2588 106.88 66.3374 106.88 68.8063V70.5289H89.6157V67.0149H103.381C103.381 65.522 103.128 64.1899 102.623 63.0186C102.127 61.8473 101.417 60.9229 100.494 60.2453C99.5798 59.5678 98.5008 59.229 97.2565 59.229C95.8858 59.229 94.6998 59.631 93.6986 60.4348C92.707 61.2272 91.9439 62.2607 91.4092 63.5354C90.8746 64.8101 90.6072 66.1766 90.6072 67.635V69.9777C90.6072 71.9758 90.8989 73.6696 91.4821 75.0591C92.0751 76.4372 92.8966 77.4879 93.9464 78.2114C94.9963 78.9233 96.2163 79.2793 97.6065 79.2793C98.5105 79.2793 99.3271 79.13 100.056 78.8315C100.795 78.5214 101.432 78.0621 101.966 77.4534C102.501 76.8333 102.914 76.0639 103.206 75.1453L106.53 76.2477C106.181 77.5798 105.592 78.7511 104.766 79.7616C103.94 80.7607 102.919 81.5416 101.704 82.1043C100.489 82.6555 99.123 82.9311 97.6065 82.9311Z" fill="black"/>
<path d="M121.856 55.9218V59.3669H110.249V55.9218H121.856ZM113.632 49.5829H117.073V74.8007C117.073 75.9491 117.214 76.8104 117.496 77.3845C117.788 77.9472 118.157 78.3262 118.604 78.5214C119.061 78.7052 119.542 78.797 120.048 78.797C120.427 78.797 120.738 78.7741 120.981 78.7281C121.224 78.6707 121.418 78.6248 121.564 78.5903L122.264 82.2421C122.031 82.3454 121.705 82.4488 121.287 82.5521C120.869 82.667 120.339 82.7244 119.698 82.7244C118.726 82.7244 117.773 82.4775 116.84 81.9837C115.916 81.4899 115.148 80.7377 114.536 79.7272C113.933 78.7166 113.632 77.442 113.632 75.9032V49.5829Z" fill="black"/>
<path d="M139.048 82.3799V47.1024H142.664V78.5903H156.546V82.3799H139.048Z" fill="black"/>
<path d="M168.269 83C166.85 83 165.562 82.6842 164.405 82.0526C163.249 81.4095 162.33 80.4851 161.649 79.2793C160.969 78.0621 160.629 76.5922 160.629 74.8696C160.629 73.3538 160.881 72.1251 161.387 71.1834C161.892 70.2303 162.568 69.4839 163.414 68.9441C164.26 68.4044 165.193 68.0025 166.213 67.7384C167.244 67.4628 168.279 67.2446 169.319 67.0838C170.68 66.8771 171.784 66.7221 172.629 66.6187C173.485 66.5039 174.107 66.3144 174.496 66.0503C174.894 65.7862 175.094 65.3268 175.094 64.6723V64.5344C175.094 62.8349 174.7 61.5143 173.913 60.5726C173.135 59.631 171.954 59.1601 170.369 59.1601C168.726 59.1601 167.438 59.585 166.505 60.4348C165.572 61.2846 164.916 62.1918 164.537 63.1564L161.27 61.7784C161.854 60.1707 162.631 58.919 163.603 58.0233C164.585 57.1161 165.655 56.4845 166.811 56.1285C167.978 55.761 169.125 55.5773 170.253 55.5773C170.972 55.5773 171.798 55.6806 172.732 55.8873C173.674 56.0826 174.583 56.4902 175.458 57.1103C176.343 57.7304 177.077 58.6664 177.66 59.9181C178.243 61.1698 178.535 62.8464 178.535 64.9479V82.3799H175.094V78.797H174.919C174.685 79.3712 174.297 79.9856 173.752 80.6401C173.208 81.2947 172.484 81.8516 171.58 82.311C170.675 82.7703 169.572 83 168.269 83ZM168.794 79.3482C170.155 79.3482 171.302 79.0324 172.236 78.4008C173.179 77.7692 173.888 76.9539 174.365 75.9548C174.851 74.9558 175.094 73.905 175.094 72.8026V69.0819C174.948 69.2886 174.627 69.4781 174.131 69.6504C173.645 69.8111 173.081 69.9547 172.44 70.081C171.808 70.1958 171.191 70.2992 170.588 70.3911C169.995 70.4714 169.514 70.5403 169.144 70.5978C168.25 70.7356 167.414 70.9595 166.636 71.2696C165.868 71.5681 165.246 72.0217 164.77 72.6304C164.303 73.2275 164.07 74.0428 164.07 75.0763C164.07 76.4888 164.512 77.5568 165.397 78.2803C166.291 78.9922 167.424 79.3482 168.794 79.3482Z" fill="black"/>
<path d="M194.557 55.9218V59.3669H182.95V55.9218H194.557ZM186.333 49.5829H189.774V74.8007C189.774 75.9491 189.915 76.8104 190.197 77.3845C190.488 77.9472 190.858 78.3262 191.305 78.5214C191.762 78.7052 192.243 78.797 192.749 78.797C193.128 78.797 193.439 78.7741 193.682 78.7281C193.925 78.6707 194.119 78.6248 194.265 78.5903L194.965 82.2421C194.732 82.3454 194.406 82.4488 193.988 82.5521C193.57 82.667 193.04 82.7244 192.399 82.7244C191.426 82.7244 190.474 82.4775 189.541 81.9837C188.617 81.4899 187.849 80.7377 187.237 79.7272C186.634 78.7166 186.333 77.442 186.333 75.9032V49.5829Z" fill="black"/>
<path d="M208.883 82.9311C206.725 82.9311 204.864 82.3684 203.298 81.243C201.743 80.1061 200.542 78.5214 199.697 76.4888C198.861 74.4448 198.443 72.0677 198.443 69.3575C198.443 66.6474 198.861 64.2588 199.697 62.1918C200.542 60.1133 201.719 58.4941 203.226 57.3343C204.742 56.1629 206.511 55.5773 208.533 55.5773C209.7 55.5773 210.852 55.807 211.989 56.2663C213.127 56.7256 214.162 57.4721 215.095 58.5056C216.028 59.5276 216.772 60.8827 217.326 62.5708C217.88 64.2588 218.157 66.3374 218.157 68.8063V70.5289H200.892V67.0149H214.658C214.658 65.522 214.405 64.1899 213.899 63.0186C213.404 61.8473 212.694 60.9229 211.77 60.2453C210.857 59.5678 209.778 59.229 208.533 59.229C207.163 59.229 205.977 59.631 204.975 60.4348C203.984 61.2272 203.221 62.2607 202.686 63.5354C202.151 64.8101 201.884 66.1766 201.884 67.635V69.9777C201.884 71.9758 202.176 73.6696 202.759 75.0591C203.352 76.4372 204.173 77.4879 205.223 78.2114C206.273 78.9233 207.493 79.2793 208.883 79.2793C209.787 79.2793 210.604 79.13 211.333 78.8315C212.072 78.5214 212.709 78.0621 213.243 77.4534C213.778 76.8333 214.191 76.0639 214.483 75.1453L217.807 76.2477C217.457 77.5798 216.869 78.7511 216.043 79.7616C215.217 80.7607 214.196 81.5416 212.981 82.1043C211.766 82.6555 210.4 82.9311 208.883 82.9311Z" fill="black"/>
<path d="M239.257 61.8473L236.166 62.8808C235.971 62.2722 235.684 61.6808 235.305 61.1066C234.936 60.5209 234.43 60.0386 233.789 59.6597C233.147 59.2807 232.326 59.0912 231.325 59.0912C229.954 59.0912 228.812 59.4645 227.898 60.2109C226.994 60.9458 226.542 61.8817 226.542 63.0186C226.542 64.0292 226.853 64.8273 227.475 65.4129C228.097 65.9986 229.069 66.4867 230.391 66.8771L233.716 67.8417C235.718 68.4159 237.211 69.2944 238.193 70.4772C239.174 71.6485 239.665 73.1586 239.665 75.0074C239.665 76.5233 239.296 77.8783 238.557 79.0726C237.828 80.2669 236.807 81.2086 235.495 81.8976C234.183 82.5866 232.656 82.9311 230.916 82.9311C228.632 82.9311 226.741 82.3454 225.244 81.1741C223.747 80.0028 222.799 78.2917 222.4 76.041L225.667 75.0763C225.978 76.5003 226.566 77.5683 227.431 78.2803C228.306 78.9922 229.448 79.3482 230.858 79.3482C232.462 79.3482 233.735 78.9463 234.678 78.1425C235.631 77.3271 236.107 76.351 236.107 75.2142C236.107 74.2955 235.835 73.5261 235.291 72.906C234.746 72.2744 233.91 71.8035 232.783 71.4935L229.05 70.46C226.999 69.8858 225.492 68.9958 224.529 67.79C223.577 66.5728 223.1 65.0512 223.1 63.2253C223.1 61.7325 223.455 60.4119 224.165 59.2635C224.884 58.1151 225.861 57.2137 227.096 56.5591C228.34 55.9046 229.75 55.5773 231.325 55.5773C233.541 55.5773 235.281 56.1515 236.545 57.2998C237.818 58.4482 238.722 59.964 239.257 61.8473Z" fill="black"/>
<path d="M254.586 55.9218V59.3669H242.979V55.9218H254.586ZM246.362 49.5829H249.803V74.8007C249.803 75.9491 249.944 76.8104 250.226 77.3845C250.518 77.9472 250.887 78.3262 251.334 78.5214C251.791 78.7052 252.272 78.797 252.778 78.797C253.157 78.797 253.468 78.7741 253.711 78.7281C253.954 78.6707 254.149 78.6248 254.294 78.5903L254.994 82.2421C254.761 82.3454 254.435 82.4488 254.017 82.5521C253.599 82.667 253.07 82.7244 252.428 82.7244C251.456 82.7244 250.503 82.4775 249.57 81.9837C248.646 81.4899 247.878 80.7377 247.266 79.7272C246.663 78.7166 246.362 77.442 246.362 75.9032V49.5829Z" fill="black"/>
<path d="M271.778 82.3799V47.1024H281.868C284.211 47.1024 286.126 47.602 287.614 48.601C289.111 49.5886 290.219 50.9264 290.938 52.6145C291.658 54.3026 292.017 56.1859 292.017 58.2644C292.017 60.343 291.658 62.232 290.938 63.9316C290.229 65.6311 289.13 66.9862 287.643 67.9967C286.155 68.9958 284.25 69.4953 281.927 69.4953H274.694V65.7058H281.81C283.414 65.7058 284.702 65.3785 285.674 64.7239C286.646 64.0694 287.351 63.1851 287.789 62.0712C288.236 60.9458 288.459 59.6769 288.459 58.2644C288.459 56.852 288.236 55.5888 287.789 54.4749C287.351 53.361 286.642 52.4882 285.66 51.8566C284.678 51.2135 283.375 50.892 281.752 50.892H275.394V82.3799H271.778Z" fill="black"/>
<path d="M297.376 82.3799V55.9218H300.701V59.9181H300.934C301.342 58.6089 302.081 57.5467 303.15 56.7314C304.22 55.916 305.425 55.5084 306.767 55.5084C307.019 55.5084 307.335 55.5141 307.715 55.5256C308.094 55.5371 308.38 55.5543 308.575 55.5773V59.7114C308.458 59.6769 308.191 59.6252 307.773 59.5563C307.365 59.4759 306.932 59.4358 306.475 59.4358C305.386 59.4358 304.414 59.7056 303.559 60.2453C302.713 60.7736 302.042 61.5085 301.546 62.4502C301.06 63.3804 300.817 64.4426 300.817 65.6369V82.3799H297.376Z" fill="black"/>
<path d="M312.654 82.3799V55.9218H316.095V82.3799H312.654ZM314.404 51.5121C313.733 51.5121 313.155 51.2422 312.669 50.7025C312.192 50.1628 311.954 49.514 311.954 48.7561C311.954 47.9981 312.192 47.3493 312.669 46.8096C313.155 46.2699 313.733 46 314.404 46C315.075 46 315.648 46.2699 316.125 46.8096C316.611 47.3493 316.854 47.9981 316.854 48.7561C316.854 49.514 316.611 50.1628 316.125 50.7025C315.648 51.2422 315.075 51.5121 314.404 51.5121Z" fill="black"/>
<path d="M331.497 82.9311C329.398 82.9311 327.589 82.3454 326.073 81.1741C324.556 80.0028 323.39 78.3894 322.573 76.3338C321.757 74.2782 321.348 71.9299 321.348 69.2886C321.348 66.6015 321.766 64.2301 322.602 62.1746C323.448 60.1075 324.624 58.4941 326.131 57.3343C327.648 56.1629 329.417 55.5773 331.439 55.5773C333.014 55.5773 334.433 55.9218 335.697 56.6108C336.961 57.2998 337.996 58.2644 338.803 59.5047C339.61 60.7449 340.11 62.1918 340.305 63.8454H336.863C336.601 62.6397 336.018 61.5717 335.114 60.6415C334.219 59.6999 333.014 59.229 331.497 59.229C330.156 59.229 328.98 59.6425 327.969 60.4693C326.967 61.2846 326.185 62.4387 325.621 63.9316C325.067 65.4129 324.79 67.1527 324.79 69.1508C324.79 71.1949 325.062 72.9749 325.606 74.4907C326.16 76.0065 326.938 77.1836 327.939 78.0219C328.95 78.8602 330.136 79.2793 331.497 79.2793C332.392 79.2793 333.203 79.0956 333.932 78.7281C334.662 78.3606 335.279 77.8324 335.784 77.1434C336.29 76.4544 336.65 75.6276 336.863 74.6629H340.305C340.11 76.2247 339.629 77.6314 338.861 78.8831C338.103 80.1234 337.097 81.111 335.843 81.8459C334.598 82.5694 333.15 82.9311 331.497 82.9311Z" fill="black"/>
<path d="M354.726 82.9311C352.568 82.9311 350.706 82.3684 349.141 81.243C347.586 80.1061 346.385 78.5214 345.54 76.4888C344.704 74.4448 344.285 72.0677 344.285 69.3575C344.285 66.6474 344.704 64.2588 345.54 62.1918C346.385 60.1133 347.562 58.4941 349.068 57.3343C350.585 56.1629 352.354 55.5773 354.376 55.5773C355.543 55.5773 356.695 55.807 357.832 56.2663C358.969 56.7256 360.005 57.4721 360.938 58.5056C361.871 59.5276 362.615 60.8827 363.169 62.5708C363.723 64.2588 364 66.3374 364 68.8063V70.5289H346.735V67.0149H360.5C360.5 65.522 360.248 64.1899 359.742 63.0186C359.246 61.8473 358.537 60.9229 357.613 60.2453C356.699 59.5678 355.62 59.229 354.376 59.229C353.005 59.229 351.819 59.631 350.818 60.4348C349.827 61.2272 349.063 62.2607 348.529 63.5354C347.994 64.8101 347.727 66.1766 347.727 67.635V69.9777C347.727 71.9758 348.018 73.6696 348.602 75.0591C349.195 76.4372 350.016 77.4879 351.066 78.2114C352.116 78.9233 353.336 79.2793 354.726 79.2793C355.63 79.2793 356.447 79.13 357.176 78.8315C357.915 78.5214 358.551 78.0621 359.086 77.4534C359.621 76.8333 360.034 76.0639 360.325 75.1453L363.65 76.2477C363.3 77.5798 362.712 78.7511 361.886 79.7616C361.059 80.7607 360.039 81.5416 358.823 82.1043C357.608 82.6555 356.243 82.9311 354.726 82.9311Z" fill="black"/>
</svg>
<svg width="374" height="85" viewBox="0 0 374 85" fill="none" xmlns="http://www.w3.org/2000/svg">
<path fill-rule="evenodd" clip-rule="evenodd" d="M45.93 3.05024H6.07004C4.39384 3.05024 3.03502 4.41588 3.03502 6.10048V78.8995C3.03502 80.5841 4.39384 81.9498 6.07004 81.9498H45.93C47.6062 81.9498 48.965 80.5841 48.965 78.8995V6.10048C48.965 4.41588 47.6062 3.05024 45.93 3.05024ZM6.07004 0C2.71765 0 0 2.73128 0 6.10048V78.8995C0 82.2687 2.71765 85 6.07004 85H45.93C49.2823 85 52 82.2687 52 78.8995V6.10048C52 2.73128 49.2823 0 45.93 0H6.07004Z" fill="#075D37"/>
<path d="M18 76.5C18 75.1193 18.8844 74 19.9753 74H32.0247C33.1156 74 34 75.1193 34 76.5C34 77.8807 33.1156 79 32.0247 79H19.9753C18.8844 79 18 77.8807 18 76.5Z" fill="#075D37"/>
<path fill-rule="evenodd" clip-rule="evenodd" d="M30.0652 17.9565H17.9348C17.3945 17.9565 16.9565 18.3945 16.9565 18.9348V31.0652C16.9565 31.6055 17.3945 32.0435 17.9348 32.0435H30.0652C30.6055 32.0435 31.0435 31.6055 31.0435 31.0652V18.9348C31.0435 18.3945 30.6055 17.9565 30.0652 17.9565ZM17.9348 16C16.3139 16 15 17.3139 15 18.9348V31.0652C15 32.6861 16.3139 34 17.9348 34H30.0652C31.6861 34 33 32.6861 33 31.0652V18.9348C33 17.3139 31.6861 16 30.0652 16H17.9348Z" fill="#075D37"/>
<path d="M19 36.9821C19 36.4397 19.4477 36 20 36C20.5523 36 21 36.4397 21 36.9821V40.0179C21 40.5603 20.5523 41 20 41C19.4477 41 19 40.5603 19 40.0179V36.9821Z" fill="#075D37"/>
<path d="M23 36.9821C23 36.4397 23.4477 36 24 36C24.5523 36 25 36.4397 25 36.9821V40.0179C25 40.5603 24.5523 41 24 41C23.4477 41 23 40.5603 23 40.0179V36.9821Z" fill="#075D37"/>
<path d="M27 36.9821C27 36.4397 27.6716 36 28.5 36C29.3284 36 30 36.4397 30 36.9821V40.0179C30 40.5603 29.3284 41 28.5 41C27.6716 41 27 40.5603 27 40.0179V36.9821Z" fill="#075D37"/>
<path d="M19 10.1786C19 9.52766 19.4477 9 20 9C20.5523 9 21 9.52766 21 10.1786V13.8214C21 14.4723 20.5523 15 20 15C19.4477 15 19 14.4723 19 13.8214V10.1786Z" fill="#075D37"/>
<path d="M23 10.1786C23 9.52766 23.4477 9 24 9C24.5523 9 25 9.52766 25 10.1786V13.8214C25 14.4723 24.5523 15 24 15C23.4477 15 23 14.4723 23 13.8214V10.1786Z" fill="#075D37"/>
<path d="M27 10.1786C27 9.52766 27.6716 9 28.5 9C29.3284 9 30 9.52766 30 10.1786V13.8214C30 14.4723 29.3284 15 28.5 15C27.6716 15 27 14.4723 27 13.8214V10.1786Z" fill="#075D37"/>
<path d="M38.8214 19C39.4723 19 40 19.4477 40 20C40 20.5523 39.4723 21 38.8214 21L35.1786 21C34.5277 21 34 20.5523 34 20C34 19.4477 34.5277 19 35.1786 19L38.8214 19Z" fill="#075D37"/>
<path d="M38.8214 24C39.4723 24 40 24.4477 40 25C40 25.5523 39.4723 26 38.8214 26L35.1786 26C34.5277 26 34 25.5523 34 25C34 24.4477 34.5277 24 35.1786 24L38.8214 24Z" fill="#075D37"/>
<path d="M38.8214 28C39.4723 28 40 28.4477 40 29C40 29.5523 39.4723 30 38.8214 30L35.1786 30C34.5277 30 34 29.5523 34 29C34 28.4477 34.5277 28 35.1786 28L38.8214 28Z" fill="#075D37"/>
<path d="M12.8214 19C13.4723 19 14 19.4477 14 20C14 20.5523 13.4723 21 12.8214 21L9.17857 21C8.52766 21 8 20.5523 8 20C8 19.4477 8.52766 19 9.17857 19L12.8214 19Z" fill="#075D37"/>
<path d="M12.8214 24C13.4723 24 14 24.4477 14 25C14 25.5523 13.4723 26 12.8214 26L9.17857 26C8.52766 26 8 25.5523 8 25C8 24.4477 8.52766 24 9.17857 24L12.8214 24Z" fill="#075D37"/>
<path d="M12.8214 28C13.4723 28 14 28.4477 14 29C14 29.5523 13.4723 30 12.8214 30L9.17857 30C8.52766 30 8 29.5523 8 29C8 28.4477 8.52766 28 9.17857 28L12.8214 28Z" fill="#075D37"/>
<path d="M21 21C21 21.5523 20.7761 22 20.5 22C20.2239 22 20 21.5523 20 21C20 20.4477 20.2239 20 20.5 20C20.7761 20 21 20.4477 21 21Z" fill="#075D37"/>
<path fill-rule="evenodd" clip-rule="evenodd" d="M19.0769 19.7568C18.958 19.7568 18.8615 19.8415 18.8615 19.9459V25.6216C18.8615 25.8306 18.6687 26 18.4308 26C18.1929 26 18 25.8306 18 25.6216V19.9459C18 19.4235 18.4822 19 19.0769 19H24.5692C24.8071 19 25 19.1694 25 19.3784C25 19.5874 24.8071 19.7568 24.5692 19.7568H19.0769Z" fill="#075D37"/>
<path d="M59 37.2555V5.11679H64.5386L70.2723 20.8346C70.6103 21.8548 71.0784 23.2887 71.6764 25.1363C72.3005 26.9562 72.7426 28.2522 73.0026 29.0243H73.1586C73.3146 28.5831 74.2507 25.8532 75.9669 20.8346L81.6226 5.11679H87.2392V37.2555H82.7927V21.5377C82.7927 19.4144 82.9617 16.1192 83.2998 11.6521H83.1438L81.1545 17.691L74.8358 35.2287H71.4034L65.0847 17.691L63.0565 11.6107H62.8614C63.2515 16.1054 63.4465 19.4144 63.4465 21.5377V37.2555H59Z" fill="#075D37"/>
<path d="M96.7173 25.5912C96.7173 28.3763 97.2764 30.4996 98.3945 31.9611C99.5126 33.4225 100.852 34.1533 102.412 34.1533C103.946 34.1533 105.272 33.4225 106.39 31.9611C107.535 30.4996 108.107 28.3763 108.107 25.5912C108.107 22.7786 107.535 20.6553 106.39 19.2214C105.272 17.7875 103.946 17.0706 102.412 17.0706C100.878 17.0706 99.5386 17.7875 98.3945 19.2214C97.2764 20.6553 96.7173 22.7786 96.7173 25.5912ZM92.3488 25.5912C92.3488 23.3301 92.6868 21.2895 93.3629 19.4696C94.065 17.6496 95.1961 16.1468 96.7563 14.9611C98.3165 13.7753 100.202 13.1825 102.412 13.1825C105.662 13.1825 108.146 14.382 109.862 16.781C111.604 19.1525 112.475 22.0892 112.475 25.5912C112.475 27.0251 112.306 28.4315 111.968 29.8102C111.63 31.1614 111.084 32.4712 110.33 33.7397C109.602 35.0081 108.549 36.0422 107.171 36.8418C105.818 37.614 104.232 38 102.412 38C100.592 38 99.0056 37.6277 97.6534 36.8832C96.3013 36.1111 95.2481 35.1046 94.4941 33.8637C93.766 32.5953 93.2199 31.2717 92.8559 29.8929C92.5178 28.5142 92.3488 27.0803 92.3488 25.5912Z" fill="#075D37"/>
<path d="M117.039 37.2555V4H121.29V17.0292C121.81 16.0089 122.59 15.1127 123.63 14.3406C124.671 13.5685 125.88 13.1825 127.258 13.1825C129.962 13.1825 132.185 14.2855 133.928 16.4915C135.696 18.6975 136.58 21.717 136.58 25.5499C136.58 27.7007 136.294 29.6172 135.722 31.2993C135.15 32.9538 134.396 34.2498 133.46 35.1873C132.549 36.1249 131.561 36.8281 130.495 37.2968C129.455 37.7656 128.389 38 127.297 38C125.919 38 124.684 37.6002 123.591 36.8005C122.499 36.0008 121.706 35.0357 121.212 33.9051V37.2555H117.039ZM121.212 25.5499C121.212 28.1971 121.719 30.2928 122.733 31.837C123.773 33.3812 125.087 34.1533 126.673 34.1533C128.285 34.1533 129.598 33.4088 130.612 31.9197C131.652 30.4031 132.172 28.2798 132.172 25.5499C132.172 22.9303 131.665 20.8621 130.651 19.3455C129.663 17.8289 128.337 17.0706 126.673 17.0706C125.061 17.0706 123.747 17.8427 122.733 19.3869C121.719 20.9311 121.212 22.9854 121.212 25.5499Z" fill="#075D37"/>
<path d="M141.182 9.87348V4.6618H145.98V9.87348H141.182ZM141.494 37.2555V13.927H145.746V37.2555H141.494Z" fill="#075D37"/>
<path d="M152.377 37.2555V4H156.667V37.2555H152.377Z" fill="#075D37"/>
<path d="M161.426 25.4672C161.426 21.7721 162.375 18.8078 164.273 16.5742C166.197 14.3131 168.629 13.1825 171.567 13.1825C174.505 13.1825 176.884 14.2993 178.705 16.5328C180.551 18.7664 181.474 21.648 181.474 25.1776C181.474 25.2328 181.435 25.8808 181.357 27.1217H165.755C165.755 29.0795 166.288 30.7616 167.354 32.1679C168.421 33.5742 169.903 34.2774 171.801 34.2774C173.075 34.2774 174.206 33.9465 175.194 33.2847C176.182 32.6229 176.936 31.768 177.457 30.7202L181.045 32.0024C180.343 33.7397 179.199 35.1736 177.613 36.3041C176.052 37.4347 174.102 38 171.762 38C168.694 38 166.197 36.8694 164.273 34.6083C162.375 32.3195 161.426 29.2725 161.426 25.4672ZM165.833 23.854H177.105C177.105 21.8962 176.611 20.2417 175.623 18.8905C174.635 17.5393 173.283 16.8637 171.567 16.8637C169.825 16.8637 168.447 17.5531 167.432 18.9319C166.418 20.3106 165.885 21.9513 165.833 23.854Z" fill="#075D37"/>
<path d="M184.399 25.5499C184.399 21.717 185.27 18.6975 187.013 16.4915C188.781 14.2855 191.017 13.1825 193.721 13.1825C195.1 13.1825 196.309 13.5685 197.349 14.3406C198.389 15.1127 199.156 15.9951 199.65 16.9878V4H203.941V37.2555H199.767V33.8637C199.273 35.0219 198.48 36.0008 197.388 36.8005C196.322 37.6002 195.1 38 193.721 38C192.577 38 191.472 37.7656 190.406 37.2968C189.366 36.8281 188.378 36.1249 187.442 35.1873C186.532 34.2498 185.79 32.9538 185.218 31.2993C184.672 29.6172 184.399 27.7007 184.399 25.5499ZM188.768 25.5499C188.768 28.2247 189.275 30.3341 190.289 31.8783C191.329 33.395 192.668 34.1533 194.306 34.1533C195.867 34.1533 197.154 33.3812 198.168 31.837C199.208 30.2928 199.728 28.1971 199.728 25.5499C199.728 22.9854 199.221 20.9311 198.207 19.3869C197.193 17.8427 195.893 17.0706 194.306 17.0706C192.59 17.0706 191.238 17.8427 190.25 19.3869C189.262 20.9311 188.768 22.9854 188.768 25.5499Z" fill="#075D37"/>
<path d="M212.873 25.5912C212.873 28.3763 213.432 30.4996 214.55 31.9611C215.668 33.4225 217.007 34.1533 218.567 34.1533C220.101 34.1533 221.428 33.4225 222.546 31.9611C223.69 30.4996 224.262 28.3763 224.262 25.5912C224.262 22.7786 223.69 20.6553 222.546 19.2214C221.428 17.7875 220.101 17.0706 218.567 17.0706C217.033 17.0706 215.694 17.7875 214.55 19.2214C213.432 20.6553 212.873 22.7786 212.873 25.5912ZM208.504 25.5912C208.504 23.3301 208.842 21.2895 209.518 19.4696C210.22 17.6496 211.351 16.1468 212.912 14.9611C214.472 13.7753 216.357 13.1825 218.567 13.1825C221.818 13.1825 224.301 14.382 226.017 16.781C227.759 19.1525 228.63 22.0892 228.63 25.5912C228.63 27.0251 228.461 28.4315 228.123 29.8102C227.785 31.1614 227.239 32.4712 226.485 33.7397C225.757 35.0081 224.704 36.0422 223.326 36.8418C221.974 37.614 220.387 38 218.567 38C216.747 38 215.161 37.6277 213.809 36.8832C212.457 36.1111 211.403 35.1046 210.649 33.8637C209.921 32.5953 209.375 31.2717 209.011 29.8929C208.673 28.5142 208.504 27.0803 208.504 25.5912Z" fill="#075D37"/>
<path d="M233.233 37.2555V4H237.523V23.9781L245.87 13.927H251.331L243.335 23.3577L251.994 37.2555H246.884L240.566 26.5426L237.523 30.1411V37.2555H233.233Z" fill="#075D37"/>
<path d="M257.416 30.8856C257.416 31.8232 257.767 32.6091 258.469 33.2433C259.197 33.8775 260.172 34.1946 261.394 34.1946C263.058 34.1946 264.475 33.6294 265.646 32.4988C266.816 31.3406 267.401 29.8378 267.401 27.9903V25.4672C266.205 25.7705 264.632 26.0876 262.681 26.4185C260.913 26.7218 259.587 27.232 258.703 27.9489C257.845 28.6659 257.416 29.6448 257.416 30.8856ZM253.047 31.2579C253.047 26.9011 256.155 24.2125 262.369 23.1922C264.944 22.7786 266.621 22.4339 267.401 22.1582V20.8759C267.401 19.635 266.972 18.6561 266.114 17.9392C265.282 17.1946 264.15 16.8224 262.72 16.8224C260.198 16.8224 258.053 17.9116 256.285 20.09L253.632 17.691C254.75 16.2847 256.09 15.1817 257.65 14.382C259.236 13.5823 260.9 13.1825 262.642 13.1825C268.675 13.1825 271.691 16.326 271.691 22.6131V37.2555H267.518V34.0292C267.076 35.1046 266.244 36.0422 265.022 36.8418C263.799 37.614 262.382 38 260.77 38C258.378 38 256.493 37.3796 255.114 36.1387C253.736 34.8702 253.047 33.2433 253.047 31.2579Z" fill="#075D37"/>
<path d="M280.038 30.8856C280.038 31.8232 280.389 32.6091 281.091 33.2433C281.819 33.8775 282.795 34.1946 284.017 34.1946C285.681 34.1946 287.098 33.6294 288.268 32.4988C289.438 31.3406 290.023 29.8378 290.023 27.9903V25.4672C288.827 25.7705 287.254 26.0876 285.304 26.4185C283.536 26.7218 282.21 27.232 281.325 27.9489C280.467 28.6659 280.038 29.6448 280.038 30.8856ZM275.67 31.2579C275.67 26.9011 278.777 24.2125 284.992 23.1922C287.566 22.7786 289.243 22.4339 290.023 22.1582V20.8759C290.023 19.635 289.594 18.6561 288.736 17.9392C287.904 17.1946 286.773 16.8224 285.343 16.8224C282.821 16.8224 280.675 17.9116 278.907 20.09L276.255 17.691C277.373 16.2847 278.712 15.1817 280.272 14.382C281.858 13.5823 283.523 13.1825 285.265 13.1825C291.298 13.1825 294.314 16.326 294.314 22.6131V37.2555H290.14V34.0292C289.698 35.1046 288.866 36.0422 287.644 36.8418C286.422 37.614 285.005 38 283.393 38C281 38 279.115 37.3796 277.737 36.1387C276.359 34.8702 275.67 33.2433 275.67 31.2579Z" fill="#075D37"/>
<path d="M299.697 37.2555V13.927H303.87V17.1946H303.909C304.247 16.2571 304.975 15.3609 306.093 14.5061C307.237 13.6237 308.642 13.1825 310.306 13.1825C312.438 13.1825 314.154 13.8856 315.454 15.292C316.754 16.6983 317.405 19.0146 317.405 22.2409V37.2555H313.114V22.8613C313.114 19.0008 311.853 17.0706 309.331 17.0706C307.848 17.0706 306.587 17.7186 305.547 19.0146C304.533 20.283 304.026 21.8273 304.026 23.6472V37.2555H299.697Z" fill="#075D37"/>
<path d="M323.645 37.2555V5.11679H335.035C338.181 5.11679 340.534 5.8751 342.094 7.39173C343.681 8.88078 344.474 10.9213 344.474 13.5134C344.474 16.6569 343.16 18.9181 340.534 20.2968C341.912 20.7932 343.095 21.717 344.084 23.0681C345.072 24.4193 345.566 26.0738 345.566 28.0316C345.566 30.6237 344.76 32.8159 343.147 34.6083C341.561 36.3731 339.351 37.2555 336.517 37.2555H323.645ZM328.092 33.2019H335.659C337.141 33.2019 338.389 32.7607 339.403 31.8783C340.443 30.9684 340.963 29.6999 340.963 28.073C340.963 26.5564 340.482 25.2879 339.52 24.2676C338.558 23.2198 337.232 22.6959 335.542 22.6959H328.092V33.2019ZM328.092 18.7251H334.527C336.088 18.7251 337.362 18.3252 338.35 17.5255C339.364 16.6983 339.871 15.485 339.871 13.8856C339.871 12.4517 339.455 11.3074 338.623 10.4526C337.791 9.59773 336.478 9.17032 334.684 9.17032H328.092V18.7251Z" fill="#075D37"/>
<path d="M351.026 37.2555V5.11679H359.763C364.288 5.11679 367.785 6.49554 370.256 9.25304C372.752 12.0105 374 15.9951 374 21.2068C374 23.4955 373.727 25.5912 373.181 27.4939C372.635 29.369 371.803 31.0511 370.685 32.5401C369.592 34.0292 368.11 35.1873 366.238 36.0146C364.366 36.8418 362.182 37.2555 359.685 37.2555H351.026ZM355.473 33.2433H359.178C365.965 33.2433 369.358 29.2311 369.358 21.2068C369.358 13.1549 365.991 9.12895 359.256 9.12895H355.473V33.2433Z" fill="#075D37"/>
<path d="M81.5284 56.0858C81.294 54.9352 80.8965 53.8233 80.3359 52.7501C79.7754 51.6659 79.0568 50.6923 78.1803 49.8293C77.314 48.9553 76.2948 48.2638 75.1227 47.7549C73.9608 47.2459 72.6562 46.9915 71.2089 46.9915C68.9972 46.9915 67.0353 47.6221 65.323 48.8834C63.6209 50.1336 62.2858 51.9203 61.3175 54.2437C60.3595 56.556 59.8804 59.2943 59.8804 62.4585C59.8804 65.5895 60.3595 68.3167 61.3175 70.6401C62.2756 72.9635 63.6158 74.7613 65.3383 76.0337C67.0709 77.2949 69.0839 77.9256 71.3771 77.9256C73.4257 77.9256 75.2399 77.4111 76.8197 76.3822C78.4096 75.3532 79.648 73.8818 80.5347 71.9678C81.4214 70.0537 81.8545 67.7636 81.8342 65.0972L82.5068 65.4457H71.8663V63.5206H83.6993V65.4457C83.6993 68.444 83.1693 71.0273 82.1093 73.1958C81.0596 75.3532 79.6021 77.0128 77.7369 78.1745C75.882 79.3362 73.762 79.917 71.3771 79.917C68.6864 79.917 66.3371 79.1923 64.3293 77.743C62.3214 76.2937 60.7621 74.2635 59.6511 71.6524C58.5504 69.0303 58 65.9657 58 62.4585C58 59.8254 58.316 57.4356 58.9479 55.2892C59.5798 53.1429 60.4818 51.3063 61.6539 49.7795C62.8259 48.2417 64.2223 47.0634 65.8428 46.2447C67.4633 45.4149 69.252 45 71.2089 45C72.9823 45 74.5774 45.3208 75.9941 45.9625C77.4108 46.5932 78.6338 47.4451 79.6632 48.5183C80.7028 49.5804 81.5437 50.7697 82.1858 52.0863C82.8279 53.3918 83.2611 54.725 83.4853 56.0858H81.5284Z" fill="black"/>
<path d="M99.9582 79.9834C97.8383 79.9834 95.9935 79.4136 94.4239 78.2741C92.8543 77.1345 91.6415 75.5745 90.7853 73.5941C89.9292 71.6137 89.5011 69.3567 89.5011 66.8231C89.5011 64.2785 89.9292 62.0104 90.7853 60.019C91.6517 58.0275 92.839 56.4565 94.3475 55.3058C95.8559 54.1552 97.5784 53.5799 99.5149 53.5799C100.83 53.5799 102.073 53.8676 103.245 54.4429C104.427 55.0071 105.467 55.8258 106.364 56.899C107.271 57.9722 107.979 59.2666 108.489 60.7824C109.009 62.2981 109.269 64.0019 109.269 65.8938V67.155H90.6783V65.3129H107.404C107.404 63.4653 107.057 61.8002 106.364 60.3177C105.671 58.8352 104.728 57.6569 103.536 56.7828C102.343 55.9088 101.003 55.4718 99.5149 55.4718C97.9555 55.4718 96.5642 55.9475 95.3412 56.899C94.1283 57.8394 93.1652 59.1117 92.4518 60.716C91.7485 62.3202 91.3816 64.1125 91.351 66.0929V66.9227C91.351 69.0469 91.6924 70.9554 92.3753 72.6482C93.0684 74.3299 94.057 75.663 95.3412 76.6477C96.6254 77.6213 98.1644 78.1081 99.9582 78.1081C101.242 78.1081 102.338 77.8758 103.245 77.4111C104.162 76.9354 104.912 76.36 105.493 75.6852C106.073 75.0103 106.512 74.3575 106.807 73.7269L108.504 74.4737C108.148 75.3256 107.592 76.1775 106.838 77.0294C106.094 77.8702 105.146 78.5728 103.994 79.137C102.853 79.7013 101.507 79.9834 99.9582 79.9834Z" fill="black"/>
<path d="M123.991 53.9616V55.7705H113.733V53.9616H123.991ZM117.203 47.8544H119.053V73.4282C119.053 74.4682 119.237 75.3201 119.603 75.9839C119.981 76.6366 120.47 77.1234 121.071 77.4443C121.683 77.7541 122.335 77.909 123.028 77.909C123.364 77.909 123.655 77.8813 123.899 77.826C124.154 77.7707 124.394 77.6987 124.618 77.6102L125.077 79.4523C124.791 79.563 124.475 79.657 124.129 79.7345C123.782 79.823 123.374 79.8672 122.906 79.8672C121.927 79.8672 121 79.6294 120.123 79.1536C119.257 78.6779 118.554 77.9864 118.013 77.0792C117.473 76.172 117.203 75.0767 117.203 73.7933V47.8544Z" fill="black"/>
<path d="M143.675 79.4523V45.4647H145.586V77.5273H160.874V79.4523H143.675Z" fill="black"/>
<path d="M173.456 80C172.1 80 170.857 79.7068 169.725 79.1204C168.604 78.5341 167.702 77.6766 167.019 76.5481C166.347 75.4196 166.01 74.0477 166.01 72.4324C166.01 71.3703 166.184 70.4354 166.53 69.6278C166.877 68.8201 167.412 68.1231 168.136 67.5367C168.859 66.9504 169.787 66.4691 170.918 66.0929C172.049 65.7057 173.4 65.407 174.969 65.1968C176.162 65.0419 177.227 64.8925 178.165 64.7487C179.102 64.5938 179.836 64.3559 180.366 64.0351C180.906 63.7142 181.176 63.2274 181.176 62.5747V61.5126C181.176 59.6539 180.636 58.1769 179.556 57.0816C178.475 55.9862 176.987 55.4386 175.092 55.4386C173.41 55.4386 171.993 55.8424 170.842 56.6501C169.7 57.4467 168.9 58.4756 168.441 59.7368L166.683 59.0232C167.132 57.8062 167.779 56.7939 168.625 55.9862C169.481 55.1786 170.459 54.5756 171.56 54.1773C172.671 53.779 173.833 53.5799 175.046 53.5799C176.096 53.5799 177.094 53.7403 178.042 54.0612C179 54.382 179.851 54.8688 180.595 55.5216C181.35 56.1743 181.946 57.0096 182.384 58.0275C182.822 59.0343 183.041 60.2402 183.041 61.6453V79.4523H181.176V74.8554H181.039C180.631 75.8069 180.07 76.6754 179.357 77.4609C178.654 78.2353 177.803 78.8549 176.804 79.3196C175.815 79.7732 174.699 80 173.456 80ZM173.639 78.1247C175.107 78.1247 176.406 77.7375 177.538 76.963C178.679 76.1775 179.571 75.1043 180.213 73.7435C180.855 72.3826 181.176 70.8393 181.176 69.1133V65.3627C180.942 65.584 180.6 65.7832 180.152 65.9602C179.714 66.1261 179.214 66.2755 178.654 66.4082C178.103 66.53 177.522 66.6406 176.911 66.7402C176.31 66.8287 175.724 66.9116 175.153 66.9891C173.44 67.2104 172.044 67.5533 170.964 68.018C169.894 68.4716 169.109 69.0691 168.609 69.8103C168.12 70.5516 167.876 71.4478 167.876 72.4988C167.876 74.2358 168.426 75.6077 169.527 76.6145C170.627 77.6213 171.998 78.1247 173.639 78.1247Z" fill="black"/>
<path d="M199.163 53.9616V55.7705H188.904V53.9616H199.163ZM192.375 47.8544H194.225V73.4282C194.225 74.4682 194.408 75.3201 194.775 75.9839C195.152 76.6366 195.641 77.1234 196.243 77.4443C196.854 77.7541 197.507 77.909 198.2 77.909C198.536 77.909 198.826 77.8813 199.071 77.826C199.326 77.7707 199.565 77.6987 199.79 77.6102L200.248 79.4523C199.963 79.563 199.647 79.657 199.3 79.7345C198.954 79.823 198.546 79.8672 198.077 79.8672C197.099 79.8672 196.171 79.6294 195.295 79.1536C194.429 78.6779 193.725 77.9864 193.185 77.0792C192.645 76.172 192.375 75.0767 192.375 73.7933V47.8544Z" fill="black"/>
<path d="M214.986 79.9834C212.866 79.9834 211.021 79.4136 209.452 78.2741C207.882 77.1345 206.669 75.5745 205.813 73.5941C204.957 71.6137 204.529 69.3567 204.529 66.8231C204.529 64.2785 204.957 62.0104 205.813 60.019C206.679 58.0275 207.867 56.4565 209.375 55.3058C210.884 54.1552 212.606 53.5799 214.543 53.5799C215.857 53.5799 217.101 53.8676 218.273 54.4429C219.455 55.0071 220.495 55.8258 221.392 56.899C222.299 57.9722 223.007 59.2666 223.517 60.7824C224.036 62.2981 224.296 64.0019 224.296 65.8938V67.155H205.706V65.3129H222.431C222.431 63.4653 222.085 61.8002 221.392 60.3177C220.699 58.8352 219.756 57.6569 218.563 56.7828C217.371 55.9088 216.031 55.4718 214.543 55.4718C212.983 55.4718 211.592 55.9475 210.369 56.899C209.156 57.8394 208.193 59.1117 207.479 60.716C206.776 62.3202 206.409 64.1125 206.379 66.0929V66.9227C206.379 69.0469 206.72 70.9554 207.403 72.6482C208.096 74.3299 209.085 75.663 210.369 76.6477C211.653 77.6213 213.192 78.1081 214.986 78.1081C216.27 78.1081 217.366 77.8758 218.273 77.4111C219.19 76.9354 219.939 76.36 220.52 75.6852C221.101 75.0103 221.539 74.3575 221.835 73.7269L223.532 74.4737C223.175 75.3256 222.62 76.1775 221.866 77.0294C221.122 77.8702 220.174 78.5728 219.022 79.137C217.88 79.7013 216.535 79.9834 214.986 79.9834Z" fill="black"/>
<path d="M245.639 59.4547L243.911 59.9526C243.636 59.0232 243.243 58.2211 242.734 57.5462C242.224 56.8713 241.582 56.3514 240.808 55.9862C240.043 55.6101 239.126 55.422 238.056 55.422C236.333 55.422 234.922 55.8867 233.821 56.816C232.73 57.7454 232.185 58.9569 232.185 60.4504C232.185 61.6675 232.557 62.6743 233.301 63.4708C234.045 64.2564 235.182 64.8538 236.71 65.2632L240.318 66.2423C242.173 66.7402 243.57 67.5478 244.507 68.6652C245.445 69.7716 245.914 71.149 245.914 72.7975C245.914 74.2026 245.562 75.4473 244.859 76.5315C244.156 77.6158 243.182 78.4621 241.939 79.0706C240.706 79.6792 239.269 79.9834 237.628 79.9834C235.436 79.9834 233.637 79.4302 232.231 78.3238C230.824 77.2064 229.922 75.6077 229.525 73.5277L231.314 73.0299C231.65 74.6894 232.348 75.9562 233.408 76.8303C234.478 77.6932 235.88 78.1247 237.612 78.1247C239.528 78.1247 241.073 77.6324 242.245 76.6477C243.427 75.663 244.018 74.4018 244.018 72.8639C244.018 71.6912 243.672 70.701 242.978 69.8933C242.285 69.0857 241.236 68.4938 239.829 68.1176L236.084 67.1219C234.167 66.6129 232.73 65.7997 231.772 64.6823C230.814 63.5538 230.335 62.1653 230.335 60.5168C230.335 59.1449 230.666 57.939 231.329 56.899C231.991 55.859 232.904 55.0458 234.065 54.4595C235.227 53.8731 236.557 53.5799 238.056 53.5799C240.043 53.5799 241.664 54.0888 242.917 55.1067C244.171 56.1245 245.078 57.5739 245.639 59.4547Z" fill="black"/>
<path d="M260.671 53.9616V55.7705H250.412V53.9616H260.671ZM253.883 47.8544H255.733V73.4282C255.733 74.4682 255.916 75.3201 256.283 75.9839C256.66 76.6366 257.149 77.1234 257.751 77.4443C258.362 77.7541 259.014 77.909 259.707 77.909C260.044 77.909 260.334 77.8813 260.579 77.826C260.834 77.7707 261.073 77.6987 261.297 77.6102L261.756 79.4523C261.471 79.563 261.155 79.657 260.808 79.7345C260.462 79.823 260.054 79.8672 259.585 79.8672C258.607 79.8672 257.679 79.6294 256.803 79.1536C255.936 78.6779 255.233 77.9864 254.693 77.0792C254.153 76.172 253.883 75.0767 253.883 73.7933V47.8544Z" fill="black"/>
<path d="M280.354 79.4523V45.4647H290.001C291.988 45.4647 293.69 45.9072 295.107 46.7923C296.534 47.6774 297.63 48.8889 298.394 50.4267C299.158 51.9646 299.541 53.7182 299.541 55.6875C299.541 57.6347 299.158 59.3773 298.394 60.9151C297.63 62.453 296.534 63.67 295.107 64.5661C293.69 65.4512 291.993 65.8938 290.016 65.8938H281.699V63.9687H289.97C291.581 63.9687 292.957 63.6147 294.098 62.9066C295.24 62.1874 296.116 61.2083 296.728 59.9692C297.339 58.719 297.645 57.2918 297.645 55.6875C297.645 54.0722 297.339 52.6395 296.728 51.3893C296.116 50.1391 295.234 49.1599 294.083 48.4519C292.941 47.7438 291.565 47.3898 289.955 47.3898H282.265V79.4523H280.354Z" fill="black"/>
<path d="M306.225 79.4523V53.9616H308.045V57.9445H308.213C308.722 56.639 309.584 55.5935 310.797 54.808C312.009 54.0114 313.39 53.6131 314.94 53.6131C315.103 53.6131 315.266 53.6131 315.429 53.6131C315.592 53.6131 315.745 53.6186 315.887 53.6297V55.6709C315.765 55.6599 315.617 55.6433 315.444 55.6211C315.281 55.588 315.077 55.5714 314.833 55.5714C313.528 55.5714 312.366 55.8756 311.347 56.4841C310.338 57.0926 309.543 57.9335 308.962 59.0066C308.381 60.0688 308.091 61.2858 308.091 62.6577V79.4523H306.225Z" fill="black"/>
<path d="M320.99 79.4523V53.9616H322.84V79.4523H320.99ZM321.922 49.4476C321.515 49.4476 321.158 49.2927 320.852 48.9829C320.557 48.6731 320.409 48.297 320.409 47.8544C320.409 47.4119 320.557 47.0357 320.852 46.7259C321.148 46.4162 321.505 46.2613 321.922 46.2613C322.33 46.2613 322.682 46.4162 322.977 46.7259C323.283 47.0357 323.436 47.4119 323.436 47.8544C323.436 48.297 323.288 48.6731 322.993 48.9829C322.697 49.2927 322.34 49.4476 321.922 49.4476Z" fill="black"/>
<path d="M339.458 79.9834C337.46 79.9834 335.702 79.4136 334.183 78.2741C332.665 77.1234 331.477 75.5524 330.621 73.5609C329.775 71.5695 329.352 69.3125 329.352 66.7899C329.352 64.2674 329.781 62.0104 330.637 60.019C331.493 58.0275 332.68 56.4565 334.199 55.3058C335.717 54.1552 337.465 53.5799 339.443 53.5799C340.931 53.5799 342.286 53.9118 343.509 54.5756C344.742 55.2394 345.762 56.1633 346.567 57.3471C347.382 58.5309 347.902 59.9028 348.126 61.4628H346.231C345.925 59.7368 345.16 58.3096 343.937 57.1811C342.724 56.0416 341.231 55.4718 339.458 55.4718C337.868 55.4718 336.451 55.9586 335.208 56.9322C333.964 57.8947 332.986 59.2279 332.272 60.9317C331.559 62.6245 331.202 64.5661 331.202 66.7568C331.202 68.9142 331.549 70.8503 332.242 72.5652C332.935 74.269 333.903 75.6188 335.147 76.6145C336.39 77.6102 337.827 78.1081 339.458 78.1081C340.61 78.1081 341.659 77.8592 342.607 77.3613C343.565 76.8634 344.365 76.1554 345.007 75.2371C345.65 74.3188 346.073 73.2456 346.276 72.0175H348.172C347.948 73.5886 347.438 74.9715 346.643 76.1664C345.848 77.3613 344.834 78.2962 343.601 78.9711C342.368 79.646 340.987 79.9834 339.458 79.9834Z" fill="black"/>
<path d="M363.69 79.9834C361.57 79.9834 359.725 79.4136 358.155 78.2741C356.586 77.1345 355.373 75.5745 354.517 73.5941C353.661 71.6137 353.232 69.3567 353.232 66.8231C353.232 64.2785 353.661 62.0104 354.517 60.019C355.383 58.0275 356.57 56.4565 358.079 55.3058C359.587 54.1552 361.31 53.5799 363.246 53.5799C364.561 53.5799 365.804 53.8676 366.976 54.4429C368.159 55.0071 369.198 55.8258 370.095 56.899C371.002 57.9722 371.711 59.2666 372.22 60.7824C372.74 62.2981 373 64.0019 373 65.8938V67.155H354.41V65.3129H371.135C371.135 63.4653 370.788 61.8002 370.095 60.3177C369.402 58.8352 368.459 57.6569 367.267 56.7828C366.074 55.9088 364.734 55.4718 363.246 55.4718C361.687 55.4718 360.296 55.9475 359.073 56.899C357.86 57.8394 356.897 59.1117 356.183 60.716C355.48 62.3202 355.113 64.1125 355.082 66.0929V66.9227C355.082 69.0469 355.424 70.9554 356.107 72.6482C356.8 74.3299 357.788 75.663 359.073 76.6477C360.357 77.6213 361.896 78.1081 363.69 78.1081C364.974 78.1081 366.069 77.8758 366.976 77.4111C367.894 76.9354 368.643 76.36 369.224 75.6852C369.805 75.0103 370.243 74.3575 370.539 73.7269L372.236 74.4737C371.879 75.3256 371.323 76.1775 370.569 77.0294C369.825 77.8702 368.877 78.5728 367.726 79.137C366.584 79.7013 365.239 79.9834 363.69 79.9834Z" fill="black"/>
</svg>
