<svg width="489" height="85" viewBox="0 0 489 85" fill="none" xmlns="http://www.w3.org/2000/svg">
<path fill-rule="evenodd" clip-rule="evenodd" d="M45.93 3.05024H6.07004C4.39384 3.05024 3.03502 4.41588 3.03502 6.10048V78.8995C3.03502 80.5841 4.39384 81.9498 6.07004 81.9498H45.93C47.6062 81.9498 48.965 80.5841 48.965 78.8995V6.10048C48.965 4.41588 47.6062 3.05024 45.93 3.05024ZM6.07004 0C2.71765 0 0 2.73128 0 6.10048V78.8995C0 82.2687 2.71765 85 6.07004 85H45.93C49.2823 85 52 82.2687 52 78.8995V6.10048C52 2.73128 49.2823 0 45.93 0H6.07004Z" fill="#075D37"/>
<path d="M18 76.5C18 75.1193 18.8844 74 19.9753 74H32.0247C33.1156 74 34 75.1193 34 76.5C34 77.8807 33.1156 79 32.0247 79H19.9753C18.8844 79 18 77.8807 18 76.5Z" fill="#075D37"/>
<path fill-rule="evenodd" clip-rule="evenodd" d="M30.0652 17.9565H17.9348C17.3945 17.9565 16.9565 18.3945 16.9565 18.9348V31.0652C16.9565 31.6055 17.3945 32.0435 17.9348 32.0435H30.0652C30.6055 32.0435 31.0435 31.6055 31.0435 31.0652V18.9348C31.0435 18.3945 30.6055 17.9565 30.0652 17.9565ZM17.9348 16C16.3139 16 15 17.3139 15 18.9348V31.0652C15 32.6861 16.3139 34 17.9348 34H30.0652C31.6861 34 33 32.6861 33 31.0652V18.9348C33 17.3139 31.6861 16 30.0652 16H17.9348Z" fill="#075D37"/>
<path d="M19 36.9821C19 36.4397 19.4477 36 20 36C20.5523 36 21 36.4397 21 36.9821V40.0179C21 40.5603 20.5523 41 20 41C19.4477 41 19 40.5603 19 40.0179V36.9821Z" fill="#075D37"/>
<path d="M23 36.9821C23 36.4397 23.4477 36 24 36C24.5523 36 25 36.4397 25 36.9821V40.0179C25 40.5603 24.5523 41 24 41C23.4477 41 23 40.5603 23 40.0179V36.9821Z" fill="#075D37"/>
<path d="M27 36.9821C27 36.4397 27.6716 36 28.5 36C29.3284 36 30 36.4397 30 36.9821V40.0179C30 40.5603 29.3284 41 28.5 41C27.6716 41 27 40.5603 27 40.0179V36.9821Z" fill="#075D37"/>
<path d="M19 10.1786C19 9.52766 19.4477 9 20 9C20.5523 9 21 9.52766 21 10.1786V13.8214C21 14.4723 20.5523 15 20 15C19.4477 15 19 14.4723 19 13.8214V10.1786Z" fill="#075D37"/>
<path d="M23 10.1786C23 9.52766 23.4477 9 24 9C24.5523 9 25 9.52766 25 10.1786V13.8214C25 14.4723 24.5523 15 24 15C23.4477 15 23 14.4723 23 13.8214V10.1786Z" fill="#075D37"/>
<path d="M27 10.1786C27 9.52766 27.6716 9 28.5 9C29.3284 9 30 9.52766 30 10.1786V13.8214C30 14.4723 29.3284 15 28.5 15C27.6716 15 27 14.4723 27 13.8214V10.1786Z" fill="#075D37"/>
<path d="M38.8214 19C39.4723 19 40 19.4477 40 20C40 20.5523 39.4723 21 38.8214 21L35.1786 21C34.5277 21 34 20.5523 34 20C34 19.4477 34.5277 19 35.1786 19L38.8214 19Z" fill="#075D37"/>
<path d="M38.8214 24C39.4723 24 40 24.4477 40 25C40 25.5523 39.4723 26 38.8214 26L35.1786 26C34.5277 26 34 25.5523 34 25C34 24.4477 34.5277 24 35.1786 24L38.8214 24Z" fill="#075D37"/>
<path d="M38.8214 28C39.4723 28 40 28.4477 40 29C40 29.5523 39.4723 30 38.8214 30L35.1786 30C34.5277 30 34 29.5523 34 29C34 28.4477 34.5277 28 35.1786 28L38.8214 28Z" fill="#075D37"/>
<path d="M12.8214 19C13.4723 19 14 19.4477 14 20C14 20.5523 13.4723 21 12.8214 21L9.17857 21C8.52766 21 8 20.5523 8 20C8 19.4477 8.52766 19 9.17857 19L12.8214 19Z" fill="#075D37"/>
<path d="M12.8214 24C13.4723 24 14 24.4477 14 25C14 25.5523 13.4723 26 12.8214 26L9.17857 26C8.52766 26 8 25.5523 8 25C8 24.4477 8.52766 24 9.17857 24L12.8214 24Z" fill="#075D37"/>
<path d="M12.8214 28C13.4723 28 14 28.4477 14 29C14 29.5523 13.4723 30 12.8214 30L9.17857 30C8.52766 30 8 29.5523 8 29C8 28.4477 8.52766 28 9.17857 28L12.8214 28Z" fill="#075D37"/>
<path d="M21 21C21 21.5523 20.7761 22 20.5 22C20.2239 22 20 21.5523 20 21C20 20.4477 20.2239 20 20.5 20C20.7761 20 21 20.4477 21 21Z" fill="#075D37"/>
<path fill-rule="evenodd" clip-rule="evenodd" d="M19.0769 19.7568C18.958 19.7568 18.8615 19.8415 18.8615 19.9459V25.6216C18.8615 25.8306 18.6687 26 18.4308 26C18.1929 26 18 25.8306 18 25.6216V19.9459C18 19.4235 18.4822 19 19.0769 19H24.5692C24.8071 19 25 19.1694 25 19.3784C25 19.5874 24.8071 19.7568 24.5692 19.7568H19.0769Z" fill="#075D37"/>
<path d="M463.651 70C461.236 70 459.349 69.1895 457.989 67.5686C456.663 65.9038 456 63.6038 456 60.6686V33.1343C456 30.2867 456.646 28.0524 457.938 26.4314C459.23 24.8105 461.032 24 463.345 24H470.485C474.294 24 477.575 24.9419 480.329 26.8257C483.117 28.6657 485.26 31.3162 486.756 34.7771C488.252 38.2381 489 42.3343 489 47.0657C489 51.7971 488.252 55.8933 486.756 59.3543C485.294 62.7714 483.168 65.4 480.38 67.24C477.592 69.08 474.294 70 470.485 70H463.651ZM469.975 64.1514C474.328 64.1514 477.592 62.7276 479.768 59.88C481.978 56.9886 483.083 52.7171 483.083 47.0657C483.083 41.4143 481.978 37.1429 479.768 34.2514C477.558 31.3162 474.294 29.8486 469.975 29.8486H464.161C463.413 29.8486 462.835 30.1552 462.427 30.7686C462.019 31.3819 461.815 32.2143 461.815 33.2657V60.7343C461.815 61.7857 462.019 62.6181 462.427 63.2314C462.835 63.8448 463.413 64.1514 464.161 64.1514H469.975Z" fill="#075D37"/>
<path d="M425.476 70C423.117 70 421.273 69.1895 419.944 67.5686C418.648 65.9038 418 63.6038 418 60.6686V33.1343C418 30.2867 418.631 28.0524 419.894 26.4314C421.156 24.8105 422.917 24 425.177 24H436.789C440.477 24 443.335 25.0952 445.362 27.2857C447.389 29.4324 448.402 32.521 448.402 36.5514C448.402 38.6543 447.953 40.56 447.056 42.2686C446.159 43.9771 444.963 45.2695 443.468 46.1457V46.2771C445.129 47.1095 446.458 48.4238 447.455 50.22C448.485 52.0162 449 54.0095 449 56.2C449 60.4933 447.97 63.8667 445.91 66.32C443.85 68.7733 441.009 70 437.387 70H425.476ZM436.939 43.5171C438.7 43.5171 440.095 42.9038 441.125 41.6771C442.155 40.4505 442.67 38.7638 442.67 36.6171C442.67 32.1048 440.71 29.8486 436.789 29.8486H425.924C425.193 29.8486 424.612 30.1552 424.18 30.7686C423.781 31.3819 423.582 32.2143 423.582 33.2657V43.5171H436.939ZM436.939 64.1514C441.159 64.1514 443.268 61.5448 443.268 56.3314C443.268 54.0971 442.704 52.3667 441.574 51.14C440.444 49.8695 438.899 49.2343 436.939 49.2343H423.582V60.7343C423.582 61.7857 423.781 62.6181 424.18 63.2314C424.612 63.8448 425.193 64.1514 425.924 64.1514H436.939Z" fill="#075D37"/>
<path d="M383.507 69.5C380.641 69.5 378.141 69 376.007 68C373.907 66.9667 372.291 65.5 371.157 63.6C370.057 61.7 369.507 59.45 369.507 56.85C369.507 52.8167 370.707 49.6667 373.107 47.4C375.507 45.1333 378.841 44 383.107 44C385.741 44 388.074 44.4167 390.107 45.25C392.141 46.0833 393.724 47.25 394.857 48.75C395.991 50.2167 396.557 51.9 396.557 53.8C396.557 55.3333 396.091 56.5167 395.157 57.35C394.224 58.1833 392.907 58.6 391.207 58.6H375.007C375.007 60.6667 375.741 62.2667 377.207 63.4C378.674 64.5333 380.774 65.1 383.507 65.1C385.074 65.1 386.457 64.9333 387.657 64.6C388.857 64.2667 389.974 63.7333 391.007 63C391.974 62.3667 392.707 62.05 393.207 62.05C393.641 62.05 394.091 62.2833 394.557 62.75C395.091 63.25 395.357 63.8 395.357 64.4C395.357 65.0333 395.074 65.5667 394.507 66C391.707 68.3333 388.041 69.5 383.507 69.5ZM389.507 54.55C390.074 54.55 390.491 54.4333 390.757 54.2C391.024 53.9667 391.157 53.5667 391.157 53C391.157 51.6333 390.424 50.5333 388.957 49.7C387.491 48.8333 385.541 48.4 383.107 48.4C380.641 48.4 378.691 48.9667 377.257 50.1C375.824 51.2 375.107 52.6833 375.107 54.55H389.507Z" fill="#075D37"/>
<path d="M352.073 69.5C347.773 69.5 344.39 68.3667 341.923 66.1C339.457 63.8333 338.223 60.7 338.223 56.7C338.223 52.7667 339.457 49.6667 341.923 47.4C344.39 45.1333 347.773 44 352.073 44C354.473 44 356.623 44.3833 358.523 45.15C360.423 45.9167 361.923 47 363.023 48.4C363.39 48.8667 363.573 49.3333 363.573 49.8C363.573 50.5667 363.173 51.2333 362.373 51.8C362.007 52.0667 361.59 52.2 361.123 52.2C360.19 52.2 359.39 51.8333 358.723 51.1C357.957 50.2667 357.007 49.6333 355.873 49.2C354.74 48.7333 353.473 48.5 352.073 48.5C349.473 48.5 347.457 49.2167 346.023 50.65C344.59 52.0833 343.873 54.1 343.873 56.7C343.873 59.3333 344.59 61.3833 346.023 62.85C347.457 64.2833 349.473 65 352.073 65C354.973 65 357.39 64.0667 359.323 62.2C360.123 61.4 360.907 61 361.673 61C362.24 61 362.723 61.1833 363.123 61.55C363.823 62.0833 364.173 62.7333 364.173 63.5C364.173 64.0667 363.957 64.55 363.523 64.95C361.957 66.5167 360.24 67.6667 358.373 68.4C356.54 69.1333 354.44 69.5 352.073 69.5Z" fill="#075D37"/>
<path d="M328.379 40.6C327.313 40.6 326.429 40.3 325.729 39.7C325.063 39.0667 324.729 38.2667 324.729 37.3C324.729 36.3333 325.063 35.55 325.729 34.95C326.429 34.3167 327.313 34 328.379 34C329.446 34 330.329 34.3167 331.029 34.95C331.729 35.55 332.079 36.3333 332.079 37.3C332.079 38.2667 331.729 39.0667 331.029 39.7C330.329 40.3 329.446 40.6 328.379 40.6ZM328.379 69.95C327.513 69.95 326.829 69.7167 326.329 69.25C325.863 68.7833 325.629 68.1333 325.629 67.3V47.1C325.629 46.2667 325.863 45.6167 326.329 45.15C326.829 44.6833 327.513 44.45 328.379 44.45C329.246 44.45 329.929 44.6833 330.429 45.15C330.963 45.6167 331.229 46.2667 331.229 47.1V67.3C331.229 68.1333 330.963 68.7833 330.429 69.25C329.929 69.7167 329.246 69.95 328.379 69.95Z" fill="#075D37"/>
<path d="M305.473 69.5C304.606 69.5 303.923 69.2667 303.423 68.8C302.923 68.3333 302.673 67.6833 302.673 66.85V46.65C302.673 45.8167 302.906 45.1667 303.373 44.7C303.873 44.2333 304.539 44 305.373 44C306.239 44 306.906 44.2333 307.373 44.7C307.873 45.1667 308.123 45.8167 308.123 46.65V48.75C310.289 45.9167 313.139 44.5 316.673 44.5H317.823C318.723 44.5 319.423 44.7 319.923 45.1C320.456 45.5 320.723 46.05 320.723 46.75C320.723 47.4833 320.456 48.05 319.923 48.45C319.423 48.8167 318.723 49 317.823 49H316.223C313.789 49 311.856 49.75 310.423 51.25C308.989 52.7167 308.273 54.7333 308.273 57.3V66.85C308.273 67.65 308.006 68.3 307.473 68.8C306.973 69.2667 306.306 69.5 305.473 69.5Z" fill="#075D37"/>
<path d="M267.823 70C266.949 70 266.26 69.6977 265.756 69.093C265.252 68.4883 265 67.646 265 66.5662V33.0056C265 30.1981 265.638 27.9953 266.915 26.3972C268.192 24.7991 269.973 24 272.259 24H280.828C285.801 24 289.565 25.339 292.119 28.0169C294.706 30.6948 296 34.6469 296 39.8732C296 45.0131 294.723 48.9221 292.169 51.6C289.649 54.2347 285.952 55.5521 281.08 55.5521H270.746V66.5662C270.746 67.6028 270.478 68.4451 269.94 69.093C269.402 69.6977 268.696 70 267.823 70ZM281.029 49.7211C287.145 49.7211 290.203 46.4385 290.203 39.8732C290.203 36.4178 289.43 33.8695 287.885 32.2282C286.372 30.5869 284.104 29.7662 281.08 29.7662H273.065C272.326 29.7662 271.754 30.0685 271.351 30.6732C270.948 31.2779 270.746 32.0986 270.746 33.1352V49.7211H281.029Z" fill="#075D37"/>
<path d="M230.709 69.5C227.842 69.5 225.342 69 223.209 68C221.109 66.9667 219.492 65.5 218.359 63.6C217.259 61.7 216.709 59.45 216.709 56.85C216.709 52.8167 217.909 49.6667 220.309 47.4C222.709 45.1333 226.042 44 230.309 44C232.942 44 235.275 44.4167 237.309 45.25C239.342 46.0833 240.925 47.25 242.059 48.75C243.192 50.2167 243.759 51.9 243.759 53.8C243.759 55.3333 243.292 56.5167 242.359 57.35C241.425 58.1833 240.109 58.6 238.409 58.6H222.209C222.209 60.6667 222.942 62.2667 224.409 63.4C225.875 64.5333 227.975 65.1 230.709 65.1C232.275 65.1 233.659 64.9333 234.859 64.6C236.059 64.2667 237.175 63.7333 238.209 63C239.175 62.3667 239.909 62.05 240.409 62.05C240.842 62.05 241.292 62.2833 241.759 62.75C242.292 63.25 242.559 63.8 242.559 64.4C242.559 65.0333 242.275 65.5667 241.709 66C238.909 68.3333 235.242 69.5 230.709 69.5ZM236.709 54.55C237.275 54.55 237.692 54.4333 237.959 54.2C238.225 53.9667 238.359 53.5667 238.359 53C238.359 51.6333 237.625 50.5333 236.159 49.7C234.692 48.8333 232.742 48.4 230.309 48.4C227.842 48.4 225.892 48.9667 224.459 50.1C223.025 51.2 222.309 52.6833 222.309 54.55H236.709Z" fill="#075D37"/>
<path d="M206.82 70.45C205.954 70.45 205.27 70.2167 204.77 69.75C204.27 69.2833 204.02 68.6333 204.02 67.8V34.65C204.02 33.8167 204.27 33.1667 204.77 32.7C205.27 32.2333 205.954 32 206.82 32C207.687 32 208.37 32.2333 208.87 32.7C209.37 33.1667 209.62 33.8167 209.62 34.65V67.8C209.62 68.6 209.354 69.25 208.82 69.75C208.32 70.2167 207.654 70.45 206.82 70.45Z" fill="#075D37"/>
<path d="M192.426 40.6C191.36 40.6 190.476 40.3 189.776 39.7C189.11 39.0667 188.776 38.2667 188.776 37.3C188.776 36.3333 189.11 35.55 189.776 34.95C190.476 34.3167 191.36 34 192.426 34C193.493 34 194.376 34.3167 195.076 34.95C195.776 35.55 196.126 36.3333 196.126 37.3C196.126 38.2667 195.776 39.0667 195.076 39.7C194.376 40.3 193.493 40.6 192.426 40.6ZM192.426 69.95C191.56 69.95 190.876 69.7167 190.376 69.25C189.91 68.7833 189.676 68.1333 189.676 67.3V47.1C189.676 46.2667 189.91 45.6167 190.376 45.15C190.876 44.6833 191.56 44.45 192.426 44.45C193.293 44.45 193.976 44.6833 194.476 45.15C195.01 45.6167 195.276 46.2667 195.276 47.1V67.3C195.276 68.1333 195.01 68.7833 194.476 69.25C193.976 69.7167 193.293 69.95 192.426 69.95Z" fill="#075D37"/>
<path d="M156.725 70.45C155.859 70.45 155.175 70.2167 154.675 69.75C154.209 69.2833 153.975 68.6333 153.975 67.8V34.65C153.975 33.8167 154.209 33.1667 154.675 32.7C155.175 32.2333 155.859 32 156.725 32C157.592 32 158.275 32.2333 158.775 32.7C159.275 33.1667 159.525 33.8167 159.525 34.65L159.575 49.25C160.842 47.85 162.309 46.7833 163.975 46.05C165.642 45.3167 167.459 44.95 169.425 44.95C173.559 44.95 176.792 46.0833 179.125 48.35C181.492 50.6167 182.675 53.7333 182.675 57.7C182.675 61.7333 181.509 64.8667 179.175 67.1C176.842 69.3333 173.559 70.45 169.325 70.45C167.292 70.45 165.492 70.1 163.925 69.4C162.359 68.7 160.892 67.5833 159.525 66.05V67.8C159.525 68.6 159.275 69.25 158.775 69.75C158.275 70.2167 157.592 70.45 156.725 70.45ZM168.575 65.95C171.275 65.95 173.359 65.2333 174.825 63.8C176.292 62.3667 177.025 60.3333 177.025 57.7C177.025 55.1333 176.275 53.1167 174.775 51.65C173.275 50.1833 171.209 49.45 168.575 49.45C165.809 49.45 163.609 50.2 161.975 51.7C160.342 53.1667 159.525 55.1667 159.525 57.7C159.525 60.2667 160.325 62.2833 161.925 63.75C163.525 65.2167 165.742 65.95 168.575 65.95Z" fill="#075D37"/>
<path d="M133.315 69.5C130.415 69.5 127.865 68.9667 125.665 67.9C123.465 66.8 121.765 65.2833 120.565 63.35C119.399 61.4167 118.815 59.2167 118.815 56.75C118.815 54.2833 119.399 52.0833 120.565 50.15C121.765 48.2167 123.465 46.7167 125.665 45.65C127.865 44.55 130.415 44 133.315 44C136.215 44 138.765 44.55 140.965 45.65C143.165 46.7167 144.849 48.2167 146.015 50.15C147.215 52.0833 147.815 54.2833 147.815 56.75C147.815 59.2167 147.215 61.4167 146.015 63.35C144.849 65.2833 143.165 66.8 140.965 67.9C138.765 68.9667 136.215 69.5 133.315 69.5ZM133.315 65C136.015 65 138.165 64.2667 139.765 62.8C141.365 61.3333 142.165 59.3167 142.165 56.75C142.165 54.1833 141.365 52.1667 139.765 50.7C138.165 49.2333 136.015 48.5 133.315 48.5C130.582 48.5 128.415 49.2333 126.815 50.7C125.249 52.1667 124.465 54.1833 124.465 56.75C124.465 59.3167 125.249 61.3333 126.815 62.8C128.415 64.2667 130.582 65 133.315 65Z" fill="#075D37"/>
<path d="M71.8401 70C70.9764 70 70.2789 69.6954 69.7474 69.0861C69.2491 68.4769 69 67.6282 69 66.5403V38.7319C69 33.8144 70.063 29.963 72.1889 27.1778C74.348 24.3926 77.2878 23 81.0081 23C82.9015 23 84.6786 23.631 86.3395 24.8931C88.0336 26.1551 89.4121 27.8958 90.4751 30.1153C91.538 27.8523 92.9 26.1116 94.5608 24.8931C96.2217 23.631 98.0487 23 100.042 23C103.795 23 106.718 24.3926 108.811 27.1778C110.937 29.963 112 33.8144 112 38.7319V66.5403C112 67.5847 111.734 68.4333 111.203 69.0861C110.705 69.6954 110.024 70 109.16 70C108.296 70 107.599 69.6954 107.067 69.0861C106.569 68.4769 106.32 67.6282 106.32 66.5403V38.7319C106.32 35.381 105.805 32.9222 104.775 31.3556C103.779 29.7889 102.134 29.0056 99.8424 29.0056C97.7497 29.0056 96.1387 29.8542 95.0093 31.5514C93.8799 33.2486 93.3152 35.6421 93.3152 38.7319V66.5403C93.3152 67.6282 93.0494 68.4769 92.518 69.0861C92.0197 69.6954 91.3387 70 90.4751 70C89.6114 70 88.9305 69.6954 88.4322 69.0861C87.9672 68.4769 87.7346 67.6282 87.7346 66.5403V38.7319C87.7346 35.6856 87.1533 33.3139 85.9907 31.6167C84.8281 29.8759 83.2337 29.0056 81.2074 29.0056C78.8822 29.0056 77.2047 29.7889 76.175 31.3556C75.1784 32.9222 74.6802 35.381 74.6802 38.7319V66.5403C74.6802 67.5847 74.4144 68.4333 73.883 69.0861C73.3847 69.6954 72.7037 70 71.8401 70Z" fill="#075D37"/>
</svg>
