<svg xmlns="http://www.w3.org/2000/svg" width="374" height="85" viewBox="0 0 374 85" fill="none">
  <path fill-rule="evenodd" clip-rule="evenodd" d="M45.93 3.05024H6.07004C4.39384 3.05024 3.03502 4.41588 3.03502 6.10048V78.8995C3.03502 80.5841 4.39384 81.9498 6.07004 81.9498H45.93C47.6062 81.9498 48.965 80.5841 48.965 78.8995V6.10048C48.965 4.41588 47.6062 3.05024 45.93 3.05024ZM6.07004 0C2.71765 0 0 2.73128 0 6.10048V78.8995C0 82.2687 2.71765 85 6.07004 85H45.93C49.2823 85 52 82.2687 52 78.8995V6.10048C52 2.73128 49.2823 0 45.93 0H6.07004Z" fill="#075D37"/>
  <path d="M18 76.5C18 75.1193 18.8844 74 19.9753 74H32.0247C33.1156 74 34 75.1193 34 76.5C34 77.8807 33.1156 79 32.0247 79H19.9753C18.8844 79 18 77.8807 18 76.5Z" fill="#075D37"/>
  <path fill-rule="evenodd" clip-rule="evenodd" d="M30.0652 17.9565H17.9348C17.3945 17.9565 16.9565 18.3945 16.9565 18.9348V31.0652C16.9565 31.6055 17.3945 32.0435 17.9348 32.0435H30.0652C30.6055 32.0435 31.0435 31.6055 31.0435 31.0652V18.9348C31.0435 18.3945 30.6055 17.9565 30.0652 17.9565ZM17.9348 16C16.3139 16 15 17.3139 15 18.9348V31.0652C15 32.6861 16.3139 34 17.9348 34H30.0652C31.6861 34 33 32.6861 33 31.0652V18.9348C33 17.3139 31.6861 16 30.0652 16H17.9348Z" fill="#075D37"/>
  <path d="M19 36.9821C19 36.4397 19.4477 36 20 36C20.5523 36 21 36.4397 21 36.9821V40.0179C21 40.5603 20.5523 41 20 41C19.4477 41 19 40.5603 19 40.0179V36.9821Z" fill="#075D37"/>
  <path d="M23 36.9821C23 36.4397 23.4477 36 24 36C24.5523 36 25 36.4397 25 36.9821V40.0179C25 40.5603 24.5523 41 24 41C23.4477 41 23 40.5603 23 40.0179V36.9821Z" fill="#075D37"/>
  <path d="M27 36.9821C27 36.4397 27.6716 36 28.5 36C29.3284 36 30 36.4397 30 36.9821V40.0179C30 40.5603 29.3284 41 28.5 41C27.6716 41 27 40.5603 27 40.0179V36.9821Z" fill="#075D37"/>
  <path d="M19 10.1786C19 9.52766 19.4477 9 20 9C20.5523 9 21 9.52766 21 10.1786V13.8214C21 14.4723 20.5523 15 20 15C19.4477 15 19 14.4723 19 13.8214V10.1786Z" fill="#075D37"/>
  <path d="M23 10.1786C23 9.52766 23.4477 9 24 9C24.5523 9 25 9.52766 25 10.1786V13.8214C25 14.4723 24.5523 15 24 15C23.4477 15 23 14.4723 23 13.8214V10.1786Z" fill="#075D37"/>
  <path d="M27 10.1786C27 9.52766 27.6716 9 28.5 9C29.3284 9 30 9.52766 30 10.1786V13.8214C30 14.4723 29.3284 15 28.5 15C27.6716 15 27 14.4723 27 13.8214V10.1786Z" fill="#075D37"/>
  <path d="M38.8214 19C39.4723 19 40 19.4477 40 20C40 20.5523 39.4723 21 38.8214 21H35.1786C34.5277 21 34 20.5523 34 20C34 19.4477 34.5277 19 35.1786 19H38.8214Z" fill="#075D37"/>
  <path d="M38.8214 24C39.4723 24 40 24.4477 40 25C40 25.5523 39.4723 26 38.8214 26H35.1786C34.5277 26 34 25.5523 34 25C34 24.4477 34.5277 24 35.1786 24H38.8214Z" fill="#075D37"/>
  <path d="M38.8214 28C39.4723 28 40 28.4477 40 29C40 29.5523 39.4723 30 38.8214 30H35.1786C34.5277 30 34 29.5523 34 29C34 28.4477 34.5277 28 35.1786 28H38.8214Z" fill="#075D37"/>
  <path d="M12.8214 19C13.4723 19 14 19.4477 14 20C14 20.5523 13.4723 21 12.8214 21H9.17857C8.52766 21 8 20.5523 8 20C8 19.4477 8.52767 19 9.17857 19H12.8214Z" fill="#075D37"/>
  <path d="M12.8214 24C13.4723 24 14 24.4477 14 25C14 25.5523 13.4723 26 12.8214 26H9.17857C8.52766 26 8 25.5523 8 25C8 24.4477 8.52767 24 9.17857 24H12.8214Z" fill="#075D37"/>
  <path d="M12.8214 28C13.4723 28 14 28.4477 14 29C14 29.5523 13.4723 30 12.8214 30H9.17857C8.52766 30 8 29.5523 8 29C8 28.4477 8.52767 28 9.17857 28H12.8214Z" fill="#075D37"/>
  <path d="M21 21C21 21.5523 20.7761 22 20.5 22C20.2239 22 20 21.5523 20 21C20 20.4477 20.2239 20 20.5 20C20.7761 20 21 20.4477 21 21Z" fill="#075D37"/>
  <path fill-rule="evenodd" clip-rule="evenodd" d="M19.0769 19.7568C18.958 19.7568 18.8615 19.8415 18.8615 19.9459V25.6216C18.8615 25.8306 18.6687 26 18.4308 26C18.1929 26 18 25.8306 18 25.6216V19.9459C18 19.4235 18.4822 19 19.0769 19H24.5692C24.8071 19 25 19.1694 25 19.3784C25 19.5874 24.8071 19.7568 24.5692 19.7568H19.0769Z" fill="#075D37"/>
  <path d="M59 37.2555V5.11679H64.5386L70.2723 20.8346C70.6103 21.8548 71.0784 23.2887 71.6765 25.1363C72.3005 26.9562 72.7426 28.2522 73.0026 29.0243H73.1586C73.3146 28.5831 74.2507 25.8532 75.9669 20.8346L81.6226 5.11679H87.2392V37.2555H82.7927V21.5377C82.7927 19.4144 82.9617 16.1192 83.2998 11.6521H83.1438L81.1545 17.691L74.8358 35.2287H71.4034L65.0847 17.691L63.0565 11.6107H62.8614C63.2515 16.1054 63.4465 19.4144 63.4465 21.5377V37.2555H59Z" fill="#075D37"/>
  <path d="M96.7173 25.5912C96.7173 28.3763 97.2764 30.4996 98.3945 31.9611C99.5126 33.4225 100.852 34.1533 102.412 34.1533C103.946 34.1533 105.272 33.4225 106.39 31.9611C107.535 30.4996 108.107 28.3763 108.107 25.5912C108.107 22.7786 107.535 20.6553 106.39 19.2214C105.272 17.7875 103.946 17.0706 102.412 17.0706C100.878 17.0706 99.5386 17.7875 98.3945 19.2214C97.2764 20.6553 96.7173 22.7786 96.7173 25.5912ZM92.3488 25.5912C92.3488 23.3301 92.6869 21.2895 93.3629 19.4696C94.065 17.6496 95.1961 16.1468 96.7563 14.9611C98.3165 13.7753 100.202 13.1825 102.412 13.1825C105.662 13.1825 108.146 14.382 109.862 16.781C111.604 19.1525 112.475 22.0892 112.475 25.5912C112.475 27.0251 112.306 28.4315 111.968 29.8102C111.63 31.1614 111.084 32.4712 110.33 33.7397C109.602 35.0081 108.549 36.0422 107.171 36.8419C105.818 37.6139 104.232 38 102.412 38C100.592 38 99.0056 37.6277 97.6534 36.8832C96.3013 36.1111 95.2481 35.1046 94.4941 33.8637C93.766 32.5953 93.2199 31.2717 92.8559 29.8929C92.5178 28.5142 92.3488 27.0803 92.3488 25.5912Z" fill="#075D37"/>
  <path d="M117.039 37.2555V4H121.29V17.0292C121.81 16.0089 122.59 15.1127 123.63 14.3406C124.671 13.5685 125.88 13.1825 127.258 13.1825C129.962 13.1825 132.185 14.2855 133.928 16.4915C135.696 18.6975 136.58 21.717 136.58 25.5499C136.58 27.7007 136.294 29.6172 135.722 31.2993C135.15 32.9538 134.396 34.2498 133.46 35.1873C132.549 36.1249 131.561 36.8281 130.495 37.2968C129.455 37.7656 128.389 38 127.297 38C125.919 38 124.684 37.6002 123.591 36.8005C122.499 36.0008 121.706 35.0357 121.212 33.9051V37.2555H117.039ZM121.212 25.5499C121.212 28.1971 121.719 30.2928 122.733 31.837C123.773 33.3812 125.087 34.1533 126.673 34.1533C128.285 34.1533 129.598 33.4088 130.612 31.9197C131.652 30.4031 132.172 28.2798 132.172 25.5499C132.172 22.9303 131.665 20.8621 130.651 19.3455C129.663 17.8289 128.337 17.0706 126.673 17.0706C125.061 17.0706 123.747 17.8427 122.733 19.3869C121.719 20.9311 121.212 22.9854 121.212 25.5499Z" fill="#075D37"/>
  <path d="M141.182 9.87348V4.6618H145.98V9.87348H141.182ZM141.494 37.2555V13.927H145.746V37.2555H141.494Z" fill="#075D37"/>
  <path d="M152.377 37.2555V4H156.667V37.2555H152.377Z" fill="#075D37"/>
  <path d="M161.426 25.4672C161.426 21.7721 162.375 18.8078 164.273 16.5742C166.197 14.3131 168.629 13.1825 171.567 13.1825C174.505 13.1825 176.884 14.2993 178.705 16.5328C180.551 18.7664 181.474 21.648 181.474 25.1776C181.474 25.2328 181.435 25.8808 181.357 27.1217H165.755C165.755 29.0795 166.288 30.7616 167.354 32.1679C168.421 33.5742 169.903 34.2774 171.801 34.2774C173.075 34.2774 174.206 33.9465 175.194 33.2847C176.182 32.6229 176.936 31.768 177.457 30.7202L181.045 32.0024C180.343 33.7397 179.199 35.1736 177.613 36.3041C176.052 37.4347 174.102 38 171.762 38C168.694 38 166.197 36.8694 164.273 34.6083C162.375 32.3195 161.426 29.2725 161.426 25.4672ZM165.833 23.854H177.105C177.105 21.8962 176.611 20.2417 175.623 18.8905C174.635 17.5393 173.283 16.8637 171.567 16.8637C169.825 16.8637 168.447 17.5531 167.432 18.9319C166.418 20.3106 165.885 21.9513 165.833 23.854Z" fill="#075D37"/>
  <path d="M184.399 25.5499C184.399 21.717 185.27 18.6975 187.013 16.4915C188.781 14.2855 191.017 13.1825 193.721 13.1825C195.1 13.1825 196.309 13.5685 197.349 14.3406C198.389 15.1127 199.156 15.9951 199.65 16.9878V4H203.941V37.2555H199.767V33.8637C199.273 35.0219 198.48 36.0008 197.388 36.8005C196.322 37.6002 195.1 38 193.721 38C192.577 38 191.472 37.7656 190.406 37.2968C189.366 36.8281 188.378 36.1249 187.442 35.1873C186.532 34.2498 185.79 32.9538 185.218 31.2993C184.672 29.6172 184.399 27.7007 184.399 25.5499ZM188.768 25.5499C188.768 28.2247 189.275 30.3341 190.289 31.8783C191.329 33.395 192.668 34.1533 194.306 34.1533C195.867 34.1533 197.154 33.3812 198.168 31.837C199.208 30.2928 199.728 28.1971 199.728 25.5499C199.728 22.9854 199.221 20.9311 198.207 19.3869C197.193 17.8427 195.893 17.0706 194.306 17.0706C192.59 17.0706 191.238 17.8427 190.25 19.3869C189.262 20.9311 188.768 22.9854 188.768 25.5499Z" fill="#075D37"/>
  <path d="M212.873 25.5912C212.873 28.3763 213.432 30.4996 214.55 31.9611C215.668 33.4225 217.007 34.1533 218.567 34.1533C220.101 34.1533 221.428 33.4225 222.546 31.9611C223.69 30.4996 224.262 28.3763 224.262 25.5912C224.262 22.7786 223.69 20.6553 222.546 19.2214C221.428 17.7875 220.101 17.0706 218.567 17.0706C217.033 17.0706 215.694 17.7875 214.55 19.2214C213.432 20.6553 212.873 22.7786 212.873 25.5912ZM208.504 25.5912C208.504 23.3301 208.842 21.2895 209.518 19.4696C210.22 17.6496 211.351 16.1468 212.912 14.9611C214.472 13.7753 216.357 13.1825 218.567 13.1825C221.818 13.1825 224.301 14.382 226.017 16.781C227.759 19.1525 228.63 22.0892 228.63 25.5912C228.63 27.0251 228.461 28.4315 228.123 29.8102C227.785 31.1614 227.239 32.4712 226.485 33.7397C225.757 35.0081 224.704 36.0422 223.326 36.8419C221.974 37.6139 220.387 38 218.567 38C216.747 38 215.161 37.6277 213.809 36.8832C212.457 36.1111 211.403 35.1046 210.649 33.8637C209.921 32.5953 209.375 31.2717 209.011 29.8929C208.673 28.5142 208.504 27.0803 208.504 25.5912Z" fill="#075D37"/>
  <path d="M233.233 37.2555V4H237.523V23.9781L245.87 13.927H251.331L243.335 23.3577L251.994 37.2555H246.884L240.566 26.5426L237.523 30.1411V37.2555H233.233Z" fill="#075D37"/>
  <path d="M257.416 30.8856C257.416 31.8232 257.767 32.6091 258.469 33.2433C259.197 33.8775 260.172 34.1946 261.394 34.1946C263.058 34.1946 264.475 33.6294 265.646 32.4988C266.816 31.3406 267.401 29.8378 267.401 27.9903V25.4672C266.205 25.7705 264.632 26.0876 262.681 26.4185C260.913 26.7218 259.587 27.232 258.703 27.9489C257.845 28.6659 257.416 29.6448 257.416 30.8856ZM253.047 31.2579C253.047 26.9011 256.155 24.2125 262.369 23.1922C264.944 22.7786 266.621 22.4339 267.401 22.1582V20.8759C267.401 19.635 266.972 18.6561 266.114 17.9392C265.282 17.1946 264.15 16.8224 262.72 16.8224C260.198 16.8224 258.053 17.9116 256.285 20.09L253.632 17.691C254.75 16.2847 256.09 15.1817 257.65 14.382C259.236 13.5823 260.9 13.1825 262.642 13.1825C268.675 13.1825 271.691 16.326 271.691 22.6131V37.2555H267.518V34.0292C267.076 35.1046 266.244 36.0422 265.022 36.8419C263.799 37.6139 262.382 38 260.77 38C258.378 38 256.493 37.3796 255.114 36.1387C253.736 34.8702 253.047 33.2433 253.047 31.2579Z" fill="#075D37"/>
  <path d="M280.038 30.8856C280.038 31.8232 280.389 32.6091 281.091 33.2433C281.819 33.8775 282.795 34.1946 284.017 34.1946C285.681 34.1946 287.098 33.6294 288.268 32.4988C289.438 31.3406 290.023 29.8378 290.023 27.9903V25.4672C288.827 25.7705 287.254 26.0876 285.304 26.4185C283.536 26.7218 282.21 27.232 281.325 27.9489C280.467 28.6659 280.038 29.6448 280.038 30.8856ZM275.67 31.2579C275.67 26.9011 278.777 24.2125 284.992 23.1922C287.566 22.7786 289.243 22.4339 290.023 22.1582V20.8759C290.023 19.635 289.594 18.6561 288.736 17.9392C287.904 17.1946 286.773 16.8224 285.343 16.8224C282.821 16.8224 280.675 17.9116 278.907 20.09L276.255 17.691C277.373 16.2847 278.712 15.1817 280.272 14.382C281.858 13.5823 283.523 13.1825 285.265 13.1825C291.298 13.1825 294.314 16.326 294.314 22.6131V37.2555H290.14V34.0292C289.698 35.1046 288.866 36.0422 287.644 36.8419C286.422 37.6139 285.005 38 283.393 38C281 38 279.115 37.3796 277.737 36.1387C276.359 34.8702 275.67 33.2433 275.67 31.2579Z" fill="#075D37"/>
  <path d="M299.697 37.2555V13.927H303.87V17.1946H303.909C304.247 16.2571 304.975 15.3609 306.093 14.5061C307.237 13.6237 308.642 13.1825 310.306 13.1825C312.438 13.1825 314.154 13.8856 315.454 15.292C316.754 16.6983 317.405 19.0146 317.405 22.2409V37.2555H313.114V22.8613C313.114 19.0008 311.853 17.0706 309.331 17.0706C307.848 17.0706 306.587 17.7186 305.547 19.0146C304.533 20.2831 304.026 21.8273 304.026 23.6472V37.2555H299.697Z" fill="#075D37"/>
  <path d="M323.645 37.2555V5.11679H335.035C338.181 5.11679 340.534 5.8751 342.094 7.39173C343.681 8.88078 344.474 10.9213 344.474 13.5134C344.474 16.6569 343.16 18.9181 340.534 20.2968C341.912 20.7932 343.095 21.717 344.084 23.0681C345.072 24.4193 345.566 26.0738 345.566 28.0316C345.566 30.6237 344.76 32.8159 343.147 34.6083C341.561 36.3731 339.351 37.2555 336.517 37.2555H323.645ZM328.092 33.202H335.659C337.141 33.202 338.389 32.7607 339.403 31.8783C340.443 30.9684 340.963 29.6999 340.963 28.073C340.963 26.5564 340.482 25.2879 339.52 24.2676C338.558 23.2198 337.232 22.6959 335.542 22.6959H328.092V33.202ZM328.092 18.7251H334.527C336.088 18.7251 337.362 18.3252 338.35 17.5255C339.364 16.6983 339.871 15.485 339.871 13.8856C339.871 12.4517 339.455 11.3074 338.623 10.4526C337.791 9.59773 336.478 9.17032 334.684 9.17032H328.092V18.7251Z" fill="#075D37"/>
  <path d="M351.026 37.2555V5.11679H359.763C364.288 5.11679 367.785 6.49554 370.256 9.25304C372.752 12.0105 374 15.9951 374 21.2068C374 23.4955 373.727 25.5912 373.181 27.4939C372.635 29.369 371.803 31.0511 370.685 32.5401C369.592 34.0292 368.11 35.1873 366.238 36.0146C364.366 36.8419 362.182 37.2555 359.685 37.2555H351.026ZM355.473 33.2433H359.178C365.965 33.2433 369.358 29.2311 369.358 21.2068C369.358 13.1549 365.991 9.12895 359.256 9.12895H355.473V33.2433Z" fill="#075D37"/>
  <path d="M81.5284 56.0858C81.294 54.9352 80.8965 53.8233 80.3359 52.7501C79.7754 51.6659 79.0568 50.6923 78.1803 49.8293C77.314 48.9553 76.2948 48.2638 75.1227 47.7549C73.9608 47.2459 72.6562 46.9915 71.2089 46.9915C68.9972 46.9915 67.0353 47.6221 65.323 48.8834C63.6209 50.1336 62.2858 51.9203 61.3175 54.2437C60.3595 56.556 59.8804 59.2943 59.8804 62.4585C59.8804 65.5895 60.3595 68.3167 61.3175 70.6401C62.2756 72.9635 63.6158 74.7613 65.3383 76.0337C67.0709 77.2949 69.0839 77.9256 71.3771 77.9256C73.4257 77.9256 75.2399 77.4111 76.8197 76.3822C78.4096 75.3532 79.648 73.8818 80.5347 71.9678C81.4214 70.0537 81.8545 67.7635 81.8342 65.0972L82.5068 65.4457H71.8663V63.5206H83.6993V65.4457C83.6993 68.444 83.1693 71.0273 82.1093 73.1958C81.0596 75.3533 79.6021 77.0128 77.7369 78.1745C75.882 79.3362 73.762 79.917 71.3771 79.917C68.6864 79.917 66.3371 79.1923 64.3293 77.743C62.3214 76.2937 60.7621 74.2635 59.6511 71.6524C58.5504 69.0303 58 65.9657 58 62.4585C58 59.8254 58.316 57.4356 58.9479 55.2892C59.5798 53.1429 60.4818 51.3063 61.6539 49.7795C62.8259 48.2417 64.2223 47.0634 65.8428 46.2447C67.4633 45.4149 69.252 45 71.2089 45C72.9823 45 74.5774 45.3208 75.9941 45.9625C77.4108 46.5932 78.6339 47.4451 79.6633 48.5183C80.7028 49.5804 81.5437 50.7697 82.1858 52.0863C82.8279 53.3918 83.261 54.725 83.4853 56.0858H81.5284Z" fill="black"/>
  <path d="M99.9582 79.9834C97.8383 79.9834 95.9935 79.4136 94.4239 78.2741C92.8543 77.1345 91.6415 75.5745 90.7853 73.5941C89.9292 71.6137 89.5011 69.3567 89.5011 66.8231C89.5011 64.2785 89.9292 62.0104 90.7853 60.019C91.6517 58.0275 92.839 56.4565 94.3475 55.3058C95.8559 54.1552 97.5784 53.5799 99.5149 53.5799C100.83 53.5799 102.073 53.8675 103.245 54.4429C104.427 55.0071 105.467 55.8258 106.364 56.899C107.271 57.9722 107.979 59.2666 108.489 60.7824C109.009 62.2981 109.269 64.0019 109.269 65.8938V67.1551H90.6783V65.3129H107.404C107.404 63.4653 107.057 61.8002 106.364 60.3177C105.671 58.8351 104.728 57.6569 103.536 56.7828C102.343 55.9088 101.003 55.4718 99.5149 55.4718C97.9555 55.4718 96.5643 55.9475 95.3412 56.899C94.1283 57.8394 93.1652 59.1117 92.4518 60.716C91.7485 62.3202 91.3816 64.1125 91.351 66.0929V66.9227C91.351 69.0469 91.6924 70.9554 92.3753 72.6482C93.0684 74.3299 94.057 75.663 95.3412 76.6477C96.6254 77.6213 98.1644 78.1081 99.9582 78.1081C101.242 78.1081 102.338 77.8758 103.245 77.4111C104.162 76.9354 104.912 76.36 105.493 75.6852C106.073 75.0103 106.512 74.3575 106.807 73.7269L108.504 74.4737C108.148 75.3256 107.592 76.1775 106.838 77.0294C106.094 77.8702 105.146 78.5728 103.994 79.137C102.853 79.7013 101.507 79.9834 99.9582 79.9834Z" fill="black"/>
  <path d="M123.991 53.9616V55.7705H113.733V53.9616H123.991ZM117.203 47.8544H119.053V73.4282C119.053 74.4681 119.237 75.3201 119.603 75.9839C119.981 76.6366 120.47 77.1234 121.071 77.4443C121.683 77.7541 122.335 77.909 123.028 77.909C123.364 77.909 123.655 77.8813 123.899 77.826C124.154 77.7707 124.394 77.6988 124.618 77.6102L125.077 79.4523C124.791 79.563 124.475 79.657 124.129 79.7345C123.782 79.823 123.374 79.8672 122.906 79.8672C121.927 79.8672 121 79.6294 120.123 79.1536C119.257 78.6779 118.554 77.9864 118.013 77.0792C117.473 76.172 117.203 75.0767 117.203 73.7933V47.8544Z" fill="black"/>
  <path d="M143.675 79.4523V45.4647H145.586V77.5273H160.874V79.4523H143.675Z" fill="black"/>
  <path d="M173.456 80C172.1 80 170.857 79.7068 169.725 79.1204C168.604 78.5341 167.702 77.6766 167.02 76.5481C166.347 75.4196 166.01 74.0477 166.01 72.4324C166.01 71.3703 166.184 70.4354 166.53 69.6278C166.877 68.8201 167.412 68.1231 168.136 67.5367C168.859 66.9504 169.787 66.4691 170.918 66.0929C172.049 65.7057 173.4 65.407 174.969 65.1968C176.162 65.0419 177.227 64.8925 178.165 64.7487C179.102 64.5938 179.836 64.3559 180.366 64.0351C180.906 63.7142 181.176 63.2274 181.176 62.5747V61.5126C181.176 59.6539 180.636 58.1769 179.556 57.0816C178.475 55.9862 176.987 55.4386 175.092 55.4386C173.41 55.4386 171.993 55.8424 170.842 56.6501C169.7 57.4467 168.9 58.4756 168.441 59.7368L166.683 59.0232C167.132 57.8062 167.779 56.7939 168.625 55.9862C169.481 55.1786 170.459 54.5756 171.56 54.1773C172.671 53.779 173.833 53.5799 175.046 53.5799C176.096 53.5799 177.094 53.7403 178.042 54.0612C179 54.382 179.851 54.8688 180.595 55.5216C181.35 56.1743 181.946 57.0096 182.384 58.0275C182.822 59.0343 183.041 60.2402 183.041 61.6453V79.4523H181.176V74.8554H181.039C180.631 75.8069 180.07 76.6754 179.357 77.4609C178.654 78.2353 177.803 78.8549 176.804 79.3196C175.815 79.7732 174.699 80 173.456 80ZM173.639 78.1247C175.107 78.1247 176.406 77.7375 177.538 76.963C178.679 76.1775 179.571 75.1043 180.213 73.7435C180.855 72.3826 181.176 70.8393 181.176 69.1133V65.3627C180.942 65.584 180.6 65.7832 180.152 65.9602C179.714 66.1261 179.214 66.2755 178.654 66.4082C178.103 66.53 177.522 66.6406 176.911 66.7402C176.31 66.8287 175.724 66.9116 175.153 66.9891C173.44 67.2104 172.044 67.5533 170.964 68.018C169.894 68.4716 169.109 69.0691 168.609 69.8103C168.12 70.5516 167.876 71.4478 167.876 72.4988C167.876 74.2358 168.426 75.6077 169.527 76.6145C170.627 77.6213 171.998 78.1247 173.639 78.1247Z" fill="black"/>
  <path d="M199.163 53.9616V55.7705H188.904V53.9616H199.163ZM192.375 47.8544H194.225V73.4282C194.225 74.4681 194.408 75.3201 194.775 75.9839C195.152 76.6366 195.641 77.1234 196.243 77.4443C196.854 77.7541 197.507 77.909 198.2 77.909C198.536 77.909 198.826 77.8813 199.071 77.826C199.326 77.7707 199.565 77.6988 199.79 77.6102L200.248 79.4523C199.963 79.563 199.647 79.657 199.3 79.7345C198.954 79.823 198.546 79.8672 198.077 79.8672C197.099 79.8672 196.171 79.6294 195.295 79.1536C194.429 78.6779 193.725 77.9864 193.185 77.0792C192.645 76.172 192.375 75.0767 192.375 73.7933V47.8544Z" fill="black"/>
  <path d="M214.986 79.9834C212.866 79.9834 211.021 79.4136 209.452 78.2741C207.882 77.1345 206.669 75.5745 205.813 73.5941C204.957 71.6137 204.529 69.3567 204.529 66.8231C204.529 64.2785 204.957 62.0104 205.813 60.019C206.679 58.0275 207.867 56.4565 209.375 55.3058C210.884 54.1552 212.606 53.5799 214.543 53.5799C215.857 53.5799 217.101 53.8675 218.273 54.4429C219.455 55.0071 220.495 55.8258 221.392 56.899C222.299 57.9722 223.007 59.2666 223.517 60.7824C224.036 62.2981 224.296 64.0019 224.296 65.8938V67.1551H205.706V65.3129H222.431C222.431 63.4653 222.085 61.8002 221.392 60.3177C220.699 58.8351 219.756 57.6569 218.563 56.7828C217.371 55.9088 216.031 55.4718 214.543 55.4718C212.983 55.4718 211.592 55.9475 210.369 56.899C209.156 57.8394 208.193 59.1117 207.479 60.716C206.776 62.3202 206.409 64.1125 206.379 66.0929V66.9227C206.379 69.0469 206.72 70.9554 207.403 72.6482C208.096 74.3299 209.085 75.663 210.369 76.6477C211.653 77.6213 213.192 78.1081 214.986 78.1081C216.27 78.1081 217.366 77.8758 218.273 77.4111C219.19 76.9354 219.939 76.36 220.52 75.6852C221.101 75.0103 221.539 74.3575 221.835 73.7269L223.532 74.4737C223.175 75.3256 222.62 76.1775 221.866 77.0294C221.122 77.8702 220.174 78.5728 219.022 79.137C217.88 79.7013 216.535 79.9834 214.986 79.9834Z" fill="black"/>
  <path d="M245.639 59.4547L243.911 59.9526C243.636 59.0232 243.243 58.2211 242.734 57.5462C242.224 56.8713 241.582 56.3513 240.808 55.9862C240.043 55.6101 239.126 55.422 238.056 55.422C236.333 55.422 234.922 55.8867 233.821 56.816C232.73 57.7454 232.185 58.9569 232.185 60.4505C232.185 61.6675 232.557 62.6743 233.301 63.4708C234.045 64.2564 235.182 64.8538 236.71 65.2632L240.318 66.2423C242.173 66.7402 243.57 67.5478 244.507 68.6652C245.445 69.7716 245.914 71.149 245.914 72.7975C245.914 74.2026 245.562 75.4473 244.859 76.5315C244.156 77.6158 243.182 78.4621 241.939 79.0706C240.706 79.6791 239.269 79.9834 237.628 79.9834C235.436 79.9834 233.637 79.4302 232.231 78.3239C230.824 77.2064 229.922 75.6077 229.525 73.5277L231.314 73.0299C231.65 74.6894 232.348 75.9562 233.408 76.8302C234.478 77.6932 235.88 78.1247 237.612 78.1247C239.528 78.1247 241.073 77.6324 242.245 76.6477C243.427 75.663 244.018 74.4018 244.018 72.8639C244.018 71.6912 243.672 70.701 242.978 69.8933C242.285 69.0857 241.236 68.4938 239.829 68.1176L236.084 67.1219C234.167 66.6129 232.73 65.7997 231.772 64.6823C230.814 63.5538 230.335 62.1653 230.335 60.5168C230.335 59.1449 230.666 57.939 231.329 56.899C231.991 55.859 232.904 55.0458 234.065 54.4595C235.227 53.8731 236.557 53.5799 238.056 53.5799C240.043 53.5799 241.664 54.0888 242.917 55.1067C244.171 56.1245 245.078 57.5739 245.639 59.4547Z" fill="black"/>
  <path d="M260.671 53.9616V55.7705H250.412V53.9616H260.671ZM253.883 47.8544H255.733V73.4282C255.733 74.4681 255.916 75.3201 256.283 75.9839C256.66 76.6366 257.149 77.1234 257.751 77.4443C258.362 77.7541 259.014 77.909 259.707 77.909C260.044 77.909 260.334 77.8813 260.579 77.826C260.834 77.7707 261.073 77.6988 261.297 77.6102L261.756 79.4523C261.471 79.563 261.155 79.657 260.808 79.7345C260.462 79.823 260.054 79.8672 259.585 79.8672C258.607 79.8672 257.679 79.6294 256.803 79.1536C255.936 78.6779 255.233 77.9864 254.693 77.0792C254.153 76.172 253.883 75.0767 253.883 73.7933V47.8544Z" fill="black"/>
  <path d="M280.354 79.4523V45.4647H290.001C291.988 45.4647 293.69 45.9072 295.107 46.7923C296.534 47.6774 297.63 48.8889 298.394 50.4267C299.158 51.9646 299.541 53.7182 299.541 55.6875C299.541 57.6347 299.158 59.3773 298.394 60.9151C297.63 62.453 296.534 63.67 295.107 64.5661C293.69 65.4512 291.993 65.8938 290.016 65.8938H281.699V63.9687H289.97C291.581 63.9687 292.957 63.6147 294.098 62.9066C295.24 62.1875 296.116 61.2083 296.728 59.9692C297.339 58.719 297.645 57.2918 297.645 55.6875C297.645 54.0722 297.339 52.6395 296.728 51.3893C296.116 50.1391 295.234 49.16 294.083 48.4519C292.941 47.7438 291.565 47.3898 289.955 47.3898H282.265V79.4523H280.354Z" fill="black"/>
  <path d="M306.225 79.4523V53.9616H308.045V57.9445H308.213C308.722 56.639 309.584 55.5935 310.797 54.808C312.009 54.0114 313.39 53.6131 314.94 53.6131C315.103 53.6131 315.266 53.6131 315.429 53.6131C315.592 53.6131 315.745 53.6186 315.887 53.6297V55.6709C315.765 55.6599 315.617 55.6433 315.444 55.6211C315.281 55.588 315.077 55.5714 314.833 55.5714C313.528 55.5714 312.366 55.8756 311.347 56.4841C310.338 57.0926 309.543 57.9335 308.962 59.0066C308.381 60.0688 308.091 61.2858 308.091 62.6577V79.4523H306.225Z" fill="black"/>
  <path d="M320.99 79.4523V53.9616H322.84V79.4523H320.99ZM321.922 49.4476C321.515 49.4476 321.158 49.2927 320.852 48.9829C320.557 48.6731 320.409 48.297 320.409 47.8544C320.409 47.4119 320.557 47.0357 320.852 46.7259C321.148 46.4162 321.505 46.2613 321.922 46.2613C322.33 46.2613 322.682 46.4162 322.977 46.7259C323.283 47.0357 323.436 47.4119 323.436 47.8544C323.436 48.297 323.288 48.6731 322.993 48.9829C322.697 49.2927 322.34 49.4476 321.922 49.4476Z" fill="black"/>
  <path d="M339.458 79.9834C337.46 79.9834 335.702 79.4136 334.183 78.2741C332.665 77.1234 331.477 75.5524 330.621 73.5609C329.775 71.5695 329.352 69.3125 329.352 66.7899C329.352 64.2674 329.781 62.0104 330.637 60.019C331.493 58.0275 332.68 56.4565 334.199 55.3058C335.717 54.1552 337.465 53.5799 339.443 53.5799C340.931 53.5799 342.286 53.9118 343.509 54.5756C344.742 55.2394 345.762 56.1633 346.567 57.3471C347.382 58.5309 347.902 59.9028 348.126 61.4628H346.231C345.925 59.7368 345.16 58.3096 343.937 57.1811C342.724 56.0416 341.231 55.4718 339.458 55.4718C337.868 55.4718 336.451 55.9586 335.208 56.9322C333.964 57.8947 332.986 59.2279 332.272 60.9317C331.559 62.6245 331.202 64.5661 331.202 66.7568C331.202 68.9142 331.549 70.8503 332.242 72.5652C332.935 74.269 333.903 75.6188 335.147 76.6145C336.39 77.6102 337.827 78.1081 339.458 78.1081C340.61 78.1081 341.659 77.8592 342.607 77.3613C343.565 76.8634 344.365 76.1554 345.007 75.2371C345.65 74.3188 346.073 73.2456 346.276 72.0175H348.172C347.948 73.5886 347.438 74.9715 346.643 76.1664C345.848 77.3613 344.834 78.2962 343.601 78.9711C342.368 79.646 340.987 79.9834 339.458 79.9834Z" fill="black"/>
  <path d="M363.69 79.9834C361.57 79.9834 359.725 79.4136 358.155 78.2741C356.586 77.1345 355.373 75.5745 354.517 73.5941C353.661 71.6137 353.232 69.3567 353.232 66.8231C353.232 64.2785 353.661 62.0104 354.517 60.019C355.383 58.0275 356.57 56.4565 358.079 55.3058C359.587 54.1552 361.31 53.5799 363.246 53.5799C364.561 53.5799 365.804 53.8675 366.976 54.4429C368.159 55.0071 369.198 55.8258 370.095 56.899C371.002 57.9722 371.711 59.2666 372.22 60.7824C372.74 62.2981 373 64.0019 373 65.8938V67.1551H354.41V65.3129H371.135C371.135 63.4653 370.788 61.8002 370.095 60.3177C369.402 58.8351 368.459 57.6569 367.267 56.7828C366.074 55.9088 364.734 55.4718 363.246 55.4718C361.687 55.4718 360.296 55.9475 359.073 56.899C357.86 57.8394 356.897 59.1117 356.183 60.716C355.48 62.3202 355.113 64.1125 355.082 66.0929V66.9227C355.082 69.0469 355.424 70.9554 356.107 72.6482C356.8 74.3299 357.788 75.663 359.073 76.6477C360.357 77.6213 361.896 78.1081 363.69 78.1081C364.974 78.1081 366.069 77.8758 366.976 77.4111C367.894 76.9354 368.643 76.36 369.224 75.6852C369.805 75.0103 370.243 74.3575 370.539 73.7269L372.236 74.4737C371.879 75.3256 371.323 76.1775 370.569 77.0294C369.825 77.8702 368.877 78.5728 367.726 79.137C366.584 79.7013 365.239 79.9834 363.69 79.9834Z" fill="black"/>
</svg>