<?xml version="1.0" encoding="utf-8"?>
<!-- Generator: Adobe Illustrator 22.1.0, SVG Export Plug-In . SVG Version: 6.00 Build 0)  -->
<svg version="1.1" id="Layer_1" xmlns="http://www.w3.org/2000/svg" xmlns:xlink="http://www.w3.org/1999/xlink" x="0px" y="0px"
	 viewBox="0 0 256 256" style="enable-background:new 0 0 256 256;" xml:space="preserve">
<style type="text/css">
	.st0{fill:#D73735;}
	.st1{fill:#F85252;}
	.st2{fill:#EDAF85;}
	.st3{fill:#F7C09A;}
	.st4{fill:#D8D6D7;}
	.st5{fill:#FFFFFF;}
	.st6{fill:#1C868E;}
	.st7{fill:#40C4DF;}
	.st8{fill:#491352;}
	.st9{fill:#56C1B3;}
	.st10{fill:#7BEFE4;}
</style>
<g>
	<path class="st1" d="M246.5,235.439H9.5c-2.761,0-5-2.239-5-5V25.561c0-2.761,2.239-5,5-5h237c2.761,0,5,2.239,5,5v204.879
		C251.5,233.201,249.261,235.439,246.5,235.439z"/>
	<path class="st4" d="M251.5,55.74v174.7c0,2.76-2.24,5-5,5H9.5c-2.76,0-5-2.24-5-5V25.56c0-2.76,2.24-5,5-5h59.95l25.51,31.7
		c1.77,2.2,4.45,3.48,7.28,3.48H251.5z"/>
	<path class="st5" d="M251.5,55.74v174.7c0,2.761-2.239,5-5,5H24.73c-2.761,0-5-2.239-5-5V25.56c0-2.761,2.239-5,5-5h44.72
		l25.51,31.7c1.77,2.2,4.45,3.48,7.28,3.48H251.5z"/>
	<path class="st7" d="M167.041,170.863c-3.036-3.283-2.836-8.405,0.448-11.44l26.054-24.089l-26.054-24.089
		c-3.284-3.035-3.484-8.157-0.448-11.44s8.156-3.485,11.44-0.448l32.484,30.032c3.462,3.201,3.467,8.684,0,11.889l-32.484,30.032
		C175.2,174.344,170.078,174.149,167.041,170.863z"/>
	<path class="st7" d="M77.519,171.311l-32.484-30.032c-3.462-3.201-3.467-8.684,0-11.889l32.484-30.032
		c3.282-3.036,8.404-2.836,11.44,0.448c3.036,3.283,2.836,8.405-0.448,11.44l-26.054,24.089l26.054,24.089
		c3.284,3.035,3.484,8.157,0.448,11.44C85.92,174.15,80.799,174.343,77.519,171.311z"/>
	<path class="st7" d="M106.612,172.378c-3.873-2.236-5.198-7.187-2.963-11.059l34.68-60.066c2.236-3.871,7.184-5.199,11.059-2.963
		c3.873,2.236,5.198,7.187,2.963,11.059l-34.68,60.066C115.436,173.286,110.486,174.614,106.612,172.378z"/>
	<circle class="st5" cx="205.342" cy="38.457" r="6.896"/>
	<circle class="st5" cx="230.584" cy="38.457" r="6.896"/>
	<path class="st8" d="M165.572,172.221c3.796,4.104,10.175,4.342,14.266,0.559l32.483-30.032c4.316-3.988,4.319-10.836,0-14.827
		l-32.482-30.032c-4.014-3.713-10.41-3.612-14.267,0.558c-3.788,4.096-3.54,10.479,0.559,14.266l24.465,22.621l-24.465,22.621
		C162.034,161.742,161.783,168.123,165.572,172.221z M168.846,160.892l26.054-24.089c0.856-0.79,0.856-2.146,0-2.937l-26.054-24.089
		c-2.473-2.286-2.625-6.139-0.336-8.613c2.285-2.472,6.14-2.626,8.613-0.337l32.483,30.032c2.603,2.405,2.622,6.529,0,8.952
		l-32.483,30.033c-2.47,2.282-6.321,2.142-8.613-0.337c0,0,0,0,0,0C166.227,167.039,166.366,163.185,168.846,160.892z"/>
	<path class="st8" d="M90.428,98.448c-3.781-4.09-10.16-4.357-14.266-0.559l-32.483,30.032c-4.316,3.988-4.319,10.836,0,14.827
		l32.483,30.032v0c4.029,3.727,10.422,3.599,14.266-0.559c3.788-4.096,3.54-10.478-0.559-14.266l-24.465-22.621l24.465-22.62
		C93.966,108.927,94.217,102.545,90.428,98.448z M87.154,109.777l-26.054,24.089c-0.856,0.79-0.856,2.147,0,2.937l26.054,24.09
		c2.473,2.286,2.625,6.14,0.336,8.613c-2.272,2.46-6.12,2.642-8.613,0.338c0,0,0,0,0,0L46.394,139.81
		c-2.603-2.405-2.622-6.529,0-8.952l32.484-30.033c2.464-2.28,6.32-2.143,8.612,0.337C89.777,103.634,89.629,107.488,87.154,109.777
		z"/>
	<path class="st8" d="M105.612,174.11L105.612,174.11c4.824,2.782,11.008,1.123,13.791-3.695l34.681-60.066
		c2.782-4.821,1.124-11.008-3.697-13.791c-4.82-2.781-11.005-1.123-13.79,3.696l-34.681,60.066
		C99.134,165.141,100.792,171.327,105.612,174.11z M105.381,162.319l34.68-60.065c1.682-2.911,5.416-3.91,8.327-2.232
		c2.91,1.68,3.912,5.416,2.231,8.327l-34.681,60.066c-1.68,2.91-5.417,3.911-8.326,2.231
		C104.702,168.965,103.701,165.23,105.381,162.319z"/>
	<path class="st8" d="M246.5,18.561H69.449H9.72H9.5c-3.859,0-7,3.14-7,7v0.219v204.44v0.219c0,3.86,3.141,7,7,7h0.22H246.28h0.22
		c3.859,0,7-3.14,7-7v-0.219V55.739V25.561C253.5,21.701,250.359,18.561,246.5,18.561z M249.5,230.22
		c0,1.775-1.444,3.219-3.22,3.219H9.72c-1.775,0-3.22-1.444-3.22-3.219V25.78c0-1.775,1.444-3.219,3.22-3.219h58.771L93.404,53.51
		c2.163,2.688,5.382,4.229,8.831,4.229H249.5V230.22z M249.5,53.739H102.235c-2.232,0-4.315-0.998-5.716-2.737L73.626,22.561H246.5
		c1.654,0,3,1.346,3,3V53.739z"/>
	<path class="st8" d="M60.76,39.618c0-1.104-0.896-2-2-2H24.217c-1.104,0-2,0.896-2,2s0.896,2,2,2H58.76
		C59.864,41.618,60.76,40.722,60.76,39.618z"/>
	<path class="st8" d="M205.343,29.561c-4.905,0-8.896,3.991-8.896,8.896c0,4.905,3.991,8.896,8.896,8.896s8.896-3.991,8.896-8.896
		C214.239,33.552,210.248,29.561,205.343,29.561z M205.343,43.354c-2.7,0-4.896-2.196-4.896-4.896s2.196-4.896,4.896-4.896
		s4.896,2.197,4.896,4.896S208.043,43.354,205.343,43.354z"/>
	<path class="st8" d="M230.584,29.561c-4.905,0-8.896,3.991-8.896,8.896c0,4.905,3.99,8.896,8.896,8.896s8.896-3.991,8.896-8.896
		C239.48,33.552,235.489,29.561,230.584,29.561z M230.584,43.354c-2.699,0-4.896-2.196-4.896-4.896s2.196-4.896,4.896-4.896
		c2.7,0,4.896,2.197,4.896,4.896S233.284,43.354,230.584,43.354z"/>
</g>
</svg>
