<?xml version="1.0" encoding="iso-8859-1"?>
<!-- Generator: Adobe Illustrator 19.0.0, SVG Export Plug-In . SVG Version: 6.00 Build 0)  -->
<svg version="1.1" id="Layer_1" xmlns="http://www.w3.org/2000/svg" xmlns:xlink="http://www.w3.org/1999/xlink" x="0px" y="0px"
	 viewBox="0 0 512 512" style="enable-background:new 0 0 512 512;" xml:space="preserve">
<path style="fill:#C1C1C1;" d="M342.232,439.242h99.603h29.745c17.86,0,32.337,14.477,32.337,32.337l0,0
	c0,17.86-14.477,32.337-32.337,32.337H40.421c-17.86,0-32.337-14.477-32.337-32.337l0,0c0-17.86,14.477-32.337,32.337-32.337h29.745
	h99.603"/>
<path style="fill:#819AD1;" d="M169.768,471.579v-64.674c0-11.906,9.651-21.558,21.558-21.558h129.347
	c11.906,0,21.558,9.651,21.558,21.558v64.674H169.768z"/>
<path style="fill:#6583B7;" d="M342.232,406.905v64.674H256v-86.232h64.674C332.58,385.347,342.232,394.999,342.232,406.905z"/>
<path style="fill:#ACE5AC;" d="M406.905,51.2v215.579c0,23.812-19.304,43.116-43.116,43.116H303.58l-32.337,32.337
	c-8.418,8.418-22.069,8.418-30.487,0l-32.337-32.337h-60.209c-23.812,0-43.116-19.304-43.116-43.116V51.2
	c0-23.812,19.304-43.116,43.116-43.116h215.579C387.601,8.084,406.905,27.388,406.905,51.2z"/>
<path style="fill:#699E69;" d="M175.158,106.575c0-12.04,9.76-21.801,21.801-21.801c12.04,0,21.801,9.76,21.801,21.801
	s-9.76,21.801-21.801,21.801S175.158,118.615,175.158,106.575z M315.041,189.603c-12.04,0-21.802,9.76-21.802,21.801
	s9.76,21.801,21.802,21.801c12.041,0,21.802-9.76,21.802-21.801S327.082,189.603,315.041,189.603z M320.965,91.737
	c-9.286-9.286-24.34-9.286-33.626,0L186.461,192.615c-9.286,9.286-9.286,24.34,0,33.626l0,0c9.286,9.286,24.34,9.286,33.626,0
	l100.878-100.878C330.251,116.078,330.251,101.024,320.965,91.737z"/>
<path d="M285.156,211.404c0,16.479,13.407,29.886,29.886,29.886s29.885-13.407,29.885-29.886s-13.407-29.886-29.886-29.886
	S285.156,194.925,285.156,211.404z M328.758,211.404c0,7.564-6.154,13.717-13.717,13.717c-7.564,0-13.717-6.153-13.717-13.717
	s6.154-13.717,13.717-13.717C322.604,197.687,328.758,203.841,328.758,211.404z M180.745,231.958
	c6.018,6.018,14.019,9.332,22.529,9.332c8.511,0,16.512-3.315,22.53-9.332l100.878-100.877
	c12.422-12.423,12.422-32.636-0.001-45.059c-6.018-6.018-14.019-9.331-22.529-9.331c-8.51,0-16.511,3.315-22.529,9.332
	L180.745,186.899C168.322,199.322,168.322,219.535,180.745,231.958z M192.178,198.332L293.056,97.455
	c2.963-2.964,6.904-4.596,11.096-4.596c4.192,0,8.133,1.632,11.097,4.596c6.119,6.118,6.119,16.075,0,22.193L214.371,220.524
	c-2.963,2.964-6.904,4.596-11.097,4.596c-4.192,0-8.133-1.632-11.096-4.596C186.059,214.406,186.059,204.451,192.178,198.332z
	 M334.147,463.495v-56.589c0-7.43-6.044-13.474-13.474-13.474H191.326c-7.43,0-13.474,6.044-13.474,13.474v56.589H256
	c4.466,0,8.084,3.62,8.084,8.084s-3.618,8.084-8.084,8.084H126.653c-4.466,0-8.084-3.62-8.084-8.084s3.618-8.084,8.084-8.084h35.032
	v-56.589c0-16.345,13.298-29.642,29.642-29.642h129.347c16.344,0,29.642,13.297,29.642,29.642v56.589h35.032
	c4.466,0,8.084,3.62,8.084,8.084s-3.618,8.084-8.084,8.084h-97.011c-4.466,0-8.084-3.62-8.084-8.084s3.618-8.084,8.084-8.084
	H334.147z M512,471.579C512,493.868,493.868,512,471.579,512H40.421C18.132,512,0,493.868,0,471.579
	c0-22.289,18.132-40.421,40.421-40.421h100.244c4.466,0,8.084,3.62,8.084,8.084c0,4.465-3.618,8.084-8.084,8.084H40.421
	c-13.372,0-24.253,10.879-24.253,24.253c0,13.373,10.88,24.253,24.253,24.253h431.158c13.372,0,24.253-10.879,24.253-24.253
	c0-13.373-10.88-24.253-24.253-24.253h-98.088c-4.466,0-8.084-3.62-8.084-8.084c0-4.465,3.618-8.084,8.084-8.084h98.088
	C493.868,431.158,512,449.29,512,471.579z M148.211,317.979h56.86l29.969,29.969c5.599,5.599,13.044,8.682,20.961,8.682
	s15.362-3.083,20.961-8.682l29.969-29.969h56.86c28.231,0,51.2-22.969,51.2-51.2V51.2c0-28.231-22.969-51.2-51.2-51.2H148.211
	c-28.231,0-51.2,22.969-51.2,51.2v215.579C97.011,295.01,119.979,317.979,148.211,317.979z M113.179,51.2
	c0-19.316,15.715-35.032,35.032-35.032h215.579c19.317,0,35.032,15.716,35.032,35.032v215.579c0,19.316-15.715,35.032-35.032,35.032
	h-60.208c-2.144,0-4.199,0.852-5.717,2.368l-32.337,32.337c-5.253,5.254-13.802,5.254-19.055,0l-32.337-32.337
	c-1.517-1.517-3.572-2.368-5.717-2.368h-60.208c-19.317,0-35.032-15.716-35.032-35.032V51.2z M196.959,136.46
	c16.479,0,29.886-13.407,29.886-29.886s-13.407-29.886-29.886-29.886s-29.886,13.407-29.886,29.886S180.481,136.46,196.959,136.46z
	 M196.959,92.857c7.564,0,13.717,6.153,13.717,13.717c0,7.565-6.154,13.717-13.717,13.717s-13.717-6.154-13.717-13.717
	S189.396,92.857,196.959,92.857z"/>
<g>
</g>
<g>
</g>
<g>
</g>
<g>
</g>
<g>
</g>
<g>
</g>
<g>
</g>
<g>
</g>
<g>
</g>
<g>
</g>
<g>
</g>
<g>
</g>
<g>
</g>
<g>
</g>
<g>
</g>
</svg>
