<?xml version="1.0" encoding="iso-8859-1"?>
<!-- Generator: Adobe Illustrator 22.0.1, SVG Export Plug-In . SVG Version: 6.00 Build 0)  -->
<svg version="1.1" xmlns="http://www.w3.org/2000/svg" xmlns:xlink="http://www.w3.org/1999/xlink" x="0px" y="0px"
	 viewBox="0 0 128 128" style="enable-background:new 0 0 128 128;" xml:space="preserve">
<g id="_x31_">
	<circle style="fill:#F78E61;" cx="62.265" cy="91.408" r="23.015"/>
	<path style="fill:#1D252C;" d="M63.725,67.007V15.829c0-0.806-0.654-1.46-1.46-1.46s-1.46,0.654-1.46,1.46v51.178
		C47.99,67.769,37.79,78.405,37.79,91.408c0,13.495,10.979,24.475,24.474,24.475c13.496,0,24.475-10.979,24.475-24.475
		C86.74,78.405,76.54,67.769,63.725,67.007z M62.265,112.962c-11.885,0-21.554-9.669-21.554-21.554s9.669-21.554,21.554-21.554
		S83.82,79.522,83.82,91.408S74.15,112.962,62.265,112.962z M79.798,59.322V17.533C79.798,7.865,71.933,0,62.265,0
		S44.731,7.865,44.731,17.533v41.79C32.94,65.761,25.673,77.932,25.673,91.408c0,20.177,16.415,36.592,36.592,36.592
		c20.178,0,36.593-16.415,36.593-36.592C98.858,77.932,91.589,65.761,79.798,59.322z M62.265,123.62
		c-17.761,0-32.212-14.451-32.212-32.212c0-12.261,6.839-23.296,17.848-28.799l1.211-0.605v-44.47c0-7.253,5.9-13.153,13.153-13.153
		s13.153,5.9,13.153,13.153v44.469l1.211,0.605c11.01,5.504,17.849,16.54,17.849,28.8C94.477,109.169,80.027,123.62,62.265,123.62z
		 M83.82,23.784c0-0.806,0.654-1.46,1.46-1.46h15.588c0.806,0,1.46,0.654,1.46,1.46c0,0.806-0.654,1.46-1.46,1.46H85.28
		C84.473,25.245,83.82,24.591,83.82,23.784z M102.327,32.308c0,0.806-0.654,1.46-1.46,1.46H85.28c-0.806,0-1.46-0.654-1.46-1.46
		c0-0.806,0.654-1.46,1.46-1.46h15.588C101.674,30.848,102.327,31.502,102.327,32.308z M102.327,49.356
		c0,0.806-0.654,1.46-1.46,1.46H85.28c-0.806,0-1.46-0.654-1.46-1.46c0-0.806,0.654-1.46,1.46-1.46h15.588
		C101.674,47.896,102.327,48.55,102.327,49.356z M102.327,40.832c0,0.806-0.654,1.46-1.46,1.46H85.28c-0.806,0-1.46-0.654-1.46-1.46
		c0-0.806,0.654-1.46,1.46-1.46h15.588C101.674,39.372,102.327,40.026,102.327,40.832z"/>
</g>
<g id="Layer_1">
</g>
</svg>
